<svg width="464" height="207" viewBox="0 0 464 207" fill="none" xmlns="http://www.w3.org/2000/svg">
<g clip-path="url(#clip0_2_18091)">
<rect width="225.668" height="97.5" rx="12" fill="#FAFAFA"/>
<path d="M13.26 29.25V20.85H14.46V29.25H13.26ZM20.2028 22.83C20.7228 22.83 21.1788 22.93 21.5708 23.13C21.9708 23.33 22.2828 23.634 22.5068 24.042C22.7308 24.45 22.8428 24.966 22.8428 25.59V29.25H21.6908V25.722C21.6908 25.106 21.5388 24.642 21.2348 24.33C20.9388 24.018 20.5188 23.862 19.9748 23.862C19.5668 23.862 19.2108 23.942 18.9068 24.102C18.6028 24.262 18.3668 24.498 18.1988 24.81C18.0388 25.122 17.9588 25.51 17.9588 25.974V29.25H16.8068V22.89H17.9108V24.606L17.7308 24.15C17.9388 23.734 18.2588 23.41 18.6908 23.178C19.1228 22.946 19.6268 22.83 20.2028 22.83ZM27.7468 29.322C27.0988 29.322 26.5188 29.182 26.0068 28.902C25.5028 28.622 25.1068 28.238 24.8188 27.75C24.5308 27.262 24.3868 26.702 24.3868 26.07C24.3868 25.438 24.5308 24.878 24.8188 24.39C25.1068 23.902 25.5028 23.522 26.0068 23.25C26.5188 22.97 27.0988 22.83 27.7468 22.83C28.3228 22.83 28.8348 22.946 29.2828 23.178C29.7388 23.402 30.0908 23.738 30.3388 24.186L29.4628 24.75C29.2548 24.438 28.9988 24.21 28.6948 24.066C28.3988 23.914 28.0788 23.838 27.7348 23.838C27.3188 23.838 26.9468 23.93 26.6188 24.114C26.2908 24.298 26.0308 24.558 25.8388 24.894C25.6468 25.222 25.5508 25.614 25.5508 26.07C25.5508 26.526 25.6468 26.922 25.8388 27.258C26.0308 27.594 26.2908 27.854 26.6188 28.038C26.9468 28.222 27.3188 28.314 27.7348 28.314C28.0788 28.314 28.3988 28.242 28.6948 28.098C28.9988 27.946 29.2548 27.714 29.4628 27.402L30.3388 27.954C30.0908 28.394 29.7388 28.734 29.2828 28.974C28.8348 29.206 28.3228 29.322 27.7468 29.322ZM34.5063 29.322C33.9623 29.322 33.4823 29.222 33.0663 29.022C32.6583 28.822 32.3383 28.518 32.1063 28.11C31.8823 27.694 31.7703 27.174 31.7703 26.55V22.89H32.9223V26.418C32.9223 27.042 33.0703 27.51 33.3663 27.822C33.6703 28.134 34.0943 28.29 34.6383 28.29C35.0383 28.29 35.3863 28.21 35.6823 28.05C35.9783 27.882 36.2063 27.642 36.3663 27.33C36.5263 27.01 36.6063 26.626 36.6063 26.178V22.89H37.7583V29.25H36.6663V27.534L36.8463 27.99C36.6383 28.414 36.3263 28.742 35.9103 28.974C35.4943 29.206 35.0263 29.322 34.5063 29.322ZM43.3234 29.322C42.7794 29.322 42.2874 29.202 41.8474 28.962C41.4154 28.714 41.0714 28.35 40.8154 27.87C40.5674 27.39 40.4434 26.79 40.4434 26.07C40.4434 25.35 40.5714 24.75 40.8274 24.27C41.0914 23.79 41.4394 23.43 41.8714 23.19C42.3114 22.95 42.7954 22.83 43.3234 22.83C43.9474 22.83 44.4994 22.966 44.9794 23.238C45.4594 23.51 45.8394 23.89 46.1194 24.378C46.3994 24.858 46.5394 25.422 46.5394 26.07C46.5394 26.718 46.3994 27.286 46.1194 27.774C45.8394 28.262 45.4594 28.642 44.9794 28.914C44.4994 29.186 43.9474 29.322 43.3234 29.322ZM39.9514 29.25V20.346H41.1034V24.582L40.9834 26.058L41.0554 27.534V29.25H39.9514ZM43.2274 28.314C43.6354 28.314 43.9994 28.222 44.3194 28.038C44.6474 27.854 44.9034 27.594 45.0874 27.258C45.2794 26.914 45.3754 26.518 45.3754 26.07C45.3754 25.614 45.2794 25.222 45.0874 24.894C44.9034 24.558 44.6474 24.298 44.3194 24.114C43.9994 23.93 43.6354 23.838 43.2274 23.838C42.8274 23.838 42.4634 23.93 42.1354 24.114C41.8154 24.298 41.5594 24.558 41.3674 24.894C41.1834 25.222 41.0914 25.614 41.0914 26.07C41.0914 26.518 41.1834 26.914 41.3674 27.258C41.5594 27.594 41.8154 27.854 42.1354 28.038C42.4634 28.222 42.8274 28.314 43.2274 28.314ZM52.0205 29.25V27.906L51.9605 27.654V25.362C51.9605 24.874 51.8165 24.498 51.5285 24.234C51.2485 23.962 50.8245 23.826 50.2565 23.826C49.8805 23.826 49.5125 23.89 49.1525 24.018C48.7925 24.138 48.4885 24.302 48.2405 24.51L47.7605 23.646C48.0885 23.382 48.4805 23.182 48.9365 23.046C49.4005 22.902 49.8845 22.83 50.3885 22.83C51.2605 22.83 51.9325 23.042 52.4045 23.466C52.8765 23.89 53.1125 24.538 53.1125 25.41V29.25H52.0205ZM49.9325 29.322C49.4605 29.322 49.0445 29.242 48.6845 29.082C48.3325 28.922 48.0605 28.702 47.8685 28.422C47.6765 28.134 47.5805 27.81 47.5805 27.45C47.5805 27.106 47.6605 26.794 47.8205 26.514C47.9885 26.234 48.2565 26.01 48.6245 25.842C49.0005 25.674 49.5045 25.59 50.1365 25.59H52.1525V26.418H50.1845C49.6085 26.418 49.2205 26.514 49.0205 26.706C48.8205 26.898 48.7205 27.13 48.7205 27.402C48.7205 27.714 48.8445 27.966 49.0925 28.158C49.3405 28.342 49.6845 28.434 50.1245 28.434C50.5565 28.434 50.9325 28.338 51.2525 28.146C51.5805 27.954 51.8165 27.674 51.9605 27.306L52.1885 28.098C52.0365 28.474 51.7685 28.774 51.3845 28.998C51.0005 29.214 50.5165 29.322 49.9325 29.322ZM57.4283 29.322C56.7883 29.322 56.2923 29.15 55.9403 28.806C55.5883 28.462 55.4123 27.97 55.4123 27.33V21.498H56.5643V27.282C56.5643 27.626 56.6483 27.89 56.8163 28.074C56.9923 28.258 57.2403 28.35 57.5603 28.35C57.9203 28.35 58.2203 28.25 58.4603 28.05L58.8203 28.878C58.6443 29.03 58.4323 29.142 58.1843 29.214C57.9443 29.286 57.6923 29.322 57.4283 29.322ZM54.3323 23.838V22.89H58.3883V23.838H54.3323ZM62.7262 29.322C62.0862 29.322 61.5182 29.182 61.0222 28.902C60.5262 28.622 60.1342 28.238 59.8462 27.75C59.5582 27.254 59.4142 26.694 59.4142 26.07C59.4142 25.438 59.5582 24.878 59.8462 24.39C60.1342 23.902 60.5262 23.522 61.0222 23.25C61.5182 22.97 62.0862 22.83 62.7262 22.83C63.3582 22.83 63.9222 22.97 64.4182 23.25C64.9222 23.522 65.3142 23.902 65.5942 24.39C65.8822 24.87 66.0262 25.43 66.0262 26.07C66.0262 26.702 65.8822 27.262 65.5942 27.75C65.3142 28.238 64.9222 28.622 64.4182 28.902C63.9222 29.182 63.3582 29.322 62.7262 29.322ZM62.7262 28.314C63.1342 28.314 63.4982 28.222 63.8182 28.038C64.1462 27.854 64.4022 27.594 64.5862 27.258C64.7702 26.914 64.8622 26.518 64.8622 26.07C64.8622 25.614 64.7702 25.222 64.5862 24.894C64.4022 24.558 64.1462 24.298 63.8182 24.114C63.4982 23.93 63.1342 23.838 62.7262 23.838C62.3182 23.838 61.9542 23.93 61.6342 24.114C61.3142 24.298 61.0582 24.558 60.8662 24.894C60.6742 25.222 60.5782 25.614 60.5782 26.07C60.5782 26.518 60.6742 26.914 60.8662 27.258C61.0582 27.594 61.3142 27.854 61.6342 28.038C61.9542 28.222 62.3182 28.314 62.7262 28.314ZM67.6193 29.25V22.89H68.7233V24.618L68.6153 24.186C68.7913 23.746 69.0873 23.41 69.5033 23.178C69.9193 22.946 70.4313 22.83 71.0393 22.83V23.946C70.9913 23.938 70.9433 23.934 70.8953 23.934C70.8553 23.934 70.8153 23.934 70.7753 23.934C70.1593 23.934 69.6713 24.118 69.3113 24.486C68.9513 24.854 68.7713 25.386 68.7713 26.082V29.25H67.6193ZM74.6599 29.25L78.4639 20.85H79.6519L83.4679 29.25H82.2079L78.8119 21.522H79.2919L75.8959 29.25H74.6599ZM76.2799 27.15L76.6039 26.19H81.3319L81.6799 27.15H76.2799Z" fill="#8E8E93"/>
<path d="M17.922 53.466C16.866 53.466 15.942 53.31 15.15 52.998C14.358 52.674 13.74 52.224 13.296 51.648C12.852 51.06 12.63 50.376 12.63 49.596C12.63 48.816 12.846 48.156 13.278 47.616C13.722 47.064 14.34 46.65 15.132 46.374C15.924 46.086 16.854 45.942 17.922 45.942C19.002 45.942 19.938 46.086 20.73 46.374C21.534 46.65 22.152 47.064 22.584 47.616C23.028 48.156 23.25 48.816 23.25 49.596C23.25 50.376 23.028 51.06 22.584 51.648C22.14 52.224 21.516 52.674 20.712 52.998C19.92 53.31 18.99 53.466 17.922 53.466ZM17.922 51.324C18.654 51.324 19.23 51.162 19.65 50.838C20.082 50.514 20.298 50.07 20.298 49.506C20.298 48.942 20.082 48.504 19.65 48.192C19.23 47.868 18.654 47.706 17.922 47.706C17.202 47.706 16.632 47.868 16.212 48.192C15.792 48.504 15.582 48.942 15.582 49.506C15.582 50.07 15.792 50.514 16.212 50.838C16.632 51.162 17.202 51.324 17.922 51.324ZM17.922 47.418C16.95 47.418 16.098 47.286 15.366 47.022C14.646 46.758 14.082 46.374 13.674 45.87C13.278 45.354 13.08 44.742 13.08 44.034C13.08 43.29 13.284 42.654 13.692 42.126C14.1 41.586 14.67 41.172 15.402 40.884C16.134 40.584 16.974 40.434 17.922 40.434C18.894 40.434 19.74 40.584 20.46 40.884C21.192 41.172 21.762 41.586 22.17 42.126C22.59 42.654 22.8 43.29 22.8 44.034C22.8 44.742 22.596 45.354 22.188 45.87C21.792 46.374 21.228 46.758 20.496 47.022C19.764 47.286 18.906 47.418 17.922 47.418ZM17.922 45.708C18.534 45.708 19.014 45.57 19.362 45.294C19.722 45.018 19.902 44.64 19.902 44.16C19.902 43.656 19.716 43.266 19.344 42.99C18.984 42.714 18.51 42.576 17.922 42.576C17.346 42.576 16.878 42.714 16.518 42.99C16.158 43.266 15.978 43.656 15.978 44.16C15.978 44.64 16.152 45.018 16.5 45.294C16.848 45.57 17.322 45.708 17.922 45.708ZM29.8048 53.466C28.7488 53.466 27.8248 53.31 27.0328 52.998C26.2408 52.674 25.6228 52.224 25.1788 51.648C24.7348 51.06 24.5128 50.376 24.5128 49.596C24.5128 48.816 24.7288 48.156 25.1608 47.616C25.6048 47.064 26.2228 46.65 27.0148 46.374C27.8068 46.086 28.7368 45.942 29.8048 45.942C30.8848 45.942 31.8208 46.086 32.6128 46.374C33.4168 46.65 34.0348 47.064 34.4668 47.616C34.9108 48.156 35.1328 48.816 35.1328 49.596C35.1328 50.376 34.9108 51.06 34.4668 51.648C34.0228 52.224 33.3988 52.674 32.5948 52.998C31.8028 53.31 30.8728 53.466 29.8048 53.466ZM29.8048 51.324C30.5368 51.324 31.1128 51.162 31.5328 50.838C31.9648 50.514 32.1808 50.07 32.1808 49.506C32.1808 48.942 31.9648 48.504 31.5328 48.192C31.1128 47.868 30.5368 47.706 29.8048 47.706C29.0848 47.706 28.5148 47.868 28.0948 48.192C27.6748 48.504 27.4648 48.942 27.4648 49.506C27.4648 50.07 27.6748 50.514 28.0948 50.838C28.5148 51.162 29.0848 51.324 29.8048 51.324ZM29.8048 47.418C28.8328 47.418 27.9808 47.286 27.2488 47.022C26.5288 46.758 25.9648 46.374 25.5568 45.87C25.1608 45.354 24.9628 44.742 24.9628 44.034C24.9628 43.29 25.1668 42.654 25.5748 42.126C25.9828 41.586 26.5528 41.172 27.2848 40.884C28.0168 40.584 28.8568 40.434 29.8048 40.434C30.7768 40.434 31.6228 40.584 32.3428 40.884C33.0748 41.172 33.6448 41.586 34.0528 42.126C34.4728 42.654 34.6828 43.29 34.6828 44.034C34.6828 44.742 34.4788 45.354 34.0708 45.87C33.6748 46.374 33.1108 46.758 32.3788 47.022C31.6468 47.286 30.7888 47.418 29.8048 47.418ZM29.8048 45.708C30.4168 45.708 30.8968 45.57 31.2448 45.294C31.6048 45.018 31.7848 44.64 31.7848 44.16C31.7848 43.656 31.5988 43.266 31.2268 42.99C30.8668 42.714 30.3928 42.576 29.8048 42.576C29.2288 42.576 28.7608 42.714 28.4008 42.99C28.0408 43.266 27.8608 43.656 27.8608 44.16C27.8608 44.64 28.0348 45.018 28.3828 45.294C28.7308 45.57 29.2048 45.708 29.8048 45.708ZM38.2994 53.394C37.8194 53.394 37.4054 53.232 37.0574 52.908C36.7214 52.572 36.5534 52.146 36.5534 51.63C36.5534 51.114 36.7214 50.7 37.0574 50.388C37.4054 50.064 37.8194 49.902 38.2994 49.902C38.7914 49.902 39.2054 50.064 39.5414 50.388C39.8774 50.7 40.0454 51.114 40.0454 51.63C40.0454 52.146 39.8774 52.572 39.5414 52.908C39.2054 53.232 38.7914 53.394 38.2994 53.394ZM41.4221 53.25V51.36L46.2821 46.77C46.6661 46.422 46.9481 46.11 47.1281 45.834C47.3081 45.558 47.4281 45.306 47.4881 45.078C47.5601 44.85 47.5961 44.64 47.5961 44.448C47.5961 43.944 47.4221 43.56 47.0741 43.296C46.7381 43.02 46.2401 42.882 45.5801 42.882C45.0521 42.882 44.5601 42.984 44.1041 43.188C43.6601 43.392 43.2821 43.71 42.9701 44.142L40.8461 42.774C41.3261 42.054 41.9981 41.484 42.8621 41.064C43.7261 40.644 44.7221 40.434 45.8501 40.434C46.7861 40.434 47.6021 40.59 48.2981 40.902C49.0061 41.202 49.5521 41.628 49.9361 42.18C50.3321 42.732 50.5301 43.392 50.5301 44.16C50.5301 44.568 50.4761 44.976 50.3681 45.384C50.2721 45.78 50.0681 46.2 49.7561 46.644C49.4561 47.088 49.0121 47.586 48.4241 48.138L44.3921 51.936L43.8341 50.874H50.9441V53.25H41.4221ZM54.0733 53.25L62.6773 40.65H63.7393L55.1353 53.25H54.0733ZM55.0453 47.4C54.4813 47.4 53.9833 47.262 53.5513 46.986C53.1193 46.698 52.7833 46.296 52.5433 45.78C52.3153 45.264 52.2013 44.664 52.2013 43.98C52.2013 43.296 52.3153 42.696 52.5433 42.18C52.7833 41.664 53.1193 41.268 53.5513 40.992C53.9833 40.704 54.4813 40.56 55.0453 40.56C55.6093 40.56 56.1013 40.704 56.5213 40.992C56.9533 41.268 57.2893 41.664 57.5293 42.18C57.7693 42.696 57.8893 43.296 57.8893 43.98C57.8893 44.664 57.7693 45.264 57.5293 45.78C57.2893 46.296 56.9533 46.698 56.5213 46.986C56.1013 47.262 55.6093 47.4 55.0453 47.4ZM55.0453 46.59C55.6333 46.59 56.1013 46.362 56.4493 45.906C56.8093 45.438 56.9893 44.796 56.9893 43.98C56.9893 43.164 56.8093 42.528 56.4493 42.072C56.1013 41.604 55.6333 41.37 55.0453 41.37C54.4453 41.37 53.9713 41.604 53.6233 42.072C53.2753 42.528 53.1013 43.164 53.1013 43.98C53.1013 44.796 53.2753 45.438 53.6233 45.906C53.9713 46.362 54.4453 46.59 55.0453 46.59ZM62.7673 53.34C62.2153 53.34 61.7233 53.202 61.2913 52.926C60.8593 52.638 60.5233 52.236 60.2833 51.72C60.0433 51.204 59.9233 50.604 59.9233 49.92C59.9233 49.236 60.0433 48.636 60.2833 48.12C60.5233 47.604 60.8593 47.208 61.2913 46.932C61.7233 46.644 62.2153 46.5 62.7673 46.5C63.3433 46.5 63.8413 46.644 64.2613 46.932C64.6933 47.208 65.0233 47.604 65.2513 48.12C65.4913 48.636 65.6113 49.236 65.6113 49.92C65.6113 50.604 65.4913 51.204 65.2513 51.72C65.0233 52.236 64.6933 52.638 64.2613 52.926C63.8413 53.202 63.3433 53.34 62.7673 53.34ZM62.7673 52.53C63.3553 52.53 63.8233 52.302 64.1713 51.846C64.5313 51.378 64.7113 50.736 64.7113 49.92C64.7113 49.104 64.5313 48.468 64.1713 48.012C63.8233 47.544 63.3553 47.31 62.7673 47.31C62.1793 47.31 61.7053 47.544 61.3453 48.012C60.9973 48.468 60.8233 49.104 60.8233 49.92C60.8233 50.736 60.9973 51.378 61.3453 51.846C61.7053 52.302 62.1793 52.53 62.7673 52.53Z" fill="#232323"/>
<path d="M18.0133 65.1431L14.4199 67.9431C13.8199 68.4098 13.3333 69.4031 13.3333 70.1564V75.0964C13.3333 76.6431 14.5933 77.9098 16.1399 77.9098H23.8599C25.4066 77.9098 26.6666 76.6431 26.6666 75.1031V70.2498C26.6666 69.4431 26.1266 68.4098 25.4666 67.9498L21.3466 65.0631C20.4133 64.4098 18.9133 64.4431 18.0133 65.1431Z" stroke="#37C577" stroke-linecap="round" stroke-linejoin="round"/>
<path d="M23 70.917L20.2 73.717L19.1333 72.117L17 74.2503" stroke="#37C577" stroke-linecap="round" stroke-linejoin="round"/>
<path d="M21.6667 70.917H23.0001V72.2503" stroke="#37C577" stroke-width="1.2" stroke-linecap="round" stroke-linejoin="round"/>
<path d="M32.444 75.25V74.434L35.864 71.134C36.168 70.846 36.392 70.594 36.536 70.378C36.688 70.154 36.788 69.95 36.836 69.766C36.892 69.574 36.92 69.39 36.92 69.214C36.92 68.782 36.768 68.442 36.464 68.194C36.16 67.946 35.716 67.822 35.132 67.822C34.684 67.822 34.28 67.898 33.92 68.05C33.56 68.194 33.248 68.422 32.984 68.734L32.168 68.026C32.488 67.618 32.916 67.306 33.452 67.09C33.996 66.866 34.592 66.754 35.24 66.754C35.824 66.754 36.332 66.85 36.764 67.042C37.196 67.226 37.528 67.494 37.76 67.846C38 68.198 38.12 68.614 38.12 69.094C38.12 69.366 38.084 69.634 38.012 69.898C37.94 70.162 37.804 70.442 37.604 70.738C37.404 71.034 37.116 71.366 36.74 71.734L33.692 74.674L33.404 74.206H38.48V75.25H32.444ZM40.3758 75.322C40.1518 75.322 39.9598 75.246 39.7998 75.094C39.6398 74.934 39.5598 74.734 39.5598 74.494C39.5598 74.254 39.6398 74.058 39.7998 73.906C39.9598 73.754 40.1518 73.678 40.3758 73.678C40.5918 73.678 40.7758 73.754 40.9278 73.906C41.0878 74.058 41.1678 74.254 41.1678 74.494C41.1678 74.734 41.0878 74.934 40.9278 75.094C40.7758 75.246 40.5918 75.322 40.3758 75.322ZM45.0146 75.346C44.4226 75.346 43.8466 75.254 43.2866 75.07C42.7346 74.886 42.2826 74.638 41.9306 74.326L42.4826 73.378C42.7626 73.642 43.1266 73.858 43.5746 74.026C44.0226 74.194 44.4986 74.278 45.0026 74.278C45.6426 74.278 46.1346 74.142 46.4786 73.87C46.8226 73.598 46.9946 73.234 46.9946 72.778C46.9946 72.466 46.9186 72.194 46.7666 71.962C46.6146 71.73 46.3506 71.554 45.9746 71.434C45.6066 71.306 45.0986 71.242 44.4506 71.242H42.5426L42.9866 66.85H47.7266V67.894H43.4306L44.0546 67.306L43.7066 70.774L43.0826 70.198H44.7026C45.5426 70.198 46.2186 70.306 46.7306 70.522C47.2426 70.738 47.6146 71.038 47.8466 71.422C48.0786 71.798 48.1946 72.234 48.1946 72.73C48.1946 73.21 48.0786 73.65 47.8466 74.05C47.6146 74.442 47.2626 74.758 46.7906 74.998C46.3266 75.23 45.7346 75.346 45.0146 75.346ZM50.228 75.25L55.964 66.85H56.888L51.152 75.25H50.228ZM50.9 71.362C50.516 71.362 50.176 71.266 49.88 71.074C49.584 70.882 49.352 70.614 49.184 70.27C49.024 69.926 48.944 69.526 48.944 69.07C48.944 68.614 49.024 68.214 49.184 67.87C49.352 67.526 49.584 67.258 49.88 67.066C50.176 66.874 50.516 66.778 50.9 66.778C51.292 66.778 51.632 66.874 51.92 67.066C52.216 67.258 52.444 67.526 52.604 67.87C52.764 68.214 52.844 68.614 52.844 69.07C52.844 69.526 52.764 69.926 52.604 70.27C52.444 70.614 52.216 70.882 51.92 71.074C51.632 71.266 51.292 71.362 50.9 71.362ZM50.9 70.678C51.268 70.678 51.556 70.538 51.764 70.258C51.972 69.97 52.076 69.574 52.076 69.07C52.076 68.566 51.972 68.174 51.764 67.894C51.556 67.606 51.268 67.462 50.9 67.462C50.54 67.462 50.252 67.606 50.036 67.894C49.828 68.174 49.724 68.566 49.724 69.07C49.724 69.566 49.828 69.958 50.036 70.246C50.252 70.534 50.54 70.678 50.9 70.678ZM56.216 75.322C55.832 75.322 55.492 75.226 55.196 75.034C54.9 74.842 54.672 74.574 54.512 74.23C54.352 73.886 54.272 73.486 54.272 73.03C54.272 72.574 54.352 72.174 54.512 71.83C54.672 71.486 54.9 71.218 55.196 71.026C55.492 70.834 55.832 70.738 56.216 70.738C56.608 70.738 56.948 70.834 57.236 71.026C57.532 71.218 57.76 71.486 57.92 71.83C58.088 72.174 58.172 72.574 58.172 73.03C58.172 73.486 58.088 73.886 57.92 74.23C57.76 74.574 57.532 74.842 57.236 75.034C56.948 75.226 56.608 75.322 56.216 75.322ZM56.216 74.638C56.576 74.638 56.86 74.498 57.068 74.218C57.284 73.93 57.392 73.534 57.392 73.03C57.392 72.534 57.284 72.142 57.068 71.854C56.86 71.566 56.576 71.422 56.216 71.422C55.856 71.422 55.568 71.566 55.352 71.854C55.144 72.134 55.04 72.526 55.04 73.03C55.04 73.534 55.144 73.93 55.352 74.218C55.568 74.498 55.856 74.638 56.216 74.638ZM64.5959 75.25L61.8119 68.89H63.0119L65.4839 74.65H64.9079L67.4279 68.89H68.5559L65.7719 75.25H64.5959ZM71.373 75.322C70.845 75.322 70.341 75.25 69.861 75.106C69.389 74.962 69.017 74.786 68.745 74.578L69.225 73.666C69.497 73.85 69.833 74.006 70.233 74.134C70.633 74.262 71.041 74.326 71.457 74.326C71.993 74.326 72.377 74.25 72.609 74.098C72.849 73.946 72.969 73.734 72.969 73.462C72.969 73.262 72.897 73.106 72.753 72.994C72.609 72.882 72.417 72.798 72.177 72.742C71.945 72.686 71.685 72.638 71.397 72.598C71.109 72.55 70.821 72.494 70.533 72.43C70.245 72.358 69.981 72.262 69.741 72.142C69.501 72.014 69.309 71.842 69.165 71.626C69.021 71.402 68.949 71.106 68.949 70.738C68.949 70.354 69.057 70.018 69.273 69.73C69.489 69.442 69.793 69.222 70.185 69.07C70.585 68.91 71.057 68.83 71.601 68.83C72.017 68.83 72.437 68.882 72.861 68.986C73.293 69.082 73.645 69.222 73.917 69.406L73.425 70.318C73.137 70.126 72.837 69.994 72.525 69.922C72.213 69.85 71.901 69.814 71.589 69.814C71.085 69.814 70.709 69.898 70.461 70.066C70.213 70.226 70.089 70.434 70.089 70.69C70.089 70.906 70.161 71.074 70.305 71.194C70.457 71.306 70.649 71.394 70.881 71.458C71.121 71.522 71.385 71.578 71.673 71.626C71.961 71.666 72.249 71.722 72.537 71.794C72.825 71.858 73.085 71.95 73.317 72.07C73.557 72.19 73.749 72.358 73.893 72.574C74.045 72.79 74.121 73.078 74.121 73.438C74.121 73.822 74.009 74.154 73.785 74.434C73.561 74.714 73.245 74.934 72.837 75.094C72.429 75.246 71.941 75.322 71.373 75.322ZM78.7834 75.25V66.346H79.9354V75.25H78.7834ZM86.083 75.25V73.906L86.023 73.654V71.362C86.023 70.874 85.879 70.498 85.591 70.234C85.311 69.962 84.887 69.826 84.319 69.826C83.943 69.826 83.575 69.89 83.215 70.018C82.855 70.138 82.551 70.302 82.303 70.51L81.823 69.646C82.151 69.382 82.543 69.182 82.999 69.046C83.463 68.902 83.947 68.83 84.451 68.83C85.323 68.83 85.995 69.042 86.467 69.466C86.939 69.89 87.175 70.538 87.175 71.41V75.25H86.083ZM83.995 75.322C83.523 75.322 83.107 75.242 82.747 75.082C82.395 74.922 82.123 74.702 81.931 74.422C81.739 74.134 81.643 73.81 81.643 73.45C81.643 73.106 81.723 72.794 81.883 72.514C82.051 72.234 82.319 72.01 82.687 71.842C83.063 71.674 83.567 71.59 84.199 71.59H86.215V72.418H84.247C83.671 72.418 83.283 72.514 83.083 72.706C82.883 72.898 82.783 73.13 82.783 73.402C82.783 73.714 82.907 73.966 83.155 74.158C83.403 74.342 83.747 74.434 84.187 74.434C84.619 74.434 84.995 74.338 85.315 74.146C85.643 73.954 85.879 73.674 86.023 73.306L86.251 74.098C86.099 74.474 85.831 74.774 85.447 74.998C85.063 75.214 84.579 75.322 83.995 75.322ZM91.1308 75.322C90.6028 75.322 90.0988 75.25 89.6188 75.106C89.1468 74.962 88.7748 74.786 88.5028 74.578L88.9828 73.666C89.2548 73.85 89.5908 74.006 89.9908 74.134C90.3908 74.262 90.7988 74.326 91.2148 74.326C91.7508 74.326 92.1348 74.25 92.3668 74.098C92.6068 73.946 92.7268 73.734 92.7268 73.462C92.7268 73.262 92.6548 73.106 92.5108 72.994C92.3668 72.882 92.1748 72.798 91.9348 72.742C91.7028 72.686 91.4428 72.638 91.1548 72.598C90.8668 72.55 90.5788 72.494 90.2908 72.43C90.0028 72.358 89.7388 72.262 89.4988 72.142C89.2588 72.014 89.0668 71.842 88.9228 71.626C88.7788 71.402 88.7068 71.106 88.7068 70.738C88.7068 70.354 88.8148 70.018 89.0308 69.73C89.2468 69.442 89.5508 69.222 89.9428 69.07C90.3428 68.91 90.8148 68.83 91.3588 68.83C91.7748 68.83 92.1948 68.882 92.6188 68.986C93.0508 69.082 93.4028 69.222 93.6748 69.406L93.1828 70.318C92.8948 70.126 92.5948 69.994 92.2828 69.922C91.9708 69.85 91.6588 69.814 91.3468 69.814C90.8428 69.814 90.4668 69.898 90.2188 70.066C89.9708 70.226 89.8468 70.434 89.8468 70.69C89.8468 70.906 89.9188 71.074 90.0628 71.194C90.2148 71.306 90.4068 71.394 90.6388 71.458C90.8788 71.522 91.1428 71.578 91.4308 71.626C91.7188 71.666 92.0068 71.722 92.2948 71.794C92.5828 71.858 92.8428 71.95 93.0748 72.07C93.3148 72.19 93.5068 72.358 93.6508 72.574C93.8028 72.79 93.8788 73.078 93.8788 73.438C93.8788 73.822 93.7668 74.154 93.5428 74.434C93.3188 74.714 93.0028 74.934 92.5948 75.094C92.1868 75.246 91.6988 75.322 91.1308 75.322ZM97.5026 75.322C96.8626 75.322 96.3666 75.15 96.0146 74.806C95.6626 74.462 95.4866 73.97 95.4866 73.33V67.498H96.6386V73.282C96.6386 73.626 96.7226 73.89 96.8906 74.074C97.0666 74.258 97.3146 74.35 97.6346 74.35C97.9946 74.35 98.2946 74.25 98.5346 74.05L98.8946 74.878C98.7186 75.03 98.5066 75.142 98.2586 75.214C98.0186 75.286 97.7666 75.322 97.5026 75.322ZM94.4066 69.838V68.89H98.4626V69.838H94.4066ZM104.854 75.25L102.49 68.89H103.582L105.682 74.65H105.166L107.35 68.89H108.322L110.458 74.65H109.954L112.102 68.89H113.134L110.758 75.25H109.654L107.65 69.994H107.986L105.958 75.25H104.854ZM116.959 75.322C116.279 75.322 115.679 75.182 115.159 74.902C114.647 74.622 114.247 74.238 113.959 73.75C113.679 73.262 113.539 72.702 113.539 72.07C113.539 71.438 113.675 70.878 113.947 70.39C114.227 69.902 114.607 69.522 115.087 69.25C115.575 68.97 116.123 68.83 116.731 68.83C117.347 68.83 117.891 68.966 118.363 69.238C118.835 69.51 119.203 69.894 119.467 70.39C119.739 70.878 119.875 71.45 119.875 72.106C119.875 72.154 119.871 72.21 119.863 72.274C119.863 72.338 119.859 72.398 119.851 72.454H114.439V71.626H119.251L118.783 71.914C118.791 71.506 118.707 71.142 118.531 70.822C118.355 70.502 118.111 70.254 117.799 70.078C117.495 69.894 117.139 69.802 116.731 69.802C116.331 69.802 115.975 69.894 115.663 70.078C115.351 70.254 115.107 70.506 114.931 70.834C114.755 71.154 114.667 71.522 114.667 71.938V72.13C114.667 72.554 114.763 72.934 114.955 73.27C115.155 73.598 115.431 73.854 115.783 74.038C116.135 74.222 116.539 74.314 116.995 74.314C117.371 74.314 117.711 74.25 118.015 74.122C118.327 73.994 118.599 73.802 118.831 73.546L119.467 74.29C119.179 74.626 118.819 74.882 118.387 75.058C117.963 75.234 117.487 75.322 116.959 75.322ZM124.307 75.322C123.627 75.322 123.027 75.182 122.507 74.902C121.995 74.622 121.595 74.238 121.307 73.75C121.027 73.262 120.887 72.702 120.887 72.07C120.887 71.438 121.023 70.878 121.295 70.39C121.575 69.902 121.955 69.522 122.435 69.25C122.923 68.97 123.471 68.83 124.079 68.83C124.695 68.83 125.239 68.966 125.711 69.238C126.183 69.51 126.551 69.894 126.815 70.39C127.087 70.878 127.223 71.45 127.223 72.106C127.223 72.154 127.219 72.21 127.211 72.274C127.211 72.338 127.207 72.398 127.199 72.454H121.787V71.626H126.599L126.131 71.914C126.139 71.506 126.055 71.142 125.879 70.822C125.703 70.502 125.459 70.254 125.147 70.078C124.843 69.894 124.487 69.802 124.079 69.802C123.679 69.802 123.323 69.894 123.011 70.078C122.699 70.254 122.455 70.506 122.279 70.834C122.103 71.154 122.015 71.522 122.015 71.938V72.13C122.015 72.554 122.111 72.934 122.303 73.27C122.503 73.598 122.779 73.854 123.131 74.038C123.483 74.222 123.887 74.314 124.343 74.314C124.719 74.314 125.059 74.25 125.363 74.122C125.675 73.994 125.947 73.802 126.179 73.546L126.815 74.29C126.527 74.626 126.167 74.882 125.735 75.058C125.311 75.234 124.835 75.322 124.307 75.322ZM129.758 73.714L129.782 72.238L133.442 68.89H134.834L132.026 71.65L131.402 72.178L129.758 73.714ZM128.822 75.25V66.346H129.974V75.25H128.822ZM133.682 75.25L131.186 72.154L131.93 71.23L135.098 75.25H133.682Z" fill="#37C577"/>
<rect x="237.667" width="225.668" height="97.5" rx="12" fill="#FAFAFA"/>
<path d="M250.927 29.25V20.85H252.127V29.25H250.927ZM257.87 22.83C258.39 22.83 258.846 22.93 259.238 23.13C259.638 23.33 259.95 23.634 260.174 24.042C260.398 24.45 260.51 24.966 260.51 25.59V29.25H259.358V25.722C259.358 25.106 259.206 24.642 258.902 24.33C258.606 24.018 258.186 23.862 257.642 23.862C257.234 23.862 256.878 23.942 256.574 24.102C256.27 24.262 256.034 24.498 255.866 24.81C255.706 25.122 255.626 25.51 255.626 25.974V29.25H254.474V22.89H255.578V24.606L255.398 24.15C255.606 23.734 255.926 23.41 256.358 23.178C256.79 22.946 257.294 22.83 257.87 22.83ZM265.414 29.322C264.766 29.322 264.186 29.182 263.674 28.902C263.17 28.622 262.774 28.238 262.486 27.75C262.198 27.262 262.054 26.702 262.054 26.07C262.054 25.438 262.198 24.878 262.486 24.39C262.774 23.902 263.17 23.522 263.674 23.25C264.186 22.97 264.766 22.83 265.414 22.83C265.99 22.83 266.502 22.946 266.95 23.178C267.406 23.402 267.758 23.738 268.006 24.186L267.13 24.75C266.922 24.438 266.666 24.21 266.362 24.066C266.066 23.914 265.746 23.838 265.402 23.838C264.986 23.838 264.614 23.93 264.286 24.114C263.958 24.298 263.698 24.558 263.506 24.894C263.314 25.222 263.218 25.614 263.218 26.07C263.218 26.526 263.314 26.922 263.506 27.258C263.698 27.594 263.958 27.854 264.286 28.038C264.614 28.222 264.986 28.314 265.402 28.314C265.746 28.314 266.066 28.242 266.362 28.098C266.666 27.946 266.922 27.714 267.13 27.402L268.006 27.954C267.758 28.394 267.406 28.734 266.95 28.974C266.502 29.206 265.99 29.322 265.414 29.322ZM272.174 29.322C271.63 29.322 271.15 29.222 270.734 29.022C270.326 28.822 270.006 28.518 269.774 28.11C269.55 27.694 269.438 27.174 269.438 26.55V22.89H270.59V26.418C270.59 27.042 270.738 27.51 271.034 27.822C271.338 28.134 271.762 28.29 272.306 28.29C272.706 28.29 273.054 28.21 273.35 28.05C273.646 27.882 273.874 27.642 274.034 27.33C274.194 27.01 274.274 26.626 274.274 26.178V22.89H275.426V29.25H274.334V27.534L274.514 27.99C274.306 28.414 273.994 28.742 273.578 28.974C273.162 29.206 272.694 29.322 272.174 29.322ZM280.991 29.322C280.447 29.322 279.955 29.202 279.515 28.962C279.083 28.714 278.739 28.35 278.483 27.87C278.235 27.39 278.111 26.79 278.111 26.07C278.111 25.35 278.239 24.75 278.495 24.27C278.759 23.79 279.107 23.43 279.539 23.19C279.979 22.95 280.463 22.83 280.991 22.83C281.615 22.83 282.167 22.966 282.647 23.238C283.127 23.51 283.507 23.89 283.787 24.378C284.067 24.858 284.207 25.422 284.207 26.07C284.207 26.718 284.067 27.286 283.787 27.774C283.507 28.262 283.127 28.642 282.647 28.914C282.167 29.186 281.615 29.322 280.991 29.322ZM277.619 29.25V20.346H278.771V24.582L278.651 26.058L278.723 27.534V29.25H277.619ZM280.895 28.314C281.303 28.314 281.667 28.222 281.987 28.038C282.315 27.854 282.571 27.594 282.755 27.258C282.947 26.914 283.043 26.518 283.043 26.07C283.043 25.614 282.947 25.222 282.755 24.894C282.571 24.558 282.315 24.298 281.987 24.114C281.667 23.93 281.303 23.838 280.895 23.838C280.495 23.838 280.131 23.93 279.803 24.114C279.483 24.298 279.227 24.558 279.035 24.894C278.851 25.222 278.759 25.614 278.759 26.07C278.759 26.518 278.851 26.914 279.035 27.258C279.227 27.594 279.483 27.854 279.803 28.038C280.131 28.222 280.495 28.314 280.895 28.314ZM289.688 29.25V27.906L289.628 27.654V25.362C289.628 24.874 289.484 24.498 289.196 24.234C288.916 23.962 288.492 23.826 287.924 23.826C287.548 23.826 287.18 23.89 286.82 24.018C286.46 24.138 286.156 24.302 285.908 24.51L285.428 23.646C285.756 23.382 286.148 23.182 286.604 23.046C287.068 22.902 287.552 22.83 288.056 22.83C288.928 22.83 289.6 23.042 290.072 23.466C290.544 23.89 290.78 24.538 290.78 25.41V29.25H289.688ZM287.6 29.322C287.128 29.322 286.712 29.242 286.352 29.082C286 28.922 285.728 28.702 285.536 28.422C285.344 28.134 285.248 27.81 285.248 27.45C285.248 27.106 285.328 26.794 285.488 26.514C285.656 26.234 285.924 26.01 286.292 25.842C286.668 25.674 287.172 25.59 287.804 25.59H289.82V26.418H287.852C287.276 26.418 286.888 26.514 286.688 26.706C286.488 26.898 286.388 27.13 286.388 27.402C286.388 27.714 286.512 27.966 286.76 28.158C287.008 28.342 287.352 28.434 287.792 28.434C288.224 28.434 288.6 28.338 288.92 28.146C289.248 27.954 289.484 27.674 289.628 27.306L289.856 28.098C289.704 28.474 289.436 28.774 289.052 28.998C288.668 29.214 288.184 29.322 287.6 29.322ZM295.096 29.322C294.456 29.322 293.96 29.15 293.608 28.806C293.256 28.462 293.08 27.97 293.08 27.33V21.498H294.232V27.282C294.232 27.626 294.316 27.89 294.484 28.074C294.66 28.258 294.908 28.35 295.228 28.35C295.588 28.35 295.888 28.25 296.128 28.05L296.488 28.878C296.312 29.03 296.1 29.142 295.852 29.214C295.612 29.286 295.36 29.322 295.096 29.322ZM292 23.838V22.89H296.056V23.838H292ZM300.394 29.322C299.754 29.322 299.186 29.182 298.69 28.902C298.194 28.622 297.802 28.238 297.514 27.75C297.226 27.254 297.082 26.694 297.082 26.07C297.082 25.438 297.226 24.878 297.514 24.39C297.802 23.902 298.194 23.522 298.69 23.25C299.186 22.97 299.754 22.83 300.394 22.83C301.026 22.83 301.59 22.97 302.086 23.25C302.59 23.522 302.982 23.902 303.262 24.39C303.55 24.87 303.694 25.43 303.694 26.07C303.694 26.702 303.55 27.262 303.262 27.75C302.982 28.238 302.59 28.622 302.086 28.902C301.59 29.182 301.026 29.322 300.394 29.322ZM300.394 28.314C300.802 28.314 301.166 28.222 301.486 28.038C301.814 27.854 302.07 27.594 302.254 27.258C302.438 26.914 302.53 26.518 302.53 26.07C302.53 25.614 302.438 25.222 302.254 24.894C302.07 24.558 301.814 24.298 301.486 24.114C301.166 23.93 300.802 23.838 300.394 23.838C299.986 23.838 299.622 23.93 299.302 24.114C298.982 24.298 298.726 24.558 298.534 24.894C298.342 25.222 298.246 25.614 298.246 26.07C298.246 26.518 298.342 26.914 298.534 27.258C298.726 27.594 298.982 27.854 299.302 28.038C299.622 28.222 299.986 28.314 300.394 28.314ZM305.287 29.25V22.89H306.391V24.618L306.283 24.186C306.459 23.746 306.755 23.41 307.171 23.178C307.587 22.946 308.099 22.83 308.707 22.83V23.946C308.659 23.938 308.611 23.934 308.563 23.934C308.523 23.934 308.483 23.934 308.443 23.934C307.827 23.934 307.339 24.118 306.979 24.486C306.619 24.854 306.439 25.386 306.439 26.082V29.25H305.287ZM313.599 29.25V20.85H317.367C318.335 20.85 319.079 21.046 319.599 21.438C320.119 21.822 320.379 22.35 320.379 23.022C320.379 23.478 320.275 23.862 320.067 24.174C319.867 24.486 319.595 24.726 319.251 24.894C318.907 25.062 318.535 25.146 318.135 25.146L318.351 24.786C318.831 24.786 319.255 24.87 319.623 25.038C319.991 25.206 320.283 25.454 320.499 25.782C320.715 26.102 320.823 26.502 320.823 26.982C320.823 27.702 320.551 28.262 320.007 28.662C319.471 29.054 318.671 29.25 317.607 29.25H313.599ZM314.799 28.278H317.559C318.223 28.278 318.731 28.166 319.083 27.942C319.435 27.718 319.611 27.366 319.611 26.886C319.611 26.398 319.435 26.042 319.083 25.818C318.731 25.594 318.223 25.482 317.559 25.482H314.691V24.51H317.259C317.867 24.51 318.339 24.398 318.675 24.174C319.011 23.95 319.179 23.614 319.179 23.166C319.179 22.718 319.011 22.382 318.675 22.158C318.339 21.934 317.867 21.822 317.259 21.822H314.799V28.278Z" fill="#8E8E93"/>
<path d="M255.589 53.466C254.533 53.466 253.609 53.31 252.817 52.998C252.025 52.674 251.407 52.224 250.963 51.648C250.519 51.06 250.297 50.376 250.297 49.596C250.297 48.816 250.513 48.156 250.945 47.616C251.389 47.064 252.007 46.65 252.799 46.374C253.591 46.086 254.521 45.942 255.589 45.942C256.669 45.942 257.605 46.086 258.397 46.374C259.201 46.65 259.819 47.064 260.251 47.616C260.695 48.156 260.917 48.816 260.917 49.596C260.917 50.376 260.695 51.06 260.251 51.648C259.807 52.224 259.183 52.674 258.379 52.998C257.587 53.31 256.657 53.466 255.589 53.466ZM255.589 51.324C256.321 51.324 256.897 51.162 257.317 50.838C257.749 50.514 257.965 50.07 257.965 49.506C257.965 48.942 257.749 48.504 257.317 48.192C256.897 47.868 256.321 47.706 255.589 47.706C254.869 47.706 254.299 47.868 253.879 48.192C253.459 48.504 253.249 48.942 253.249 49.506C253.249 50.07 253.459 50.514 253.879 50.838C254.299 51.162 254.869 51.324 255.589 51.324ZM255.589 47.418C254.617 47.418 253.765 47.286 253.033 47.022C252.313 46.758 251.749 46.374 251.341 45.87C250.945 45.354 250.747 44.742 250.747 44.034C250.747 43.29 250.951 42.654 251.359 42.126C251.767 41.586 252.337 41.172 253.069 40.884C253.801 40.584 254.641 40.434 255.589 40.434C256.561 40.434 257.407 40.584 258.127 40.884C258.859 41.172 259.429 41.586 259.837 42.126C260.257 42.654 260.467 43.29 260.467 44.034C260.467 44.742 260.263 45.354 259.855 45.87C259.459 46.374 258.895 46.758 258.163 47.022C257.431 47.286 256.573 47.418 255.589 47.418ZM255.589 45.708C256.201 45.708 256.681 45.57 257.029 45.294C257.389 45.018 257.569 44.64 257.569 44.16C257.569 43.656 257.383 43.266 257.011 42.99C256.651 42.714 256.177 42.576 255.589 42.576C255.013 42.576 254.545 42.714 254.185 42.99C253.825 43.266 253.645 43.656 253.645 44.16C253.645 44.64 253.819 45.018 254.167 45.294C254.515 45.57 254.989 45.708 255.589 45.708ZM266.338 53.466C265.462 53.466 264.592 53.352 263.728 53.124C262.864 52.884 262.132 52.548 261.532 52.116L262.666 49.884C263.146 50.232 263.704 50.508 264.34 50.712C264.976 50.916 265.618 51.018 266.266 51.018C266.998 51.018 267.574 50.874 267.994 50.586C268.414 50.298 268.624 49.902 268.624 49.398C268.624 48.918 268.438 48.54 268.066 48.264C267.694 47.988 267.094 47.85 266.266 47.85H264.934V45.924L268.444 41.946L268.768 42.99H262.162V40.65H270.982V42.54L267.49 46.518L266.014 45.672H266.86C268.408 45.672 269.578 46.02 270.37 46.716C271.162 47.412 271.558 48.306 271.558 49.398C271.558 50.106 271.372 50.772 271 51.396C270.628 52.008 270.058 52.506 269.29 52.89C268.522 53.274 267.538 53.466 266.338 53.466ZM274.561 53.394C274.081 53.394 273.667 53.232 273.319 52.908C272.983 52.572 272.815 52.146 272.815 51.63C272.815 51.114 272.983 50.7 273.319 50.388C273.667 50.064 274.081 49.902 274.561 49.902C275.053 49.902 275.467 50.064 275.803 50.388C276.139 50.7 276.307 51.114 276.307 51.63C276.307 52.146 276.139 52.572 275.803 52.908C275.467 53.232 275.053 53.394 274.561 53.394ZM277.472 50.604V48.642L283.412 40.65H286.472L280.658 48.642L279.236 48.228H289.154V50.604H277.472ZM284.258 53.25V50.604L284.348 48.228V45.87H287.102V53.25H284.258ZM291.952 53.25L300.556 40.65H301.618L293.014 53.25H291.952ZM292.924 47.4C292.36 47.4 291.862 47.262 291.43 46.986C290.998 46.698 290.662 46.296 290.422 45.78C290.194 45.264 290.08 44.664 290.08 43.98C290.08 43.296 290.194 42.696 290.422 42.18C290.662 41.664 290.998 41.268 291.43 40.992C291.862 40.704 292.36 40.56 292.924 40.56C293.488 40.56 293.98 40.704 294.4 40.992C294.832 41.268 295.168 41.664 295.408 42.18C295.648 42.696 295.768 43.296 295.768 43.98C295.768 44.664 295.648 45.264 295.408 45.78C295.168 46.296 294.832 46.698 294.4 46.986C293.98 47.262 293.488 47.4 292.924 47.4ZM292.924 46.59C293.512 46.59 293.98 46.362 294.328 45.906C294.688 45.438 294.868 44.796 294.868 43.98C294.868 43.164 294.688 42.528 294.328 42.072C293.98 41.604 293.512 41.37 292.924 41.37C292.324 41.37 291.85 41.604 291.502 42.072C291.154 42.528 290.98 43.164 290.98 43.98C290.98 44.796 291.154 45.438 291.502 45.906C291.85 46.362 292.324 46.59 292.924 46.59ZM300.646 53.34C300.094 53.34 299.602 53.202 299.17 52.926C298.738 52.638 298.402 52.236 298.162 51.72C297.922 51.204 297.802 50.604 297.802 49.92C297.802 49.236 297.922 48.636 298.162 48.12C298.402 47.604 298.738 47.208 299.17 46.932C299.602 46.644 300.094 46.5 300.646 46.5C301.222 46.5 301.72 46.644 302.14 46.932C302.572 47.208 302.902 47.604 303.13 48.12C303.37 48.636 303.49 49.236 303.49 49.92C303.49 50.604 303.37 51.204 303.13 51.72C302.902 52.236 302.572 52.638 302.14 52.926C301.72 53.202 301.222 53.34 300.646 53.34ZM300.646 52.53C301.234 52.53 301.702 52.302 302.05 51.846C302.41 51.378 302.59 50.736 302.59 49.92C302.59 49.104 302.41 48.468 302.05 48.012C301.702 47.544 301.234 47.31 300.646 47.31C300.058 47.31 299.584 47.544 299.224 48.012C298.876 48.468 298.702 49.104 298.702 49.92C298.702 50.736 298.876 51.378 299.224 51.846C299.584 52.302 300.058 52.53 300.646 52.53Z" fill="#232323"/>
<path d="M255.681 65.1431L252.088 67.9431C251.488 68.4098 251.001 69.4031 251.001 70.1564V75.0964C251.001 76.6431 252.261 77.9098 253.808 77.9098H261.528C263.074 77.9098 264.334 76.6431 264.334 75.1031V70.2498C264.334 69.4431 263.794 68.4098 263.134 67.9498L259.014 65.0631C258.081 64.4098 256.581 64.4431 255.681 65.1431Z" stroke="#CB3F3F" stroke-linecap="round" stroke-linejoin="round"/>
<path d="M260.667 74.2503L257.867 71.4503L256.801 73.0503L254.667 70.917" stroke="#CB3F3F" stroke-linecap="round" stroke-linejoin="round"/>
<path d="M259.334 74.2503H260.667V72.917" stroke="#CB3F3F" stroke-width="1.2" stroke-linecap="round" stroke-linejoin="round"/>
<path d="M270.111 75.25V74.434L273.531 71.134C273.835 70.846 274.059 70.594 274.203 70.378C274.355 70.154 274.455 69.95 274.503 69.766C274.559 69.574 274.587 69.39 274.587 69.214C274.587 68.782 274.435 68.442 274.131 68.194C273.827 67.946 273.383 67.822 272.799 67.822C272.351 67.822 271.947 67.898 271.587 68.05C271.227 68.194 270.915 68.422 270.651 68.734L269.835 68.026C270.155 67.618 270.583 67.306 271.119 67.09C271.663 66.866 272.259 66.754 272.907 66.754C273.491 66.754 273.999 66.85 274.431 67.042C274.863 67.226 275.195 67.494 275.427 67.846C275.667 68.198 275.787 68.614 275.787 69.094C275.787 69.366 275.751 69.634 275.679 69.898C275.607 70.162 275.471 70.442 275.271 70.738C275.071 71.034 274.783 71.366 274.407 71.734L271.359 74.674L271.071 74.206H276.147V75.25H270.111ZM278.043 75.322C277.819 75.322 277.627 75.246 277.467 75.094C277.307 74.934 277.227 74.734 277.227 74.494C277.227 74.254 277.307 74.058 277.467 73.906C277.627 73.754 277.819 73.678 278.043 73.678C278.259 73.678 278.443 73.754 278.595 73.906C278.755 74.058 278.835 74.254 278.835 74.494C278.835 74.734 278.755 74.934 278.595 75.094C278.443 75.246 278.259 75.322 278.043 75.322ZM282.682 75.346C282.09 75.346 281.514 75.254 280.954 75.07C280.402 74.886 279.95 74.638 279.598 74.326L280.15 73.378C280.43 73.642 280.794 73.858 281.242 74.026C281.69 74.194 282.166 74.278 282.67 74.278C283.31 74.278 283.802 74.142 284.146 73.87C284.49 73.598 284.662 73.234 284.662 72.778C284.662 72.466 284.586 72.194 284.434 71.962C284.282 71.73 284.018 71.554 283.642 71.434C283.274 71.306 282.766 71.242 282.118 71.242H280.21L280.654 66.85H285.394V67.894H281.098L281.722 67.306L281.374 70.774L280.75 70.198H282.37C283.21 70.198 283.886 70.306 284.398 70.522C284.91 70.738 285.282 71.038 285.514 71.422C285.746 71.798 285.862 72.234 285.862 72.73C285.862 73.21 285.746 73.65 285.514 74.05C285.282 74.442 284.93 74.758 284.458 74.998C283.994 75.23 283.402 75.346 282.682 75.346ZM287.895 75.25L293.631 66.85H294.555L288.819 75.25H287.895ZM288.567 71.362C288.183 71.362 287.843 71.266 287.547 71.074C287.251 70.882 287.019 70.614 286.851 70.27C286.691 69.926 286.611 69.526 286.611 69.07C286.611 68.614 286.691 68.214 286.851 67.87C287.019 67.526 287.251 67.258 287.547 67.066C287.843 66.874 288.183 66.778 288.567 66.778C288.959 66.778 289.299 66.874 289.587 67.066C289.883 67.258 290.111 67.526 290.271 67.87C290.431 68.214 290.511 68.614 290.511 69.07C290.511 69.526 290.431 69.926 290.271 70.27C290.111 70.614 289.883 70.882 289.587 71.074C289.299 71.266 288.959 71.362 288.567 71.362ZM288.567 70.678C288.935 70.678 289.223 70.538 289.431 70.258C289.639 69.97 289.743 69.574 289.743 69.07C289.743 68.566 289.639 68.174 289.431 67.894C289.223 67.606 288.935 67.462 288.567 67.462C288.207 67.462 287.919 67.606 287.703 67.894C287.495 68.174 287.391 68.566 287.391 69.07C287.391 69.566 287.495 69.958 287.703 70.246C287.919 70.534 288.207 70.678 288.567 70.678ZM293.883 75.322C293.499 75.322 293.159 75.226 292.863 75.034C292.567 74.842 292.339 74.574 292.179 74.23C292.019 73.886 291.939 73.486 291.939 73.03C291.939 72.574 292.019 72.174 292.179 71.83C292.339 71.486 292.567 71.218 292.863 71.026C293.159 70.834 293.499 70.738 293.883 70.738C294.275 70.738 294.615 70.834 294.903 71.026C295.199 71.218 295.427 71.486 295.587 71.83C295.755 72.174 295.839 72.574 295.839 73.03C295.839 73.486 295.755 73.886 295.587 74.23C295.427 74.574 295.199 74.842 294.903 75.034C294.615 75.226 294.275 75.322 293.883 75.322ZM293.883 74.638C294.243 74.638 294.527 74.498 294.735 74.218C294.951 73.93 295.059 73.534 295.059 73.03C295.059 72.534 294.951 72.142 294.735 71.854C294.527 71.566 294.243 71.422 293.883 71.422C293.523 71.422 293.235 71.566 293.019 71.854C292.811 72.134 292.707 72.526 292.707 73.03C292.707 73.534 292.811 73.93 293.019 74.218C293.235 74.498 293.523 74.638 293.883 74.638ZM302.263 75.25L299.479 68.89H300.679L303.151 74.65H302.575L305.095 68.89H306.223L303.439 75.25H302.263ZM309.041 75.322C308.513 75.322 308.009 75.25 307.529 75.106C307.057 74.962 306.685 74.786 306.413 74.578L306.893 73.666C307.165 73.85 307.501 74.006 307.901 74.134C308.301 74.262 308.709 74.326 309.125 74.326C309.661 74.326 310.045 74.25 310.277 74.098C310.517 73.946 310.637 73.734 310.637 73.462C310.637 73.262 310.565 73.106 310.421 72.994C310.277 72.882 310.085 72.798 309.845 72.742C309.613 72.686 309.353 72.638 309.065 72.598C308.777 72.55 308.489 72.494 308.201 72.43C307.913 72.358 307.649 72.262 307.409 72.142C307.169 72.014 306.977 71.842 306.833 71.626C306.689 71.402 306.617 71.106 306.617 70.738C306.617 70.354 306.725 70.018 306.941 69.73C307.157 69.442 307.461 69.222 307.853 69.07C308.253 68.91 308.725 68.83 309.269 68.83C309.685 68.83 310.105 68.882 310.529 68.986C310.961 69.082 311.313 69.222 311.585 69.406L311.093 70.318C310.805 70.126 310.505 69.994 310.193 69.922C309.881 69.85 309.569 69.814 309.257 69.814C308.753 69.814 308.377 69.898 308.129 70.066C307.881 70.226 307.757 70.434 307.757 70.69C307.757 70.906 307.829 71.074 307.973 71.194C308.125 71.306 308.317 71.394 308.549 71.458C308.789 71.522 309.053 71.578 309.341 71.626C309.629 71.666 309.917 71.722 310.205 71.794C310.493 71.858 310.753 71.95 310.985 72.07C311.225 72.19 311.417 72.358 311.561 72.574C311.713 72.79 311.789 73.078 311.789 73.438C311.789 73.822 311.677 74.154 311.453 74.434C311.229 74.714 310.913 74.934 310.505 75.094C310.097 75.246 309.609 75.322 309.041 75.322ZM316.451 75.25V66.346H317.603V75.25H316.451ZM323.75 75.25V73.906L323.69 73.654V71.362C323.69 70.874 323.546 70.498 323.258 70.234C322.978 69.962 322.554 69.826 321.986 69.826C321.61 69.826 321.242 69.89 320.882 70.018C320.522 70.138 320.218 70.302 319.97 70.51L319.49 69.646C319.818 69.382 320.21 69.182 320.666 69.046C321.13 68.902 321.614 68.83 322.118 68.83C322.99 68.83 323.662 69.042 324.134 69.466C324.606 69.89 324.842 70.538 324.842 71.41V75.25H323.75ZM321.662 75.322C321.19 75.322 320.774 75.242 320.414 75.082C320.062 74.922 319.79 74.702 319.598 74.422C319.406 74.134 319.31 73.81 319.31 73.45C319.31 73.106 319.39 72.794 319.55 72.514C319.718 72.234 319.986 72.01 320.354 71.842C320.73 71.674 321.234 71.59 321.866 71.59H323.882V72.418H321.914C321.338 72.418 320.95 72.514 320.75 72.706C320.55 72.898 320.45 73.13 320.45 73.402C320.45 73.714 320.574 73.966 320.822 74.158C321.07 74.342 321.414 74.434 321.854 74.434C322.286 74.434 322.662 74.338 322.982 74.146C323.31 73.954 323.546 73.674 323.69 73.306L323.918 74.098C323.766 74.474 323.498 74.774 323.114 74.998C322.73 75.214 322.246 75.322 321.662 75.322ZM328.798 75.322C328.27 75.322 327.766 75.25 327.286 75.106C326.814 74.962 326.442 74.786 326.17 74.578L326.65 73.666C326.922 73.85 327.258 74.006 327.658 74.134C328.058 74.262 328.466 74.326 328.882 74.326C329.418 74.326 329.802 74.25 330.034 74.098C330.274 73.946 330.394 73.734 330.394 73.462C330.394 73.262 330.322 73.106 330.178 72.994C330.034 72.882 329.842 72.798 329.602 72.742C329.37 72.686 329.11 72.638 328.822 72.598C328.534 72.55 328.246 72.494 327.958 72.43C327.67 72.358 327.406 72.262 327.166 72.142C326.926 72.014 326.734 71.842 326.59 71.626C326.446 71.402 326.374 71.106 326.374 70.738C326.374 70.354 326.482 70.018 326.698 69.73C326.914 69.442 327.218 69.222 327.61 69.07C328.01 68.91 328.482 68.83 329.026 68.83C329.442 68.83 329.862 68.882 330.286 68.986C330.718 69.082 331.07 69.222 331.342 69.406L330.85 70.318C330.562 70.126 330.262 69.994 329.95 69.922C329.638 69.85 329.326 69.814 329.014 69.814C328.51 69.814 328.134 69.898 327.886 70.066C327.638 70.226 327.514 70.434 327.514 70.69C327.514 70.906 327.586 71.074 327.73 71.194C327.882 71.306 328.074 71.394 328.306 71.458C328.546 71.522 328.81 71.578 329.098 71.626C329.386 71.666 329.674 71.722 329.962 71.794C330.25 71.858 330.51 71.95 330.742 72.07C330.982 72.19 331.174 72.358 331.318 72.574C331.47 72.79 331.546 73.078 331.546 73.438C331.546 73.822 331.434 74.154 331.21 74.434C330.986 74.714 330.67 74.934 330.262 75.094C329.854 75.246 329.366 75.322 328.798 75.322ZM335.17 75.322C334.53 75.322 334.034 75.15 333.682 74.806C333.33 74.462 333.154 73.97 333.154 73.33V67.498H334.306V73.282C334.306 73.626 334.39 73.89 334.558 74.074C334.734 74.258 334.982 74.35 335.302 74.35C335.662 74.35 335.962 74.25 336.202 74.05L336.562 74.878C336.386 75.03 336.174 75.142 335.926 75.214C335.686 75.286 335.434 75.322 335.17 75.322ZM332.074 69.838V68.89H336.13V69.838H332.074ZM342.521 75.25L340.157 68.89H341.249L343.349 74.65H342.833L345.017 68.89H345.989L348.125 74.65H347.621L349.769 68.89H350.801L348.425 75.25H347.321L345.317 69.994H345.653L343.625 75.25H342.521ZM354.627 75.322C353.947 75.322 353.347 75.182 352.827 74.902C352.315 74.622 351.915 74.238 351.627 73.75C351.347 73.262 351.207 72.702 351.207 72.07C351.207 71.438 351.343 70.878 351.615 70.39C351.895 69.902 352.275 69.522 352.755 69.25C353.243 68.97 353.791 68.83 354.399 68.83C355.015 68.83 355.559 68.966 356.031 69.238C356.503 69.51 356.871 69.894 357.135 70.39C357.407 70.878 357.543 71.45 357.543 72.106C357.543 72.154 357.539 72.21 357.531 72.274C357.531 72.338 357.527 72.398 357.519 72.454H352.107V71.626H356.919L356.451 71.914C356.459 71.506 356.375 71.142 356.199 70.822C356.023 70.502 355.779 70.254 355.467 70.078C355.163 69.894 354.807 69.802 354.399 69.802C353.999 69.802 353.643 69.894 353.331 70.078C353.019 70.254 352.775 70.506 352.599 70.834C352.423 71.154 352.335 71.522 352.335 71.938V72.13C352.335 72.554 352.431 72.934 352.623 73.27C352.823 73.598 353.099 73.854 353.451 74.038C353.803 74.222 354.207 74.314 354.663 74.314C355.039 74.314 355.379 74.25 355.683 74.122C355.995 73.994 356.267 73.802 356.499 73.546L357.135 74.29C356.847 74.626 356.487 74.882 356.055 75.058C355.631 75.234 355.155 75.322 354.627 75.322ZM361.974 75.322C361.294 75.322 360.694 75.182 360.174 74.902C359.662 74.622 359.262 74.238 358.974 73.75C358.694 73.262 358.554 72.702 358.554 72.07C358.554 71.438 358.69 70.878 358.962 70.39C359.242 69.902 359.622 69.522 360.102 69.25C360.59 68.97 361.138 68.83 361.746 68.83C362.362 68.83 362.906 68.966 363.378 69.238C363.85 69.51 364.218 69.894 364.482 70.39C364.754 70.878 364.89 71.45 364.89 72.106C364.89 72.154 364.886 72.21 364.878 72.274C364.878 72.338 364.874 72.398 364.866 72.454H359.454V71.626H364.266L363.798 71.914C363.806 71.506 363.722 71.142 363.546 70.822C363.37 70.502 363.126 70.254 362.814 70.078C362.51 69.894 362.154 69.802 361.746 69.802C361.346 69.802 360.99 69.894 360.678 70.078C360.366 70.254 360.122 70.506 359.946 70.834C359.77 71.154 359.682 71.522 359.682 71.938V72.13C359.682 72.554 359.778 72.934 359.97 73.27C360.17 73.598 360.446 73.854 360.798 74.038C361.15 74.222 361.554 74.314 362.01 74.314C362.386 74.314 362.726 74.25 363.03 74.122C363.342 73.994 363.614 73.802 363.846 73.546L364.482 74.29C364.194 74.626 363.834 74.882 363.402 75.058C362.978 75.234 362.502 75.322 361.974 75.322ZM367.426 73.714L367.45 72.238L371.11 68.89H372.502L369.694 71.65L369.07 72.178L367.426 73.714ZM366.49 75.25V66.346H367.642V75.25H366.49ZM371.35 75.25L368.854 72.154L369.598 71.23L372.766 75.25H371.35Z" fill="#CB3F3F"/>
<rect y="109.5" width="225.668" height="97.5" rx="12" fill="#FAFAFA"/>
<path d="M13.26 138.75V130.35H14.46V138.75H13.26ZM20.2028 132.33C20.7228 132.33 21.1788 132.43 21.5708 132.63C21.9708 132.83 22.2828 133.134 22.5068 133.542C22.7308 133.95 22.8428 134.466 22.8428 135.09V138.75H21.6908V135.222C21.6908 134.606 21.5388 134.142 21.2348 133.83C20.9388 133.518 20.5188 133.362 19.9748 133.362C19.5668 133.362 19.2108 133.442 18.9068 133.602C18.6028 133.762 18.3668 133.998 18.1988 134.31C18.0388 134.622 17.9588 135.01 17.9588 135.474V138.75H16.8068V132.39H17.9108V134.106L17.7308 133.65C17.9388 133.234 18.2588 132.91 18.6908 132.678C19.1228 132.446 19.6268 132.33 20.2028 132.33ZM27.7468 138.822C27.0988 138.822 26.5188 138.682 26.0068 138.402C25.5028 138.122 25.1068 137.738 24.8188 137.25C24.5308 136.762 24.3868 136.202 24.3868 135.57C24.3868 134.938 24.5308 134.378 24.8188 133.89C25.1068 133.402 25.5028 133.022 26.0068 132.75C26.5188 132.47 27.0988 132.33 27.7468 132.33C28.3228 132.33 28.8348 132.446 29.2828 132.678C29.7388 132.902 30.0908 133.238 30.3388 133.686L29.4628 134.25C29.2548 133.938 28.9988 133.71 28.6948 133.566C28.3988 133.414 28.0788 133.338 27.7348 133.338C27.3188 133.338 26.9468 133.43 26.6188 133.614C26.2908 133.798 26.0308 134.058 25.8388 134.394C25.6468 134.722 25.5508 135.114 25.5508 135.57C25.5508 136.026 25.6468 136.422 25.8388 136.758C26.0308 137.094 26.2908 137.354 26.6188 137.538C26.9468 137.722 27.3188 137.814 27.7348 137.814C28.0788 137.814 28.3988 137.742 28.6948 137.598C28.9988 137.446 29.2548 137.214 29.4628 136.902L30.3388 137.454C30.0908 137.894 29.7388 138.234 29.2828 138.474C28.8348 138.706 28.3228 138.822 27.7468 138.822ZM34.5063 138.822C33.9623 138.822 33.4823 138.722 33.0663 138.522C32.6583 138.322 32.3383 138.018 32.1063 137.61C31.8823 137.194 31.7703 136.674 31.7703 136.05V132.39H32.9223V135.918C32.9223 136.542 33.0703 137.01 33.3663 137.322C33.6703 137.634 34.0943 137.79 34.6383 137.79C35.0383 137.79 35.3863 137.71 35.6823 137.55C35.9783 137.382 36.2063 137.142 36.3663 136.83C36.5263 136.51 36.6063 136.126 36.6063 135.678V132.39H37.7583V138.75H36.6663V137.034L36.8463 137.49C36.6383 137.914 36.3263 138.242 35.9103 138.474C35.4943 138.706 35.0263 138.822 34.5063 138.822ZM43.3234 138.822C42.7794 138.822 42.2874 138.702 41.8474 138.462C41.4154 138.214 41.0714 137.85 40.8154 137.37C40.5674 136.89 40.4434 136.29 40.4434 135.57C40.4434 134.85 40.5714 134.25 40.8274 133.77C41.0914 133.29 41.4394 132.93 41.8714 132.69C42.3114 132.45 42.7954 132.33 43.3234 132.33C43.9474 132.33 44.4994 132.466 44.9794 132.738C45.4594 133.01 45.8394 133.39 46.1194 133.878C46.3994 134.358 46.5394 134.922 46.5394 135.57C46.5394 136.218 46.3994 136.786 46.1194 137.274C45.8394 137.762 45.4594 138.142 44.9794 138.414C44.4994 138.686 43.9474 138.822 43.3234 138.822ZM39.9514 138.75V129.846H41.1034V134.082L40.9834 135.558L41.0554 137.034V138.75H39.9514ZM43.2274 137.814C43.6354 137.814 43.9994 137.722 44.3194 137.538C44.6474 137.354 44.9034 137.094 45.0874 136.758C45.2794 136.414 45.3754 136.018 45.3754 135.57C45.3754 135.114 45.2794 134.722 45.0874 134.394C44.9034 134.058 44.6474 133.798 44.3194 133.614C43.9994 133.43 43.6354 133.338 43.2274 133.338C42.8274 133.338 42.4634 133.43 42.1354 133.614C41.8154 133.798 41.5594 134.058 41.3674 134.394C41.1834 134.722 41.0914 135.114 41.0914 135.57C41.0914 136.018 41.1834 136.414 41.3674 136.758C41.5594 137.094 41.8154 137.354 42.1354 137.538C42.4634 137.722 42.8274 137.814 43.2274 137.814ZM52.0205 138.75V137.406L51.9605 137.154V134.862C51.9605 134.374 51.8165 133.998 51.5285 133.734C51.2485 133.462 50.8245 133.326 50.2565 133.326C49.8805 133.326 49.5125 133.39 49.1525 133.518C48.7925 133.638 48.4885 133.802 48.2405 134.01L47.7605 133.146C48.0885 132.882 48.4805 132.682 48.9365 132.546C49.4005 132.402 49.8845 132.33 50.3885 132.33C51.2605 132.33 51.9325 132.542 52.4045 132.966C52.8765 133.39 53.1125 134.038 53.1125 134.91V138.75H52.0205ZM49.9325 138.822C49.4605 138.822 49.0445 138.742 48.6845 138.582C48.3325 138.422 48.0605 138.202 47.8685 137.922C47.6765 137.634 47.5805 137.31 47.5805 136.95C47.5805 136.606 47.6605 136.294 47.8205 136.014C47.9885 135.734 48.2565 135.51 48.6245 135.342C49.0005 135.174 49.5045 135.09 50.1365 135.09H52.1525V135.918H50.1845C49.6085 135.918 49.2205 136.014 49.0205 136.206C48.8205 136.398 48.7205 136.63 48.7205 136.902C48.7205 137.214 48.8445 137.466 49.0925 137.658C49.3405 137.842 49.6845 137.934 50.1245 137.934C50.5565 137.934 50.9325 137.838 51.2525 137.646C51.5805 137.454 51.8165 137.174 51.9605 136.806L52.1885 137.598C52.0365 137.974 51.7685 138.274 51.3845 138.498C51.0005 138.714 50.5165 138.822 49.9325 138.822ZM57.4283 138.822C56.7883 138.822 56.2923 138.65 55.9403 138.306C55.5883 137.962 55.4123 137.47 55.4123 136.83V130.998H56.5643V136.782C56.5643 137.126 56.6483 137.39 56.8163 137.574C56.9923 137.758 57.2403 137.85 57.5603 137.85C57.9203 137.85 58.2203 137.75 58.4603 137.55L58.8203 138.378C58.6443 138.53 58.4323 138.642 58.1843 138.714C57.9443 138.786 57.6923 138.822 57.4283 138.822ZM54.3323 133.338V132.39H58.3883V133.338H54.3323ZM62.7262 138.822C62.0862 138.822 61.5182 138.682 61.0222 138.402C60.5262 138.122 60.1342 137.738 59.8462 137.25C59.5582 136.754 59.4142 136.194 59.4142 135.57C59.4142 134.938 59.5582 134.378 59.8462 133.89C60.1342 133.402 60.5262 133.022 61.0222 132.75C61.5182 132.47 62.0862 132.33 62.7262 132.33C63.3582 132.33 63.9222 132.47 64.4182 132.75C64.9222 133.022 65.3142 133.402 65.5942 133.89C65.8822 134.37 66.0262 134.93 66.0262 135.57C66.0262 136.202 65.8822 136.762 65.5942 137.25C65.3142 137.738 64.9222 138.122 64.4182 138.402C63.9222 138.682 63.3582 138.822 62.7262 138.822ZM62.7262 137.814C63.1342 137.814 63.4982 137.722 63.8182 137.538C64.1462 137.354 64.4022 137.094 64.5862 136.758C64.7702 136.414 64.8622 136.018 64.8622 135.57C64.8622 135.114 64.7702 134.722 64.5862 134.394C64.4022 134.058 64.1462 133.798 63.8182 133.614C63.4982 133.43 63.1342 133.338 62.7262 133.338C62.3182 133.338 61.9542 133.43 61.6342 133.614C61.3142 133.798 61.0582 134.058 60.8662 134.394C60.6742 134.722 60.5782 135.114 60.5782 135.57C60.5782 136.018 60.6742 136.414 60.8662 136.758C61.0582 137.094 61.3142 137.354 61.6342 137.538C61.9542 137.722 62.3182 137.814 62.7262 137.814ZM67.6193 138.75V132.39H68.7233V134.118L68.6153 133.686C68.7913 133.246 69.0873 132.91 69.5033 132.678C69.9193 132.446 70.4313 132.33 71.0393 132.33V133.446C70.9913 133.438 70.9433 133.434 70.8953 133.434C70.8553 133.434 70.8153 133.434 70.7753 133.434C70.1593 133.434 69.6713 133.618 69.3113 133.986C68.9513 134.354 68.7713 134.886 68.7713 135.582V138.75H67.6193ZM79.6879 138.846C79.0479 138.846 78.4559 138.742 77.9119 138.534C77.3759 138.318 76.9079 138.018 76.5079 137.634C76.1159 137.242 75.8079 136.786 75.5839 136.266C75.3599 135.746 75.2479 135.174 75.2479 134.55C75.2479 133.926 75.3599 133.354 75.5839 132.834C75.8079 132.314 76.1199 131.862 76.5199 131.478C76.9199 131.086 77.3879 130.786 77.9239 130.578C78.4679 130.362 79.0599 130.254 79.6999 130.254C80.3479 130.254 80.9439 130.366 81.4879 130.59C82.0399 130.806 82.5079 131.13 82.8919 131.562L82.1119 132.318C81.7919 131.982 81.4319 131.734 81.0319 131.574C80.6319 131.406 80.2039 131.322 79.7479 131.322C79.2759 131.322 78.8359 131.402 78.4279 131.562C78.0279 131.722 77.6799 131.946 77.3839 132.234C77.0879 132.522 76.8559 132.866 76.6879 133.266C76.5279 133.658 76.4479 134.086 76.4479 134.55C76.4479 135.014 76.5279 135.446 76.6879 135.846C76.8559 136.238 77.0879 136.578 77.3839 136.866C77.6799 137.154 78.0279 137.378 78.4279 137.538C78.8359 137.698 79.2759 137.778 79.7479 137.778C80.2039 137.778 80.6319 137.698 81.0319 137.538C81.4319 137.37 81.7919 137.114 82.1119 136.77L82.8919 137.526C82.5079 137.958 82.0399 138.286 81.4879 138.51C80.9439 138.734 80.3439 138.846 79.6879 138.846Z" fill="#8E8E93"/>
<path d="M17.922 162.966C16.866 162.966 15.942 162.81 15.15 162.498C14.358 162.174 13.74 161.724 13.296 161.148C12.852 160.56 12.63 159.876 12.63 159.096C12.63 158.316 12.846 157.656 13.278 157.116C13.722 156.564 14.34 156.15 15.132 155.874C15.924 155.586 16.854 155.442 17.922 155.442C19.002 155.442 19.938 155.586 20.73 155.874C21.534 156.15 22.152 156.564 22.584 157.116C23.028 157.656 23.25 158.316 23.25 159.096C23.25 159.876 23.028 160.56 22.584 161.148C22.14 161.724 21.516 162.174 20.712 162.498C19.92 162.81 18.99 162.966 17.922 162.966ZM17.922 160.824C18.654 160.824 19.23 160.662 19.65 160.338C20.082 160.014 20.298 159.57 20.298 159.006C20.298 158.442 20.082 158.004 19.65 157.692C19.23 157.368 18.654 157.206 17.922 157.206C17.202 157.206 16.632 157.368 16.212 157.692C15.792 158.004 15.582 158.442 15.582 159.006C15.582 159.57 15.792 160.014 16.212 160.338C16.632 160.662 17.202 160.824 17.922 160.824ZM17.922 156.918C16.95 156.918 16.098 156.786 15.366 156.522C14.646 156.258 14.082 155.874 13.674 155.37C13.278 154.854 13.08 154.242 13.08 153.534C13.08 152.79 13.284 152.154 13.692 151.626C14.1 151.086 14.67 150.672 15.402 150.384C16.134 150.084 16.974 149.934 17.922 149.934C18.894 149.934 19.74 150.084 20.46 150.384C21.192 150.672 21.762 151.086 22.17 151.626C22.59 152.154 22.8 152.79 22.8 153.534C22.8 154.242 22.596 154.854 22.188 155.37C21.792 155.874 21.228 156.258 20.496 156.522C19.764 156.786 18.906 156.918 17.922 156.918ZM17.922 155.208C18.534 155.208 19.014 155.07 19.362 154.794C19.722 154.518 19.902 154.14 19.902 153.66C19.902 153.156 19.716 152.766 19.344 152.49C18.984 152.214 18.51 152.076 17.922 152.076C17.346 152.076 16.878 152.214 16.518 152.49C16.158 152.766 15.978 153.156 15.978 153.66C15.978 154.14 16.152 154.518 16.5 154.794C16.848 155.07 17.322 155.208 17.922 155.208ZM28.6708 162.966C27.7948 162.966 26.9248 162.852 26.0608 162.624C25.1968 162.384 24.4648 162.048 23.8648 161.616L24.9988 159.384C25.4788 159.732 26.0368 160.008 26.6728 160.212C27.3088 160.416 27.9508 160.518 28.5988 160.518C29.3308 160.518 29.9068 160.374 30.3268 160.086C30.7468 159.798 30.9568 159.402 30.9568 158.898C30.9568 158.418 30.7708 158.04 30.3988 157.764C30.0268 157.488 29.4268 157.35 28.5988 157.35H27.2668V155.424L30.7768 151.446L31.1008 152.49H24.4948V150.15H33.3148V152.04L29.8228 156.018L28.3468 155.172H29.1928C30.7408 155.172 31.9108 155.52 32.7028 156.216C33.4948 156.912 33.8908 157.806 33.8908 158.898C33.8908 159.606 33.7048 160.272 33.3328 160.896C32.9608 161.508 32.3908 162.006 31.6228 162.39C30.8548 162.774 29.8708 162.966 28.6708 162.966ZM36.8932 162.894C36.4132 162.894 35.9992 162.732 35.6512 162.408C35.3152 162.072 35.1472 161.646 35.1472 161.13C35.1472 160.614 35.3152 160.2 35.6512 159.888C35.9992 159.564 36.4132 159.402 36.8932 159.402C37.3852 159.402 37.7992 159.564 38.1352 159.888C38.4712 160.2 38.6392 160.614 38.6392 161.13C38.6392 161.646 38.4712 162.072 38.1352 162.408C37.7992 162.732 37.3852 162.894 36.8932 162.894ZM44.2321 162.966C43.3561 162.966 42.4861 162.852 41.6221 162.624C40.7701 162.384 40.0381 162.048 39.4261 161.616L40.5781 159.384C41.0581 159.732 41.6101 160.008 42.2341 160.212C42.8701 160.416 43.5121 160.518 44.1601 160.518C44.8921 160.518 45.4681 160.374 45.8881 160.086C46.3081 159.798 46.5181 159.396 46.5181 158.88C46.5181 158.556 46.4341 158.268 46.2661 158.016C46.0981 157.764 45.7981 157.572 45.3661 157.44C44.9461 157.308 44.3521 157.242 43.5841 157.242H40.3621L41.0101 150.15H48.6961V152.49H42.0541L43.5661 151.158L43.1161 156.216L41.6041 154.884H44.2681C45.5161 154.884 46.5181 155.058 47.2741 155.406C48.0421 155.742 48.6001 156.204 48.9481 156.792C49.2961 157.38 49.4701 158.046 49.4701 158.79C49.4701 159.534 49.2841 160.224 48.9121 160.86C48.5401 161.484 47.9641 161.994 47.1841 162.39C46.4161 162.774 45.4321 162.966 44.2321 162.966ZM52.5792 162.75L61.1832 150.15H62.2452L53.6412 162.75H52.5792ZM53.5512 156.9C52.9872 156.9 52.4892 156.762 52.0572 156.486C51.6252 156.198 51.2892 155.796 51.0492 155.28C50.8212 154.764 50.7072 154.164 50.7072 153.48C50.7072 152.796 50.8212 152.196 51.0492 151.68C51.2892 151.164 51.6252 150.768 52.0572 150.492C52.4892 150.204 52.9872 150.06 53.5512 150.06C54.1152 150.06 54.6072 150.204 55.0272 150.492C55.4592 150.768 55.7952 151.164 56.0352 151.68C56.2752 152.196 56.3952 152.796 56.3952 153.48C56.3952 154.164 56.2752 154.764 56.0352 155.28C55.7952 155.796 55.4592 156.198 55.0272 156.486C54.6072 156.762 54.1152 156.9 53.5512 156.9ZM53.5512 156.09C54.1392 156.09 54.6072 155.862 54.9552 155.406C55.3152 154.938 55.4952 154.296 55.4952 153.48C55.4952 152.664 55.3152 152.028 54.9552 151.572C54.6072 151.104 54.1392 150.87 53.5512 150.87C52.9512 150.87 52.4772 151.104 52.1292 151.572C51.7812 152.028 51.6072 152.664 51.6072 153.48C51.6072 154.296 51.7812 154.938 52.1292 155.406C52.4772 155.862 52.9512 156.09 53.5512 156.09ZM61.2732 162.84C60.7212 162.84 60.2292 162.702 59.7972 162.426C59.3652 162.138 59.0292 161.736 58.7892 161.22C58.5492 160.704 58.4292 160.104 58.4292 159.42C58.4292 158.736 58.5492 158.136 58.7892 157.62C59.0292 157.104 59.3652 156.708 59.7972 156.432C60.2292 156.144 60.7212 156 61.2732 156C61.8492 156 62.3472 156.144 62.7672 156.432C63.1992 156.708 63.5292 157.104 63.7572 157.62C63.9972 158.136 64.1172 158.736 64.1172 159.42C64.1172 160.104 63.9972 160.704 63.7572 161.22C63.5292 161.736 63.1992 162.138 62.7672 162.426C62.3472 162.702 61.8492 162.84 61.2732 162.84ZM61.2732 162.03C61.8612 162.03 62.3292 161.802 62.6772 161.346C63.0372 160.878 63.2172 160.236 63.2172 159.42C63.2172 158.604 63.0372 157.968 62.6772 157.512C62.3292 157.044 61.8612 156.81 61.2732 156.81C60.6852 156.81 60.2112 157.044 59.8512 157.512C59.5032 157.968 59.3292 158.604 59.3292 159.42C59.3292 160.236 59.5032 160.878 59.8512 161.346C60.2112 161.802 60.6852 162.03 61.2732 162.03Z" fill="#232323"/>
<path d="M18.0133 174.643L14.4199 177.443C13.8199 177.91 13.3333 178.903 13.3333 179.656V184.596C13.3333 186.143 14.5933 187.41 16.1399 187.41H23.8599C25.4066 187.41 26.6666 186.143 26.6666 184.603V179.75C26.6666 178.943 26.1266 177.91 25.4666 177.45L21.3466 174.563C20.4133 173.91 18.9133 173.943 18.0133 174.643Z" stroke="#CB3F3F" stroke-linecap="round" stroke-linejoin="round"/>
<path d="M23 183.75L20.2 180.95L19.1333 182.55L17 180.417" stroke="#CB3F3F" stroke-linecap="round" stroke-linejoin="round"/>
<path d="M21.6667 183.75H23.0001V182.417" stroke="#CB3F3F" stroke-width="1.2" stroke-linecap="round" stroke-linejoin="round"/>
<path d="M32.444 184.75V183.934L35.864 180.634C36.168 180.346 36.392 180.094 36.536 179.878C36.688 179.654 36.788 179.45 36.836 179.266C36.892 179.074 36.92 178.89 36.92 178.714C36.92 178.282 36.768 177.942 36.464 177.694C36.16 177.446 35.716 177.322 35.132 177.322C34.684 177.322 34.28 177.398 33.92 177.55C33.56 177.694 33.248 177.922 32.984 178.234L32.168 177.526C32.488 177.118 32.916 176.806 33.452 176.59C33.996 176.366 34.592 176.254 35.24 176.254C35.824 176.254 36.332 176.35 36.764 176.542C37.196 176.726 37.528 176.994 37.76 177.346C38 177.698 38.12 178.114 38.12 178.594C38.12 178.866 38.084 179.134 38.012 179.398C37.94 179.662 37.804 179.942 37.604 180.238C37.404 180.534 37.116 180.866 36.74 181.234L33.692 184.174L33.404 183.706H38.48V184.75H32.444ZM40.3758 184.822C40.1518 184.822 39.9598 184.746 39.7998 184.594C39.6398 184.434 39.5598 184.234 39.5598 183.994C39.5598 183.754 39.6398 183.558 39.7998 183.406C39.9598 183.254 40.1518 183.178 40.3758 183.178C40.5918 183.178 40.7758 183.254 40.9278 183.406C41.0878 183.558 41.1678 183.754 41.1678 183.994C41.1678 184.234 41.0878 184.434 40.9278 184.594C40.7758 184.746 40.5918 184.822 40.3758 184.822ZM45.0146 184.846C44.4226 184.846 43.8466 184.754 43.2866 184.57C42.7346 184.386 42.2826 184.138 41.9306 183.826L42.4826 182.878C42.7626 183.142 43.1266 183.358 43.5746 183.526C44.0226 183.694 44.4986 183.778 45.0026 183.778C45.6426 183.778 46.1346 183.642 46.4786 183.37C46.8226 183.098 46.9946 182.734 46.9946 182.278C46.9946 181.966 46.9186 181.694 46.7666 181.462C46.6146 181.23 46.3506 181.054 45.9746 180.934C45.6066 180.806 45.0986 180.742 44.4506 180.742H42.5426L42.9866 176.35H47.7266V177.394H43.4306L44.0546 176.806L43.7066 180.274L43.0826 179.698H44.7026C45.5426 179.698 46.2186 179.806 46.7306 180.022C47.2426 180.238 47.6146 180.538 47.8466 180.922C48.0786 181.298 48.1946 181.734 48.1946 182.23C48.1946 182.71 48.0786 183.15 47.8466 183.55C47.6146 183.942 47.2626 184.258 46.7906 184.498C46.3266 184.73 45.7346 184.846 45.0146 184.846ZM50.228 184.75L55.964 176.35H56.888L51.152 184.75H50.228ZM50.9 180.862C50.516 180.862 50.176 180.766 49.88 180.574C49.584 180.382 49.352 180.114 49.184 179.77C49.024 179.426 48.944 179.026 48.944 178.57C48.944 178.114 49.024 177.714 49.184 177.37C49.352 177.026 49.584 176.758 49.88 176.566C50.176 176.374 50.516 176.278 50.9 176.278C51.292 176.278 51.632 176.374 51.92 176.566C52.216 176.758 52.444 177.026 52.604 177.37C52.764 177.714 52.844 178.114 52.844 178.57C52.844 179.026 52.764 179.426 52.604 179.77C52.444 180.114 52.216 180.382 51.92 180.574C51.632 180.766 51.292 180.862 50.9 180.862ZM50.9 180.178C51.268 180.178 51.556 180.038 51.764 179.758C51.972 179.47 52.076 179.074 52.076 178.57C52.076 178.066 51.972 177.674 51.764 177.394C51.556 177.106 51.268 176.962 50.9 176.962C50.54 176.962 50.252 177.106 50.036 177.394C49.828 177.674 49.724 178.066 49.724 178.57C49.724 179.066 49.828 179.458 50.036 179.746C50.252 180.034 50.54 180.178 50.9 180.178ZM56.216 184.822C55.832 184.822 55.492 184.726 55.196 184.534C54.9 184.342 54.672 184.074 54.512 183.73C54.352 183.386 54.272 182.986 54.272 182.53C54.272 182.074 54.352 181.674 54.512 181.33C54.672 180.986 54.9 180.718 55.196 180.526C55.492 180.334 55.832 180.238 56.216 180.238C56.608 180.238 56.948 180.334 57.236 180.526C57.532 180.718 57.76 180.986 57.92 181.33C58.088 181.674 58.172 182.074 58.172 182.53C58.172 182.986 58.088 183.386 57.92 183.73C57.76 184.074 57.532 184.342 57.236 184.534C56.948 184.726 56.608 184.822 56.216 184.822ZM56.216 184.138C56.576 184.138 56.86 183.998 57.068 183.718C57.284 183.43 57.392 183.034 57.392 182.53C57.392 182.034 57.284 181.642 57.068 181.354C56.86 181.066 56.576 180.922 56.216 180.922C55.856 180.922 55.568 181.066 55.352 181.354C55.144 181.634 55.04 182.026 55.04 182.53C55.04 183.034 55.144 183.43 55.352 183.718C55.568 183.998 55.856 184.138 56.216 184.138ZM64.5959 184.75L61.8119 178.39H63.0119L65.4839 184.15H64.9079L67.4279 178.39H68.5559L65.7719 184.75H64.5959ZM71.373 184.822C70.845 184.822 70.341 184.75 69.861 184.606C69.389 184.462 69.017 184.286 68.745 184.078L69.225 183.166C69.497 183.35 69.833 183.506 70.233 183.634C70.633 183.762 71.041 183.826 71.457 183.826C71.993 183.826 72.377 183.75 72.609 183.598C72.849 183.446 72.969 183.234 72.969 182.962C72.969 182.762 72.897 182.606 72.753 182.494C72.609 182.382 72.417 182.298 72.177 182.242C71.945 182.186 71.685 182.138 71.397 182.098C71.109 182.05 70.821 181.994 70.533 181.93C70.245 181.858 69.981 181.762 69.741 181.642C69.501 181.514 69.309 181.342 69.165 181.126C69.021 180.902 68.949 180.606 68.949 180.238C68.949 179.854 69.057 179.518 69.273 179.23C69.489 178.942 69.793 178.722 70.185 178.57C70.585 178.41 71.057 178.33 71.601 178.33C72.017 178.33 72.437 178.382 72.861 178.486C73.293 178.582 73.645 178.722 73.917 178.906L73.425 179.818C73.137 179.626 72.837 179.494 72.525 179.422C72.213 179.35 71.901 179.314 71.589 179.314C71.085 179.314 70.709 179.398 70.461 179.566C70.213 179.726 70.089 179.934 70.089 180.19C70.089 180.406 70.161 180.574 70.305 180.694C70.457 180.806 70.649 180.894 70.881 180.958C71.121 181.022 71.385 181.078 71.673 181.126C71.961 181.166 72.249 181.222 72.537 181.294C72.825 181.358 73.085 181.45 73.317 181.57C73.557 181.69 73.749 181.858 73.893 182.074C74.045 182.29 74.121 182.578 74.121 182.938C74.121 183.322 74.009 183.654 73.785 183.934C73.561 184.214 73.245 184.434 72.837 184.594C72.429 184.746 71.941 184.822 71.373 184.822ZM78.7834 184.75V175.846H79.9354V184.75H78.7834ZM86.083 184.75V183.406L86.023 183.154V180.862C86.023 180.374 85.879 179.998 85.591 179.734C85.311 179.462 84.887 179.326 84.319 179.326C83.943 179.326 83.575 179.39 83.215 179.518C82.855 179.638 82.551 179.802 82.303 180.01L81.823 179.146C82.151 178.882 82.543 178.682 82.999 178.546C83.463 178.402 83.947 178.33 84.451 178.33C85.323 178.33 85.995 178.542 86.467 178.966C86.939 179.39 87.175 180.038 87.175 180.91V184.75H86.083ZM83.995 184.822C83.523 184.822 83.107 184.742 82.747 184.582C82.395 184.422 82.123 184.202 81.931 183.922C81.739 183.634 81.643 183.31 81.643 182.95C81.643 182.606 81.723 182.294 81.883 182.014C82.051 181.734 82.319 181.51 82.687 181.342C83.063 181.174 83.567 181.09 84.199 181.09H86.215V181.918H84.247C83.671 181.918 83.283 182.014 83.083 182.206C82.883 182.398 82.783 182.63 82.783 182.902C82.783 183.214 82.907 183.466 83.155 183.658C83.403 183.842 83.747 183.934 84.187 183.934C84.619 183.934 84.995 183.838 85.315 183.646C85.643 183.454 85.879 183.174 86.023 182.806L86.251 183.598C86.099 183.974 85.831 184.274 85.447 184.498C85.063 184.714 84.579 184.822 83.995 184.822ZM91.1308 184.822C90.6028 184.822 90.0988 184.75 89.6188 184.606C89.1468 184.462 88.7748 184.286 88.5028 184.078L88.9828 183.166C89.2548 183.35 89.5908 183.506 89.9908 183.634C90.3908 183.762 90.7988 183.826 91.2148 183.826C91.7508 183.826 92.1348 183.75 92.3668 183.598C92.6068 183.446 92.7268 183.234 92.7268 182.962C92.7268 182.762 92.6548 182.606 92.5108 182.494C92.3668 182.382 92.1748 182.298 91.9348 182.242C91.7028 182.186 91.4428 182.138 91.1548 182.098C90.8668 182.05 90.5788 181.994 90.2908 181.93C90.0028 181.858 89.7388 181.762 89.4988 181.642C89.2588 181.514 89.0668 181.342 88.9228 181.126C88.7788 180.902 88.7068 180.606 88.7068 180.238C88.7068 179.854 88.8148 179.518 89.0308 179.23C89.2468 178.942 89.5508 178.722 89.9428 178.57C90.3428 178.41 90.8148 178.33 91.3588 178.33C91.7748 178.33 92.1948 178.382 92.6188 178.486C93.0508 178.582 93.4028 178.722 93.6748 178.906L93.1828 179.818C92.8948 179.626 92.5948 179.494 92.2828 179.422C91.9708 179.35 91.6588 179.314 91.3468 179.314C90.8428 179.314 90.4668 179.398 90.2188 179.566C89.9708 179.726 89.8468 179.934 89.8468 180.19C89.8468 180.406 89.9188 180.574 90.0628 180.694C90.2148 180.806 90.4068 180.894 90.6388 180.958C90.8788 181.022 91.1428 181.078 91.4308 181.126C91.7188 181.166 92.0068 181.222 92.2948 181.294C92.5828 181.358 92.8428 181.45 93.0748 181.57C93.3148 181.69 93.5068 181.858 93.6508 182.074C93.8028 182.29 93.8788 182.578 93.8788 182.938C93.8788 183.322 93.7668 183.654 93.5428 183.934C93.3188 184.214 93.0028 184.434 92.5948 184.594C92.1868 184.746 91.6988 184.822 91.1308 184.822ZM97.5026 184.822C96.8626 184.822 96.3666 184.65 96.0146 184.306C95.6626 183.962 95.4866 183.47 95.4866 182.83V176.998H96.6386V182.782C96.6386 183.126 96.7226 183.39 96.8906 183.574C97.0666 183.758 97.3146 183.85 97.6346 183.85C97.9946 183.85 98.2946 183.75 98.5346 183.55L98.8946 184.378C98.7186 184.53 98.5066 184.642 98.2586 184.714C98.0186 184.786 97.7666 184.822 97.5026 184.822ZM94.4066 179.338V178.39H98.4626V179.338H94.4066ZM104.854 184.75L102.49 178.39H103.582L105.682 184.15H105.166L107.35 178.39H108.322L110.458 184.15H109.954L112.102 178.39H113.134L110.758 184.75H109.654L107.65 179.494H107.986L105.958 184.75H104.854ZM116.959 184.822C116.279 184.822 115.679 184.682 115.159 184.402C114.647 184.122 114.247 183.738 113.959 183.25C113.679 182.762 113.539 182.202 113.539 181.57C113.539 180.938 113.675 180.378 113.947 179.89C114.227 179.402 114.607 179.022 115.087 178.75C115.575 178.47 116.123 178.33 116.731 178.33C117.347 178.33 117.891 178.466 118.363 178.738C118.835 179.01 119.203 179.394 119.467 179.89C119.739 180.378 119.875 180.95 119.875 181.606C119.875 181.654 119.871 181.71 119.863 181.774C119.863 181.838 119.859 181.898 119.851 181.954H114.439V181.126H119.251L118.783 181.414C118.791 181.006 118.707 180.642 118.531 180.322C118.355 180.002 118.111 179.754 117.799 179.578C117.495 179.394 117.139 179.302 116.731 179.302C116.331 179.302 115.975 179.394 115.663 179.578C115.351 179.754 115.107 180.006 114.931 180.334C114.755 180.654 114.667 181.022 114.667 181.438V181.63C114.667 182.054 114.763 182.434 114.955 182.77C115.155 183.098 115.431 183.354 115.783 183.538C116.135 183.722 116.539 183.814 116.995 183.814C117.371 183.814 117.711 183.75 118.015 183.622C118.327 183.494 118.599 183.302 118.831 183.046L119.467 183.79C119.179 184.126 118.819 184.382 118.387 184.558C117.963 184.734 117.487 184.822 116.959 184.822ZM124.307 184.822C123.627 184.822 123.027 184.682 122.507 184.402C121.995 184.122 121.595 183.738 121.307 183.25C121.027 182.762 120.887 182.202 120.887 181.57C120.887 180.938 121.023 180.378 121.295 179.89C121.575 179.402 121.955 179.022 122.435 178.75C122.923 178.47 123.471 178.33 124.079 178.33C124.695 178.33 125.239 178.466 125.711 178.738C126.183 179.01 126.551 179.394 126.815 179.89C127.087 180.378 127.223 180.95 127.223 181.606C127.223 181.654 127.219 181.71 127.211 181.774C127.211 181.838 127.207 181.898 127.199 181.954H121.787V181.126H126.599L126.131 181.414C126.139 181.006 126.055 180.642 125.879 180.322C125.703 180.002 125.459 179.754 125.147 179.578C124.843 179.394 124.487 179.302 124.079 179.302C123.679 179.302 123.323 179.394 123.011 179.578C122.699 179.754 122.455 180.006 122.279 180.334C122.103 180.654 122.015 181.022 122.015 181.438V181.63C122.015 182.054 122.111 182.434 122.303 182.77C122.503 183.098 122.779 183.354 123.131 183.538C123.483 183.722 123.887 183.814 124.343 183.814C124.719 183.814 125.059 183.75 125.363 183.622C125.675 183.494 125.947 183.302 126.179 183.046L126.815 183.79C126.527 184.126 126.167 184.382 125.735 184.558C125.311 184.734 124.835 184.822 124.307 184.822ZM129.758 183.214L129.782 181.738L133.442 178.39H134.834L132.026 181.15L131.402 181.678L129.758 183.214ZM128.822 184.75V175.846H129.974V184.75H128.822ZM133.682 184.75L131.186 181.654L131.93 180.73L135.098 184.75H133.682Z" fill="#CB3F3F"/>
<rect x="237.667" y="109.5" width="225.668" height="97.5" rx="12" fill="#FAFAFA"/>
<path d="M250.927 138.75V130.35H252.127V138.75H250.927ZM257.87 132.33C258.39 132.33 258.846 132.43 259.238 132.63C259.638 132.83 259.95 133.134 260.174 133.542C260.398 133.95 260.51 134.466 260.51 135.09V138.75H259.358V135.222C259.358 134.606 259.206 134.142 258.902 133.83C258.606 133.518 258.186 133.362 257.642 133.362C257.234 133.362 256.878 133.442 256.574 133.602C256.27 133.762 256.034 133.998 255.866 134.31C255.706 134.622 255.626 135.01 255.626 135.474V138.75H254.474V132.39H255.578V134.106L255.398 133.65C255.606 133.234 255.926 132.91 256.358 132.678C256.79 132.446 257.294 132.33 257.87 132.33ZM265.414 138.822C264.766 138.822 264.186 138.682 263.674 138.402C263.17 138.122 262.774 137.738 262.486 137.25C262.198 136.762 262.054 136.202 262.054 135.57C262.054 134.938 262.198 134.378 262.486 133.89C262.774 133.402 263.17 133.022 263.674 132.75C264.186 132.47 264.766 132.33 265.414 132.33C265.99 132.33 266.502 132.446 266.95 132.678C267.406 132.902 267.758 133.238 268.006 133.686L267.13 134.25C266.922 133.938 266.666 133.71 266.362 133.566C266.066 133.414 265.746 133.338 265.402 133.338C264.986 133.338 264.614 133.43 264.286 133.614C263.958 133.798 263.698 134.058 263.506 134.394C263.314 134.722 263.218 135.114 263.218 135.57C263.218 136.026 263.314 136.422 263.506 136.758C263.698 137.094 263.958 137.354 264.286 137.538C264.614 137.722 264.986 137.814 265.402 137.814C265.746 137.814 266.066 137.742 266.362 137.598C266.666 137.446 266.922 137.214 267.13 136.902L268.006 137.454C267.758 137.894 267.406 138.234 266.95 138.474C266.502 138.706 265.99 138.822 265.414 138.822ZM272.174 138.822C271.63 138.822 271.15 138.722 270.734 138.522C270.326 138.322 270.006 138.018 269.774 137.61C269.55 137.194 269.438 136.674 269.438 136.05V132.39H270.59V135.918C270.59 136.542 270.738 137.01 271.034 137.322C271.338 137.634 271.762 137.79 272.306 137.79C272.706 137.79 273.054 137.71 273.35 137.55C273.646 137.382 273.874 137.142 274.034 136.83C274.194 136.51 274.274 136.126 274.274 135.678V132.39H275.426V138.75H274.334V137.034L274.514 137.49C274.306 137.914 273.994 138.242 273.578 138.474C273.162 138.706 272.694 138.822 272.174 138.822ZM280.991 138.822C280.447 138.822 279.955 138.702 279.515 138.462C279.083 138.214 278.739 137.85 278.483 137.37C278.235 136.89 278.111 136.29 278.111 135.57C278.111 134.85 278.239 134.25 278.495 133.77C278.759 133.29 279.107 132.93 279.539 132.69C279.979 132.45 280.463 132.33 280.991 132.33C281.615 132.33 282.167 132.466 282.647 132.738C283.127 133.01 283.507 133.39 283.787 133.878C284.067 134.358 284.207 134.922 284.207 135.57C284.207 136.218 284.067 136.786 283.787 137.274C283.507 137.762 283.127 138.142 282.647 138.414C282.167 138.686 281.615 138.822 280.991 138.822ZM277.619 138.75V129.846H278.771V134.082L278.651 135.558L278.723 137.034V138.75H277.619ZM280.895 137.814C281.303 137.814 281.667 137.722 281.987 137.538C282.315 137.354 282.571 137.094 282.755 136.758C282.947 136.414 283.043 136.018 283.043 135.57C283.043 135.114 282.947 134.722 282.755 134.394C282.571 134.058 282.315 133.798 281.987 133.614C281.667 133.43 281.303 133.338 280.895 133.338C280.495 133.338 280.131 133.43 279.803 133.614C279.483 133.798 279.227 134.058 279.035 134.394C278.851 134.722 278.759 135.114 278.759 135.57C278.759 136.018 278.851 136.414 279.035 136.758C279.227 137.094 279.483 137.354 279.803 137.538C280.131 137.722 280.495 137.814 280.895 137.814ZM289.688 138.75V137.406L289.628 137.154V134.862C289.628 134.374 289.484 133.998 289.196 133.734C288.916 133.462 288.492 133.326 287.924 133.326C287.548 133.326 287.18 133.39 286.82 133.518C286.46 133.638 286.156 133.802 285.908 134.01L285.428 133.146C285.756 132.882 286.148 132.682 286.604 132.546C287.068 132.402 287.552 132.33 288.056 132.33C288.928 132.33 289.6 132.542 290.072 132.966C290.544 133.39 290.78 134.038 290.78 134.91V138.75H289.688ZM287.6 138.822C287.128 138.822 286.712 138.742 286.352 138.582C286 138.422 285.728 138.202 285.536 137.922C285.344 137.634 285.248 137.31 285.248 136.95C285.248 136.606 285.328 136.294 285.488 136.014C285.656 135.734 285.924 135.51 286.292 135.342C286.668 135.174 287.172 135.09 287.804 135.09H289.82V135.918H287.852C287.276 135.918 286.888 136.014 286.688 136.206C286.488 136.398 286.388 136.63 286.388 136.902C286.388 137.214 286.512 137.466 286.76 137.658C287.008 137.842 287.352 137.934 287.792 137.934C288.224 137.934 288.6 137.838 288.92 137.646C289.248 137.454 289.484 137.174 289.628 136.806L289.856 137.598C289.704 137.974 289.436 138.274 289.052 138.498C288.668 138.714 288.184 138.822 287.6 138.822ZM295.096 138.822C294.456 138.822 293.96 138.65 293.608 138.306C293.256 137.962 293.08 137.47 293.08 136.83V130.998H294.232V136.782C294.232 137.126 294.316 137.39 294.484 137.574C294.66 137.758 294.908 137.85 295.228 137.85C295.588 137.85 295.888 137.75 296.128 137.55L296.488 138.378C296.312 138.53 296.1 138.642 295.852 138.714C295.612 138.786 295.36 138.822 295.096 138.822ZM292 133.338V132.39H296.056V133.338H292ZM300.394 138.822C299.754 138.822 299.186 138.682 298.69 138.402C298.194 138.122 297.802 137.738 297.514 137.25C297.226 136.754 297.082 136.194 297.082 135.57C297.082 134.938 297.226 134.378 297.514 133.89C297.802 133.402 298.194 133.022 298.69 132.75C299.186 132.47 299.754 132.33 300.394 132.33C301.026 132.33 301.59 132.47 302.086 132.75C302.59 133.022 302.982 133.402 303.262 133.89C303.55 134.37 303.694 134.93 303.694 135.57C303.694 136.202 303.55 136.762 303.262 137.25C302.982 137.738 302.59 138.122 302.086 138.402C301.59 138.682 301.026 138.822 300.394 138.822ZM300.394 137.814C300.802 137.814 301.166 137.722 301.486 137.538C301.814 137.354 302.07 137.094 302.254 136.758C302.438 136.414 302.53 136.018 302.53 135.57C302.53 135.114 302.438 134.722 302.254 134.394C302.07 134.058 301.814 133.798 301.486 133.614C301.166 133.43 300.802 133.338 300.394 133.338C299.986 133.338 299.622 133.43 299.302 133.614C298.982 133.798 298.726 134.058 298.534 134.394C298.342 134.722 298.246 135.114 298.246 135.57C298.246 136.018 298.342 136.414 298.534 136.758C298.726 137.094 298.982 137.354 299.302 137.538C299.622 137.722 299.986 137.814 300.394 137.814ZM305.287 138.75V132.39H306.391V134.118L306.283 133.686C306.459 133.246 306.755 132.91 307.171 132.678C307.587 132.446 308.099 132.33 308.707 132.33V133.446C308.659 133.438 308.611 133.434 308.563 133.434C308.523 133.434 308.483 133.434 308.443 133.434C307.827 133.434 307.339 133.618 306.979 133.986C306.619 134.354 306.439 134.886 306.439 135.582V138.75H305.287ZM313.599 138.75V130.35H317.139C318.035 130.35 318.823 130.526 319.503 130.878C320.191 131.23 320.723 131.722 321.099 132.354C321.483 132.986 321.675 133.718 321.675 134.55C321.675 135.382 321.483 136.114 321.099 136.746C320.723 137.378 320.191 137.87 319.503 138.222C318.823 138.574 318.035 138.75 317.139 138.75H313.599ZM314.799 137.706H317.067C317.763 137.706 318.363 137.574 318.867 137.31C319.379 137.046 319.775 136.678 320.055 136.206C320.335 135.726 320.475 135.174 320.475 134.55C320.475 133.918 320.335 133.366 320.055 132.894C319.775 132.422 319.379 132.054 318.867 131.79C318.363 131.526 317.763 131.394 317.067 131.394H314.799V137.706Z" fill="#8E8E93"/>
<path d="M255.589 162.966C254.533 162.966 253.609 162.81 252.817 162.498C252.025 162.174 251.407 161.724 250.963 161.148C250.519 160.56 250.297 159.876 250.297 159.096C250.297 158.316 250.513 157.656 250.945 157.116C251.389 156.564 252.007 156.15 252.799 155.874C253.591 155.586 254.521 155.442 255.589 155.442C256.669 155.442 257.605 155.586 258.397 155.874C259.201 156.15 259.819 156.564 260.251 157.116C260.695 157.656 260.917 158.316 260.917 159.096C260.917 159.876 260.695 160.56 260.251 161.148C259.807 161.724 259.183 162.174 258.379 162.498C257.587 162.81 256.657 162.966 255.589 162.966ZM255.589 160.824C256.321 160.824 256.897 160.662 257.317 160.338C257.749 160.014 257.965 159.57 257.965 159.006C257.965 158.442 257.749 158.004 257.317 157.692C256.897 157.368 256.321 157.206 255.589 157.206C254.869 157.206 254.299 157.368 253.879 157.692C253.459 158.004 253.249 158.442 253.249 159.006C253.249 159.57 253.459 160.014 253.879 160.338C254.299 160.662 254.869 160.824 255.589 160.824ZM255.589 156.918C254.617 156.918 253.765 156.786 253.033 156.522C252.313 156.258 251.749 155.874 251.341 155.37C250.945 154.854 250.747 154.242 250.747 153.534C250.747 152.79 250.951 152.154 251.359 151.626C251.767 151.086 252.337 150.672 253.069 150.384C253.801 150.084 254.641 149.934 255.589 149.934C256.561 149.934 257.407 150.084 258.127 150.384C258.859 150.672 259.429 151.086 259.837 151.626C260.257 152.154 260.467 152.79 260.467 153.534C260.467 154.242 260.263 154.854 259.855 155.37C259.459 155.874 258.895 156.258 258.163 156.522C257.431 156.786 256.573 156.918 255.589 156.918ZM255.589 155.208C256.201 155.208 256.681 155.07 257.029 154.794C257.389 154.518 257.569 154.14 257.569 153.66C257.569 153.156 257.383 152.766 257.011 152.49C256.651 152.214 256.177 152.076 255.589 152.076C255.013 152.076 254.545 152.214 254.185 152.49C253.825 152.766 253.645 153.156 253.645 153.66C253.645 154.14 253.819 154.518 254.167 154.794C254.515 155.07 254.989 155.208 255.589 155.208ZM266.536 162.966C265.66 162.966 264.79 162.852 263.926 162.624C263.074 162.384 262.342 162.048 261.73 161.616L262.882 159.384C263.362 159.732 263.914 160.008 264.538 160.212C265.174 160.416 265.816 160.518 266.464 160.518C267.196 160.518 267.772 160.374 268.192 160.086C268.612 159.798 268.822 159.396 268.822 158.88C268.822 158.556 268.738 158.268 268.57 158.016C268.402 157.764 268.102 157.572 267.67 157.44C267.25 157.308 266.656 157.242 265.888 157.242H262.666L263.314 150.15H271V152.49H264.358L265.87 151.158L265.42 156.216L263.908 154.884H266.572C267.82 154.884 268.822 155.058 269.578 155.406C270.346 155.742 270.904 156.204 271.252 156.792C271.6 157.38 271.774 158.046 271.774 158.79C271.774 159.534 271.588 160.224 271.216 160.86C270.844 161.484 270.268 161.994 269.488 162.39C268.72 162.774 267.736 162.966 266.536 162.966ZM274.613 162.894C274.133 162.894 273.719 162.732 273.371 162.408C273.035 162.072 272.867 161.646 272.867 161.13C272.867 160.614 273.035 160.2 273.371 159.888C273.719 159.564 274.133 159.402 274.613 159.402C275.105 159.402 275.519 159.564 275.855 159.888C276.191 160.2 276.359 160.614 276.359 161.13C276.359 161.646 276.191 162.072 275.855 162.408C275.519 162.732 275.105 162.894 274.613 162.894ZM279.385 162.75L284.461 151.266L285.217 152.526H278.431L279.727 151.158V154.578H277.135V150.15H287.233V152.04L282.553 162.75H279.385ZM290.458 162.75L299.062 150.15H300.124L291.52 162.75H290.458ZM291.43 156.9C290.866 156.9 290.368 156.762 289.936 156.486C289.504 156.198 289.168 155.796 288.928 155.28C288.7 154.764 288.586 154.164 288.586 153.48C288.586 152.796 288.7 152.196 288.928 151.68C289.168 151.164 289.504 150.768 289.936 150.492C290.368 150.204 290.866 150.06 291.43 150.06C291.994 150.06 292.486 150.204 292.906 150.492C293.338 150.768 293.674 151.164 293.914 151.68C294.154 152.196 294.274 152.796 294.274 153.48C294.274 154.164 294.154 154.764 293.914 155.28C293.674 155.796 293.338 156.198 292.906 156.486C292.486 156.762 291.994 156.9 291.43 156.9ZM291.43 156.09C292.018 156.09 292.486 155.862 292.834 155.406C293.194 154.938 293.374 154.296 293.374 153.48C293.374 152.664 293.194 152.028 292.834 151.572C292.486 151.104 292.018 150.87 291.43 150.87C290.83 150.87 290.356 151.104 290.008 151.572C289.66 152.028 289.486 152.664 289.486 153.48C289.486 154.296 289.66 154.938 290.008 155.406C290.356 155.862 290.83 156.09 291.43 156.09ZM299.152 162.84C298.6 162.84 298.108 162.702 297.676 162.426C297.244 162.138 296.908 161.736 296.668 161.22C296.428 160.704 296.308 160.104 296.308 159.42C296.308 158.736 296.428 158.136 296.668 157.62C296.908 157.104 297.244 156.708 297.676 156.432C298.108 156.144 298.6 156 299.152 156C299.728 156 300.226 156.144 300.646 156.432C301.078 156.708 301.408 157.104 301.636 157.62C301.876 158.136 301.996 158.736 301.996 159.42C301.996 160.104 301.876 160.704 301.636 161.22C301.408 161.736 301.078 162.138 300.646 162.426C300.226 162.702 299.728 162.84 299.152 162.84ZM299.152 162.03C299.74 162.03 300.208 161.802 300.556 161.346C300.916 160.878 301.096 160.236 301.096 159.42C301.096 158.604 300.916 157.968 300.556 157.512C300.208 157.044 299.74 156.81 299.152 156.81C298.564 156.81 298.09 157.044 297.73 157.512C297.382 157.968 297.208 158.604 297.208 159.42C297.208 160.236 297.382 160.878 297.73 161.346C298.09 161.802 298.564 162.03 299.152 162.03Z" fill="#232323"/>
<path d="M255.681 174.643L252.088 177.443C251.488 177.91 251.001 178.903 251.001 179.656V184.596C251.001 186.143 252.261 187.41 253.808 187.41H261.528C263.074 187.41 264.334 186.143 264.334 184.603V179.75C264.334 178.943 263.794 177.91 263.134 177.45L259.014 174.563C258.081 173.91 256.581 173.943 255.681 174.643Z" stroke="#37C577" stroke-linecap="round" stroke-linejoin="round"/>
<path d="M260.667 180.417L257.867 183.217L256.801 181.617L254.667 183.75" stroke="#37C577" stroke-linecap="round" stroke-linejoin="round"/>
<path d="M259.334 180.417H260.667V181.75" stroke="#37C577" stroke-width="1.2" stroke-linecap="round" stroke-linejoin="round"/>
<path d="M270.111 184.75V183.934L273.531 180.634C273.835 180.346 274.059 180.094 274.203 179.878C274.355 179.654 274.455 179.45 274.503 179.266C274.559 179.074 274.587 178.89 274.587 178.714C274.587 178.282 274.435 177.942 274.131 177.694C273.827 177.446 273.383 177.322 272.799 177.322C272.351 177.322 271.947 177.398 271.587 177.55C271.227 177.694 270.915 177.922 270.651 178.234L269.835 177.526C270.155 177.118 270.583 176.806 271.119 176.59C271.663 176.366 272.259 176.254 272.907 176.254C273.491 176.254 273.999 176.35 274.431 176.542C274.863 176.726 275.195 176.994 275.427 177.346C275.667 177.698 275.787 178.114 275.787 178.594C275.787 178.866 275.751 179.134 275.679 179.398C275.607 179.662 275.471 179.942 275.271 180.238C275.071 180.534 274.783 180.866 274.407 181.234L271.359 184.174L271.071 183.706H276.147V184.75H270.111ZM278.043 184.822C277.819 184.822 277.627 184.746 277.467 184.594C277.307 184.434 277.227 184.234 277.227 183.994C277.227 183.754 277.307 183.558 277.467 183.406C277.627 183.254 277.819 183.178 278.043 183.178C278.259 183.178 278.443 183.254 278.595 183.406C278.755 183.558 278.835 183.754 278.835 183.994C278.835 184.234 278.755 184.434 278.595 184.594C278.443 184.746 278.259 184.822 278.043 184.822ZM282.682 184.846C282.09 184.846 281.514 184.754 280.954 184.57C280.402 184.386 279.95 184.138 279.598 183.826L280.15 182.878C280.43 183.142 280.794 183.358 281.242 183.526C281.69 183.694 282.166 183.778 282.67 183.778C283.31 183.778 283.802 183.642 284.146 183.37C284.49 183.098 284.662 182.734 284.662 182.278C284.662 181.966 284.586 181.694 284.434 181.462C284.282 181.23 284.018 181.054 283.642 180.934C283.274 180.806 282.766 180.742 282.118 180.742H280.21L280.654 176.35H285.394V177.394H281.098L281.722 176.806L281.374 180.274L280.75 179.698H282.37C283.21 179.698 283.886 179.806 284.398 180.022C284.91 180.238 285.282 180.538 285.514 180.922C285.746 181.298 285.862 181.734 285.862 182.23C285.862 182.71 285.746 183.15 285.514 183.55C285.282 183.942 284.93 184.258 284.458 184.498C283.994 184.73 283.402 184.846 282.682 184.846ZM287.895 184.75L293.631 176.35H294.555L288.819 184.75H287.895ZM288.567 180.862C288.183 180.862 287.843 180.766 287.547 180.574C287.251 180.382 287.019 180.114 286.851 179.77C286.691 179.426 286.611 179.026 286.611 178.57C286.611 178.114 286.691 177.714 286.851 177.37C287.019 177.026 287.251 176.758 287.547 176.566C287.843 176.374 288.183 176.278 288.567 176.278C288.959 176.278 289.299 176.374 289.587 176.566C289.883 176.758 290.111 177.026 290.271 177.37C290.431 177.714 290.511 178.114 290.511 178.57C290.511 179.026 290.431 179.426 290.271 179.77C290.111 180.114 289.883 180.382 289.587 180.574C289.299 180.766 288.959 180.862 288.567 180.862ZM288.567 180.178C288.935 180.178 289.223 180.038 289.431 179.758C289.639 179.47 289.743 179.074 289.743 178.57C289.743 178.066 289.639 177.674 289.431 177.394C289.223 177.106 288.935 176.962 288.567 176.962C288.207 176.962 287.919 177.106 287.703 177.394C287.495 177.674 287.391 178.066 287.391 178.57C287.391 179.066 287.495 179.458 287.703 179.746C287.919 180.034 288.207 180.178 288.567 180.178ZM293.883 184.822C293.499 184.822 293.159 184.726 292.863 184.534C292.567 184.342 292.339 184.074 292.179 183.73C292.019 183.386 291.939 182.986 291.939 182.53C291.939 182.074 292.019 181.674 292.179 181.33C292.339 180.986 292.567 180.718 292.863 180.526C293.159 180.334 293.499 180.238 293.883 180.238C294.275 180.238 294.615 180.334 294.903 180.526C295.199 180.718 295.427 180.986 295.587 181.33C295.755 181.674 295.839 182.074 295.839 182.53C295.839 182.986 295.755 183.386 295.587 183.73C295.427 184.074 295.199 184.342 294.903 184.534C294.615 184.726 294.275 184.822 293.883 184.822ZM293.883 184.138C294.243 184.138 294.527 183.998 294.735 183.718C294.951 183.43 295.059 183.034 295.059 182.53C295.059 182.034 294.951 181.642 294.735 181.354C294.527 181.066 294.243 180.922 293.883 180.922C293.523 180.922 293.235 181.066 293.019 181.354C292.811 181.634 292.707 182.026 292.707 182.53C292.707 183.034 292.811 183.43 293.019 183.718C293.235 183.998 293.523 184.138 293.883 184.138ZM302.263 184.75L299.479 178.39H300.679L303.151 184.15H302.575L305.095 178.39H306.223L303.439 184.75H302.263ZM309.041 184.822C308.513 184.822 308.009 184.75 307.529 184.606C307.057 184.462 306.685 184.286 306.413 184.078L306.893 183.166C307.165 183.35 307.501 183.506 307.901 183.634C308.301 183.762 308.709 183.826 309.125 183.826C309.661 183.826 310.045 183.75 310.277 183.598C310.517 183.446 310.637 183.234 310.637 182.962C310.637 182.762 310.565 182.606 310.421 182.494C310.277 182.382 310.085 182.298 309.845 182.242C309.613 182.186 309.353 182.138 309.065 182.098C308.777 182.05 308.489 181.994 308.201 181.93C307.913 181.858 307.649 181.762 307.409 181.642C307.169 181.514 306.977 181.342 306.833 181.126C306.689 180.902 306.617 180.606 306.617 180.238C306.617 179.854 306.725 179.518 306.941 179.23C307.157 178.942 307.461 178.722 307.853 178.57C308.253 178.41 308.725 178.33 309.269 178.33C309.685 178.33 310.105 178.382 310.529 178.486C310.961 178.582 311.313 178.722 311.585 178.906L311.093 179.818C310.805 179.626 310.505 179.494 310.193 179.422C309.881 179.35 309.569 179.314 309.257 179.314C308.753 179.314 308.377 179.398 308.129 179.566C307.881 179.726 307.757 179.934 307.757 180.19C307.757 180.406 307.829 180.574 307.973 180.694C308.125 180.806 308.317 180.894 308.549 180.958C308.789 181.022 309.053 181.078 309.341 181.126C309.629 181.166 309.917 181.222 310.205 181.294C310.493 181.358 310.753 181.45 310.985 181.57C311.225 181.69 311.417 181.858 311.561 182.074C311.713 182.29 311.789 182.578 311.789 182.938C311.789 183.322 311.677 183.654 311.453 183.934C311.229 184.214 310.913 184.434 310.505 184.594C310.097 184.746 309.609 184.822 309.041 184.822ZM316.451 184.75V175.846H317.603V184.75H316.451ZM323.75 184.75V183.406L323.69 183.154V180.862C323.69 180.374 323.546 179.998 323.258 179.734C322.978 179.462 322.554 179.326 321.986 179.326C321.61 179.326 321.242 179.39 320.882 179.518C320.522 179.638 320.218 179.802 319.97 180.01L319.49 179.146C319.818 178.882 320.21 178.682 320.666 178.546C321.13 178.402 321.614 178.33 322.118 178.33C322.99 178.33 323.662 178.542 324.134 178.966C324.606 179.39 324.842 180.038 324.842 180.91V184.75H323.75ZM321.662 184.822C321.19 184.822 320.774 184.742 320.414 184.582C320.062 184.422 319.79 184.202 319.598 183.922C319.406 183.634 319.31 183.31 319.31 182.95C319.31 182.606 319.39 182.294 319.55 182.014C319.718 181.734 319.986 181.51 320.354 181.342C320.73 181.174 321.234 181.09 321.866 181.09H323.882V181.918H321.914C321.338 181.918 320.95 182.014 320.75 182.206C320.55 182.398 320.45 182.63 320.45 182.902C320.45 183.214 320.574 183.466 320.822 183.658C321.07 183.842 321.414 183.934 321.854 183.934C322.286 183.934 322.662 183.838 322.982 183.646C323.31 183.454 323.546 183.174 323.69 182.806L323.918 183.598C323.766 183.974 323.498 184.274 323.114 184.498C322.73 184.714 322.246 184.822 321.662 184.822ZM328.798 184.822C328.27 184.822 327.766 184.75 327.286 184.606C326.814 184.462 326.442 184.286 326.17 184.078L326.65 183.166C326.922 183.35 327.258 183.506 327.658 183.634C328.058 183.762 328.466 183.826 328.882 183.826C329.418 183.826 329.802 183.75 330.034 183.598C330.274 183.446 330.394 183.234 330.394 182.962C330.394 182.762 330.322 182.606 330.178 182.494C330.034 182.382 329.842 182.298 329.602 182.242C329.37 182.186 329.11 182.138 328.822 182.098C328.534 182.05 328.246 181.994 327.958 181.93C327.67 181.858 327.406 181.762 327.166 181.642C326.926 181.514 326.734 181.342 326.59 181.126C326.446 180.902 326.374 180.606 326.374 180.238C326.374 179.854 326.482 179.518 326.698 179.23C326.914 178.942 327.218 178.722 327.61 178.57C328.01 178.41 328.482 178.33 329.026 178.33C329.442 178.33 329.862 178.382 330.286 178.486C330.718 178.582 331.07 178.722 331.342 178.906L330.85 179.818C330.562 179.626 330.262 179.494 329.95 179.422C329.638 179.35 329.326 179.314 329.014 179.314C328.51 179.314 328.134 179.398 327.886 179.566C327.638 179.726 327.514 179.934 327.514 180.19C327.514 180.406 327.586 180.574 327.73 180.694C327.882 180.806 328.074 180.894 328.306 180.958C328.546 181.022 328.81 181.078 329.098 181.126C329.386 181.166 329.674 181.222 329.962 181.294C330.25 181.358 330.51 181.45 330.742 181.57C330.982 181.69 331.174 181.858 331.318 182.074C331.47 182.29 331.546 182.578 331.546 182.938C331.546 183.322 331.434 183.654 331.21 183.934C330.986 184.214 330.67 184.434 330.262 184.594C329.854 184.746 329.366 184.822 328.798 184.822ZM335.17 184.822C334.53 184.822 334.034 184.65 333.682 184.306C333.33 183.962 333.154 183.47 333.154 182.83V176.998H334.306V182.782C334.306 183.126 334.39 183.39 334.558 183.574C334.734 183.758 334.982 183.85 335.302 183.85C335.662 183.85 335.962 183.75 336.202 183.55L336.562 184.378C336.386 184.53 336.174 184.642 335.926 184.714C335.686 184.786 335.434 184.822 335.17 184.822ZM332.074 179.338V178.39H336.13V179.338H332.074ZM342.521 184.75L340.157 178.39H341.249L343.349 184.15H342.833L345.017 178.39H345.989L348.125 184.15H347.621L349.769 178.39H350.801L348.425 184.75H347.321L345.317 179.494H345.653L343.625 184.75H342.521ZM354.627 184.822C353.947 184.822 353.347 184.682 352.827 184.402C352.315 184.122 351.915 183.738 351.627 183.25C351.347 182.762 351.207 182.202 351.207 181.57C351.207 180.938 351.343 180.378 351.615 179.89C351.895 179.402 352.275 179.022 352.755 178.75C353.243 178.47 353.791 178.33 354.399 178.33C355.015 178.33 355.559 178.466 356.031 178.738C356.503 179.01 356.871 179.394 357.135 179.89C357.407 180.378 357.543 180.95 357.543 181.606C357.543 181.654 357.539 181.71 357.531 181.774C357.531 181.838 357.527 181.898 357.519 181.954H352.107V181.126H356.919L356.451 181.414C356.459 181.006 356.375 180.642 356.199 180.322C356.023 180.002 355.779 179.754 355.467 179.578C355.163 179.394 354.807 179.302 354.399 179.302C353.999 179.302 353.643 179.394 353.331 179.578C353.019 179.754 352.775 180.006 352.599 180.334C352.423 180.654 352.335 181.022 352.335 181.438V181.63C352.335 182.054 352.431 182.434 352.623 182.77C352.823 183.098 353.099 183.354 353.451 183.538C353.803 183.722 354.207 183.814 354.663 183.814C355.039 183.814 355.379 183.75 355.683 183.622C355.995 183.494 356.267 183.302 356.499 183.046L357.135 183.79C356.847 184.126 356.487 184.382 356.055 184.558C355.631 184.734 355.155 184.822 354.627 184.822ZM361.974 184.822C361.294 184.822 360.694 184.682 360.174 184.402C359.662 184.122 359.262 183.738 358.974 183.25C358.694 182.762 358.554 182.202 358.554 181.57C358.554 180.938 358.69 180.378 358.962 179.89C359.242 179.402 359.622 179.022 360.102 178.75C360.59 178.47 361.138 178.33 361.746 178.33C362.362 178.33 362.906 178.466 363.378 178.738C363.85 179.01 364.218 179.394 364.482 179.89C364.754 180.378 364.89 180.95 364.89 181.606C364.89 181.654 364.886 181.71 364.878 181.774C364.878 181.838 364.874 181.898 364.866 181.954H359.454V181.126H364.266L363.798 181.414C363.806 181.006 363.722 180.642 363.546 180.322C363.37 180.002 363.126 179.754 362.814 179.578C362.51 179.394 362.154 179.302 361.746 179.302C361.346 179.302 360.99 179.394 360.678 179.578C360.366 179.754 360.122 180.006 359.946 180.334C359.77 180.654 359.682 181.022 359.682 181.438V181.63C359.682 182.054 359.778 182.434 359.97 182.77C360.17 183.098 360.446 183.354 360.798 183.538C361.15 183.722 361.554 183.814 362.01 183.814C362.386 183.814 362.726 183.75 363.03 183.622C363.342 183.494 363.614 183.302 363.846 183.046L364.482 183.79C364.194 184.126 363.834 184.382 363.402 184.558C362.978 184.734 362.502 184.822 361.974 184.822ZM367.426 183.214L367.45 181.738L371.11 178.39H372.502L369.694 181.15L369.07 181.678L367.426 183.214ZM366.49 184.75V175.846H367.642V184.75H366.49ZM371.35 184.75L368.854 181.654L369.598 180.73L372.766 184.75H371.35Z" fill="#37C577"/>
</g>
<defs>
<clipPath id="clip0_2_18091">
<rect width="463.335" height="207" fill="white"/>
</clipPath>
</defs>
</svg>
