<svg width="20" height="20" viewBox="0 0 20 20" fill="none" xmlns="http://www.w3.org/2000/svg">
<path d="M10.0001 15.7917C7.81675 15.7917 6.04175 14.0167 6.04175 11.8333C6.04175 9.65 7.81675 7.875 10.0001 7.875C12.1834 7.875 13.9584 9.65 13.9584 11.8333C13.9584 14.0167 12.1834 15.7917 10.0001 15.7917ZM10.0001 9.125C8.50841 9.125 7.29175 10.3417 7.29175 11.8333C7.29175 13.325 8.50841 14.5417 10.0001 14.5417C11.4917 14.5417 12.7084 13.325 12.7084 11.8333C12.7084 10.3417 11.4917 9.125 10.0001 9.125Z" fill="#8F8888"/>
<path d="M9.5334 13.1922C9.26673 13.1922 9.00007 13.0922 8.80007 12.8922L8.2584 12.3505C8.01673 12.1088 8.01673 11.7088 8.2584 11.4672C8.50007 11.2255 8.90007 11.2255 9.14173 11.4672L9.54173 11.8672L10.8834 10.6338C11.1334 10.4005 11.5334 10.4172 11.7667 10.6672C12.0001 10.9172 11.9834 11.3172 11.7334 11.5505L10.2501 12.9172C10.0417 13.1005 9.79173 13.1922 9.5334 13.1922Z" fill="#8F8888"/>
<path d="M13.3334 18.9588H6.66678C2.81677 18.9588 2.10011 17.1671 1.91677 15.4255L1.29177 8.75046C1.20011 7.87546 1.17511 6.58379 2.04177 5.61712C2.79177 4.78379 4.03344 4.38379 5.83344 4.38379H14.1668C15.9751 4.38379 17.2168 4.79212 17.9584 5.61712C18.8251 6.58379 18.8001 7.87546 18.7084 8.75879L18.0834 15.4171C17.9001 17.1671 17.1834 18.9588 13.3334 18.9588ZM5.83344 5.62546C4.42511 5.62546 3.45844 5.90046 2.96677 6.45046C2.55844 6.90046 2.42511 7.59212 2.53344 8.62546L3.15844 15.3005C3.30011 16.6171 3.65844 17.7088 6.66678 17.7088H13.3334C16.3334 17.7088 16.7001 16.6171 16.8418 15.2921L17.4668 8.63379C17.5751 7.59212 17.4418 6.90046 17.0334 6.45046C16.5418 5.90046 15.5751 5.62546 14.1668 5.62546H5.83344Z" fill="#8F8888"/>
<path d="M13.3334 5.62533C12.9917 5.62533 12.7084 5.34199 12.7084 5.00033V4.33366C12.7084 2.85033 12.7084 2.29199 10.6667 2.29199H9.33341C7.29175 2.29199 7.29175 2.85033 7.29175 4.33366V5.00033C7.29175 5.34199 7.00841 5.62533 6.66675 5.62533C6.32508 5.62533 6.04175 5.34199 6.04175 5.00033V4.33366C6.04175 2.86699 6.04175 1.04199 9.33341 1.04199H10.6667C13.9584 1.04199 13.9584 2.86699 13.9584 4.33366V5.00033C13.9584 5.34199 13.6751 5.62533 13.3334 5.62533Z" fill="#8F8888"/>
<path d="M13.3416 11.9915C13.0582 11.9915 12.8082 11.7998 12.7332 11.5165C12.6499 11.1832 12.8499 10.8415 13.1832 10.7582C14.8082 10.3498 16.3166 9.64151 17.6666 8.65818C17.9416 8.45818 18.3332 8.51651 18.5416 8.79984C18.7416 9.07484 18.6832 9.46651 18.3999 9.67484C16.9166 10.7498 15.2666 11.5248 13.4832 11.9748C13.4416 11.9832 13.3916 11.9915 13.3416 11.9915Z" fill="#8F8888"/>
<path d="M6.66678 12.0169C6.61678 12.0169 6.56678 12.0086 6.51678 12.0003C4.84178 11.5919 3.26678 10.8836 1.82511 9.90028C1.54178 9.70861 1.46678 9.31694 1.65845 9.03361C1.85011 8.75028 2.24178 8.67528 2.52511 8.86694C3.84178 9.76694 5.27511 10.4086 6.80845 10.7836C7.14178 10.8669 7.35011 11.2003 7.26678 11.5419C7.20845 11.8253 6.95011 12.0169 6.66678 12.0169Z" fill="#8F8888"/>
</svg>
