<svg width="282" height="452" viewBox="0 0 282 452" fill="none" xmlns="http://www.w3.org/2000/svg">
<g opacity="0.04">
<path fill-rule="evenodd" clip-rule="evenodd" d="M-62.7073 85.2444C-85.6076 141.442 -8.14402 155.478 -7.27317 216.284C-6.82024 247.912 -24.0091 259.207 -33.4485 288.241C-40.7937 310.833 -36.1314 338.36 -5.8536 351.872C48.0914 375.948 59.7597 306.03 126.029 304.885C154.424 304.393 169.499 319.122 197.665 328.425C219.138 335.518 248.463 330.954 261.749 301.14C280.731 258.548 236.662 196.924 173.673 244.488C150.393 262.068 132.476 273.222 109.683 276.804C59.1013 284.751 13.1249 247.949 14.762 188.175C15.5598 159.028 29.2224 142.408 34.8423 115.631C48.1602 52.168 -39.2504 27.6803 -62.7073 85.2444Z" fill="#E17E61"/>
<path fill-rule="evenodd" clip-rule="evenodd" d="M85.9877 128.167C102.601 106.335 133.772 102.106 155.61 118.723C177.447 135.34 181.682 166.51 165.068 188.343C148.455 210.176 117.284 214.404 95.4465 197.787C73.6093 181.17 69.3744 150 85.9877 128.167Z" fill="#232323"/>
<path fill-rule="evenodd" clip-rule="evenodd" d="M-29.958 92.0488C-23.7519 83.893 -12.1089 82.3124 -3.95309 88.5185C4.20271 94.7246 5.78332 106.368 -0.422766 114.523C-6.62885 122.679 -18.2719 124.26 -26.4277 118.054C-34.5835 111.848 -36.1641 100.205 -29.958 92.0488Z" fill="white"/>
<path fill-rule="evenodd" clip-rule="evenodd" d="M201.597 268.252C207.803 260.096 219.446 258.516 227.602 264.722C235.757 270.928 237.338 282.571 231.132 290.727C224.926 298.882 213.283 300.463 205.127 294.257C196.971 288.051 195.391 276.408 201.597 268.252Z" fill="white"/>
<path fill-rule="evenodd" clip-rule="evenodd" d="M-0.997117 294.244C5.20901 286.088 16.852 284.508 25.0078 290.714C33.1636 296.92 34.7443 308.563 28.5381 316.719C22.332 324.875 10.689 326.455 2.53325 320.249C-5.62255 314.043 -7.2032 302.4 -0.997117 294.244Z" fill="white"/>
</g>
</svg>
