<svg width="40" height="40" viewBox="0 0 40 40" fill="none" xmlns="http://www.w3.org/2000/svg">
<g filter="url(#filter0_d_3415_43991)">
<circle cx="20" cy="20" r="18" transform="rotate(-180 20 20)" fill="url(#paint0_linear_3415_43991)"/>
<circle cx="20" cy="20" r="18" transform="rotate(-180 20 20)" fill="white"/>
</g>
<path d="M27.5749 15.8163C26.8665 15.0329 25.6915 14.6413 23.9665 14.6413H23.7665V14.6079C23.7665 13.2079 23.7665 11.4746 20.6332 11.4746H19.3665C16.2332 11.4746 16.2332 13.2079 16.2332 14.6079V14.6413H16.0332C14.3082 14.6413 13.1249 15.0329 12.4249 15.8163C11.5999 16.7413 11.6249 17.9663 11.7082 18.8079L11.7165 18.8663L11.7706 19.4972C11.7838 19.6512 11.8673 19.7906 11.9971 19.8744C12.2234 20.0206 12.4624 20.1723 12.6915 20.2996C12.8082 20.3746 12.9332 20.4413 13.0582 20.5079C13.9999 21.0246 15.0082 21.4329 16.0415 21.7163C16.0665 23.8746 17.8332 25.6246 19.9999 25.6246C22.1832 25.6246 23.9582 23.8496 23.9582 21.6663V21.6329C25.0082 21.3163 26.0165 20.8746 26.9582 20.3246C27.0082 20.2996 27.0415 20.2746 27.0832 20.2496C27.4014 20.0767 27.731 19.8521 28.034 19.6378C28.1504 19.5555 28.2253 19.4269 28.2407 19.2852L28.2915 18.8163C28.2999 18.7663 28.2999 18.7246 28.3082 18.6663C28.3749 17.8329 28.3582 16.6829 27.5749 15.8163ZM17.4249 14.6079C17.4249 13.1913 17.4249 12.6579 19.3665 12.6579H20.6332C22.5749 12.6579 22.5749 13.1913 22.5749 14.6079V14.6413H17.4249V14.6079ZM19.9999 24.3746C18.6249 24.3746 17.4832 23.3413 17.3165 22.0079C17.2999 21.8996 17.2915 21.7829 17.2915 21.6663C17.2915 20.1746 18.5082 18.9579 19.9999 18.9579C21.4915 18.9579 22.7082 20.1746 22.7082 21.6663C22.7082 21.7663 22.6999 21.8579 22.6915 21.9496V21.9579C22.5415 23.3163 21.3915 24.3746 19.9999 24.3746Z" fill="#E17E61"/>
<path d="M19.5251 23.3583C19.3667 23.3583 19.2084 23.3 19.0834 23.175L18.2584 22.3583C18.0167 22.1166 18.0167 21.7166 18.2584 21.475C18.5001 21.2333 18.9001 21.2333 19.1417 21.475L19.5417 21.875L20.8834 20.6416C21.1334 20.4083 21.5334 20.425 21.7667 20.675C22.0001 20.925 21.9834 21.325 21.7334 21.5583L19.9584 23.2C19.8251 23.3 19.6751 23.3583 19.5251 23.3583Z" fill="#E17E61"/>
<path d="M27.5345 21.4426C27.7417 21.3274 28.0106 21.4943 27.989 21.7304L27.6928 24.9676C27.5178 26.6342 26.8345 28.3342 23.1678 28.3342H16.8178C13.1511 28.3342 12.4678 26.6342 12.3011 24.9759L12.0129 21.8898C11.9905 21.6502 12.2468 21.4883 12.4595 21.6009C13.1095 21.9592 13.7845 22.2759 14.4761 22.5259C14.7345 22.6176 14.9178 22.8342 14.9928 23.1009C15.6178 25.2676 17.6345 26.8759 20.0011 26.8759C22.4095 26.8759 24.4428 25.2342 25.0345 22.9842C25.1011 22.7176 25.2845 22.5009 25.5428 22.4009C26.2428 22.1259 26.9095 21.8009 27.5345 21.4426Z" fill="#E17E61"/>
<defs>
<filter id="filter0_d_3415_43991" x="0" y="0" width="40" height="40" filterUnits="userSpaceOnUse" color-interpolation-filters="sRGB">
<feFlood flood-opacity="0" result="BackgroundImageFix"/>
<feColorMatrix in="SourceAlpha" type="matrix" values="0 0 0 0 0 0 0 0 0 0 0 0 0 0 0 0 0 0 127 0" result="hardAlpha"/>
<feOffset/>
<feGaussianBlur stdDeviation="1"/>
<feComposite in2="hardAlpha" operator="out"/>
<feColorMatrix type="matrix" values="0 0 0 0 0 0 0 0 0 0 0 0 0 0 0 0 0 0 0.07 0"/>
<feBlend mode="normal" in2="BackgroundImageFix" result="effect1_dropShadow_3415_43991"/>
<feBlend mode="normal" in="SourceGraphic" in2="effect1_dropShadow_3415_43991" result="shape"/>
</filter>
<linearGradient id="paint0_linear_3415_43991" x1="2" y1="2" x2="38.1267" y2="2.12756" gradientUnits="userSpaceOnUse">
<stop stop-color="#E0DFDF"/>
<stop offset="1" stop-color="#F1EFEF"/>
</linearGradient>
</defs>
</svg>
