<svg width="28" height="28" viewBox="0 0 28 28" fill="none" xmlns="http://www.w3.org/2000/svg">
<rect x="0.5" y="0.5" width="27" height="27" rx="7.5" fill="white"/>
<rect x="0.5" y="0.5" width="27" height="27" rx="7.5" stroke="#E2E3E5"/>
<path d="M9.59993 7.40039H18.3999C19.1333 7.40039 19.7333 8.00039 19.7333 8.73372V10.2004C19.7333 10.7337 19.3999 11.4004 19.0666 11.7337L16.1999 14.2671C15.7999 14.6004 15.5333 15.2671 15.5333 15.8004V18.6671C15.5333 19.0671 15.2666 19.6004 14.9333 19.8004L13.9999 20.4004C13.1333 20.9337 11.9333 20.3337 11.9333 19.2671V15.7337C11.9333 15.2671 11.6666 14.6671 11.3999 14.3337L8.8666 11.6671C8.53327 11.3337 8.2666 10.7337 8.2666 10.3337V8.80039C8.2666 8.00039 8.8666 7.40039 9.59993 7.40039Z" stroke="#232323" stroke-opacity="0.933333" stroke-miterlimit="10" stroke-linecap="round" stroke-linejoin="round"/>
<path d="M13.2867 7.40039L10 12.6671" stroke="#232323" stroke-opacity="0.933333" stroke-miterlimit="10" stroke-linecap="round" stroke-linejoin="round"/>
</svg>
