<svg width="205" height="40" viewBox="0 0 205 40" fill="none" xmlns="http://www.w3.org/2000/svg">
<rect width="205" height="40" rx="20" fill="#FAFAFA"/>
<path d="M20 10C14.48 10 10 14.48 10 20C10 25.52 14.48 30 20 30C25.52 30 30 25.52 30 20C30 14.48 25.52 10 20 10ZM23.53 20.03C23.38 20.18 23.19 20.25 23 20.25C22.81 20.25 22.62 20.18 22.47 20.03L20.75 18.31V23.5C20.75 23.91 20.41 24.25 20 24.25C19.59 24.25 19.25 23.91 19.25 23.5V18.31L17.53 20.03C17.24 20.32 16.76 20.32 16.47 20.03C16.18 19.74 16.18 19.26 16.47 18.97L19.47 15.97C19.76 15.68 20.24 15.68 20.53 15.97L23.53 18.97C23.82 19.26 23.82 19.74 23.53 20.03Z" fill="#F25B5B"/>
<path d="M50.204 15.7H52.024V25.5H50.204V15.7ZM45.136 25.5H43.316V15.7H45.136V25.5ZM50.344 21.3H44.982V19.746H50.344V21.3ZM54.482 25.5V18.024H56.232V25.5H54.482ZM55.364 16.792C55.0373 16.792 54.7667 16.6893 54.552 16.484C54.3467 16.2787 54.244 16.0313 54.244 15.742C54.244 15.4433 54.3467 15.196 54.552 15C54.7667 14.7947 55.0373 14.692 55.364 14.692C55.6907 14.692 55.9567 14.79 56.162 14.986C56.3767 15.1727 56.484 15.4107 56.484 15.7C56.484 16.008 56.3813 16.2693 56.176 16.484C55.9707 16.6893 55.7 16.792 55.364 16.792ZM61.9169 28.314C61.2262 28.314 60.5495 28.2207 59.8869 28.034C59.2335 27.8567 58.6969 27.5953 58.2769 27.25L59.0609 25.934C59.3875 26.2047 59.7982 26.4193 60.2929 26.578C60.7969 26.746 61.3055 26.83 61.8189 26.83C62.6402 26.83 63.2422 26.6387 63.6249 26.256C64.0075 25.8827 64.1989 25.318 64.1989 24.562V23.232L64.3389 21.538L64.2829 19.844V18.024H65.9489V24.366C65.9489 25.7193 65.6035 26.7133 64.9129 27.348C64.2222 27.992 63.2235 28.314 61.9169 28.314ZM61.6929 25.164C60.9835 25.164 60.3395 25.0147 59.7609 24.716C59.1915 24.408 58.7389 23.9833 58.4029 23.442C58.0762 22.9007 57.9129 22.266 57.9129 21.538C57.9129 20.8193 58.0762 20.1893 58.4029 19.648C58.7389 19.1067 59.1915 18.6867 59.7609 18.388C60.3395 18.0893 60.9835 17.94 61.6929 17.94C62.3275 17.94 62.8969 18.066 63.4009 18.318C63.9049 18.57 64.3062 18.962 64.6049 19.494C64.9129 20.026 65.0669 20.7073 65.0669 21.538C65.0669 22.3687 64.9129 23.0547 64.6049 23.596C64.3062 24.128 63.9049 24.5247 63.4009 24.786C62.8969 25.038 62.3275 25.164 61.6929 25.164ZM61.9589 23.68C62.3975 23.68 62.7895 23.5913 63.1349 23.414C63.4802 23.2273 63.7462 22.9753 63.9329 22.658C64.1289 22.3313 64.2269 21.958 64.2269 21.538C64.2269 21.118 64.1289 20.7493 63.9329 20.432C63.7462 20.1053 63.4802 19.858 63.1349 19.69C62.7895 19.5127 62.3975 19.424 61.9589 19.424C61.5202 19.424 61.1235 19.5127 60.7689 19.69C60.4235 19.858 60.1529 20.1053 59.9569 20.432C59.7702 20.7493 59.6769 21.118 59.6769 21.538C59.6769 21.958 59.7702 22.3313 59.9569 22.658C60.1529 22.9753 60.4235 23.2273 60.7689 23.414C61.1235 23.5913 61.5202 23.68 61.9589 23.68ZM72.4916 17.94C73.0889 17.94 73.6209 18.0567 74.0876 18.29C74.5636 18.5233 74.9369 18.8827 75.2076 19.368C75.4782 19.844 75.6136 20.46 75.6136 21.216V25.5H73.8636V21.44C73.8636 20.7773 73.7049 20.2827 73.3876 19.956C73.0796 19.6293 72.6456 19.466 72.0856 19.466C71.6749 19.466 71.3109 19.55 70.9936 19.718C70.6762 19.886 70.4289 20.138 70.2516 20.474C70.0836 20.8007 69.9996 21.216 69.9996 21.72V25.5H68.2496V15.112H69.9996V20.04L69.6216 19.424C69.8829 18.948 70.2609 18.584 70.7556 18.332C71.2596 18.0707 71.8382 17.94 72.4916 17.94ZM83.6347 28.216C83.1214 27.3667 82.72 26.3867 82.4307 25.276C82.1507 24.156 82.0107 22.952 82.0107 21.664C82.0107 20.376 82.1507 19.172 82.4307 18.052C82.72 16.9227 83.1214 15.9427 83.6347 15.112H84.5867C84.036 16.0733 83.63 17.0953 83.3687 18.178C83.1167 19.2513 82.9907 20.4133 82.9907 21.664C82.9907 22.9147 83.1167 24.0813 83.3687 25.164C83.63 26.2373 84.036 27.2547 84.5867 28.216H83.6347ZM88.9841 25.584C88.2841 25.584 87.6168 25.472 86.9821 25.248C86.3474 25.0147 85.8434 24.7067 85.4701 24.324L85.9601 23.526C86.2681 23.8527 86.6881 24.1233 87.2201 24.338C87.7614 24.5527 88.3448 24.66 88.9701 24.66C89.8008 24.66 90.4308 24.478 90.8601 24.114C91.2988 23.7407 91.5181 23.2553 91.5181 22.658C91.5181 22.238 91.4154 21.8787 91.2101 21.58C91.0141 21.272 90.6781 21.034 90.2021 20.866C89.7261 20.698 89.0728 20.614 88.2421 20.614H86.1561L86.6601 15.7H92.0221V16.596H87.0661L87.5841 16.106L87.1501 20.222L86.6321 19.718H88.4661C89.4554 19.718 90.2488 19.8393 90.8461 20.082C91.4434 20.3247 91.8728 20.6653 92.1341 21.104C92.4048 21.5333 92.5401 22.0373 92.5401 22.616C92.5401 23.1667 92.4094 23.6707 92.1481 24.128C91.8868 24.576 91.4948 24.9307 90.9721 25.192C90.4494 25.4533 89.7868 25.584 88.9841 25.584ZM97.7258 25.584C96.9698 25.584 96.2978 25.388 95.7098 24.996C95.1218 24.5947 94.6598 24.0253 94.3238 23.288C93.9878 22.5413 93.8198 21.6453 93.8198 20.6C93.8198 19.5547 93.9878 18.6633 94.3238 17.926C94.6598 17.1793 95.1218 16.61 95.7098 16.218C96.2978 15.8167 96.9698 15.616 97.7258 15.616C98.4818 15.616 99.1538 15.8167 99.7418 16.218C100.33 16.61 100.792 17.1793 101.128 17.926C101.473 18.6633 101.646 19.5547 101.646 20.6C101.646 21.6453 101.473 22.5413 101.128 23.288C100.792 24.0253 100.33 24.5947 99.7418 24.996C99.1538 25.388 98.4818 25.584 97.7258 25.584ZM97.7258 24.66C98.3045 24.66 98.8085 24.506 99.2378 24.198C99.6671 23.8807 100.003 23.4233 100.246 22.826C100.488 22.2193 100.61 21.4773 100.61 20.6C100.61 19.7227 100.488 18.9853 100.246 18.388C100.003 17.7813 99.6671 17.324 99.2378 17.016C98.8085 16.6987 98.3045 16.54 97.7258 16.54C97.1658 16.54 96.6665 16.6987 96.2278 17.016C95.7891 17.324 95.4485 17.7813 95.2058 18.388C94.9631 18.9853 94.8418 19.7227 94.8418 20.6C94.8418 21.4773 94.9631 22.2193 95.2058 22.826C95.4485 23.4233 95.7891 23.8807 96.2278 24.198C96.6665 24.506 97.1658 24.66 97.7258 24.66ZM107.411 25.5V15.112H108.405V25.5H107.411ZM114.167 25.57C113.458 25.57 112.818 25.4113 112.249 25.094C111.689 24.7673 111.246 24.324 110.919 23.764C110.592 23.1947 110.429 22.546 110.429 21.818C110.429 21.0807 110.592 20.432 110.919 19.872C111.246 19.312 111.689 18.8733 112.249 18.556C112.809 18.2387 113.448 18.08 114.167 18.08C114.895 18.08 115.539 18.2387 116.099 18.556C116.668 18.8733 117.112 19.312 117.429 19.872C117.756 20.432 117.919 21.0807 117.919 21.818C117.919 22.546 117.756 23.1947 117.429 23.764C117.112 24.324 116.668 24.7673 116.099 25.094C115.53 25.4113 114.886 25.57 114.167 25.57ZM114.167 24.688C114.699 24.688 115.17 24.5713 115.581 24.338C115.992 24.0953 116.314 23.7593 116.547 23.33C116.79 22.8913 116.911 22.3873 116.911 21.818C116.911 21.2393 116.79 20.7353 116.547 20.306C116.314 19.8767 115.992 19.5453 115.581 19.312C115.17 19.0693 114.704 18.948 114.181 18.948C113.658 18.948 113.192 19.0693 112.781 19.312C112.37 19.5453 112.044 19.8767 111.801 20.306C111.558 20.7353 111.437 21.2393 111.437 21.818C111.437 22.3873 111.558 22.8913 111.801 23.33C112.044 23.7593 112.37 24.0953 112.781 24.338C113.192 24.5713 113.654 24.688 114.167 24.688ZM123.085 28.286C122.413 28.286 121.769 28.188 121.153 27.992C120.537 27.796 120.037 27.516 119.655 27.152L120.159 26.396C120.504 26.704 120.929 26.9467 121.433 27.124C121.946 27.3107 122.487 27.404 123.057 27.404C123.99 27.404 124.676 27.1847 125.115 26.746C125.553 26.3167 125.773 25.6447 125.773 24.73V22.896L125.913 21.636L125.815 20.376V18.15H126.767V24.604C126.767 25.8733 126.454 26.802 125.829 27.39C125.213 27.9873 124.298 28.286 123.085 28.286ZM122.903 25.22C122.203 25.22 121.573 25.0707 121.013 24.772C120.453 24.464 120.009 24.0393 119.683 23.498C119.365 22.9567 119.207 22.336 119.207 21.636C119.207 20.936 119.365 20.32 119.683 19.788C120.009 19.2467 120.453 18.8267 121.013 18.528C121.573 18.2293 122.203 18.08 122.903 18.08C123.556 18.08 124.144 18.2153 124.667 18.486C125.189 18.7567 125.605 19.158 125.913 19.69C126.221 20.222 126.375 20.8707 126.375 21.636C126.375 22.4013 126.221 23.05 125.913 23.582C125.605 24.114 125.189 24.52 124.667 24.8C124.144 25.08 123.556 25.22 122.903 25.22ZM123.001 24.338C123.542 24.338 124.023 24.226 124.443 24.002C124.863 23.7687 125.194 23.4513 125.437 23.05C125.679 22.6393 125.801 22.168 125.801 21.636C125.801 21.104 125.679 20.6373 125.437 20.236C125.194 19.8347 124.863 19.522 124.443 19.298C124.023 19.0647 123.542 18.948 123.001 18.948C122.469 18.948 121.988 19.0647 121.559 19.298C121.139 19.522 120.807 19.8347 120.565 20.236C120.331 20.6373 120.215 21.104 120.215 21.636C120.215 22.168 120.331 22.6393 120.565 23.05C120.807 23.4513 121.139 23.7687 121.559 24.002C121.988 24.226 122.469 24.338 123.001 24.338ZM131.506 25.57C130.9 25.57 130.326 25.486 129.784 25.318C129.243 25.1407 128.818 24.9213 128.51 24.66L128.958 23.876C129.257 24.1 129.64 24.296 130.106 24.464C130.573 24.6227 131.063 24.702 131.576 24.702C132.276 24.702 132.78 24.5947 133.088 24.38C133.396 24.156 133.55 23.862 133.55 23.498C133.55 23.2273 133.462 23.0173 133.284 22.868C133.116 22.7093 132.892 22.5927 132.612 22.518C132.332 22.434 132.02 22.364 131.674 22.308C131.329 22.252 130.984 22.1867 130.638 22.112C130.302 22.0373 129.994 21.93 129.714 21.79C129.434 21.6407 129.206 21.44 129.028 21.188C128.86 20.936 128.776 20.6 128.776 20.18C128.776 19.7787 128.888 19.4193 129.112 19.102C129.336 18.7847 129.663 18.5373 130.092 18.36C130.531 18.1733 131.063 18.08 131.688 18.08C132.164 18.08 132.64 18.1453 133.116 18.276C133.592 18.3973 133.984 18.5607 134.292 18.766L133.858 19.564C133.532 19.34 133.182 19.1813 132.808 19.088C132.435 18.9853 132.062 18.934 131.688 18.934C131.026 18.934 130.536 19.0507 130.218 19.284C129.91 19.508 129.756 19.7973 129.756 20.152C129.756 20.432 129.84 20.6513 130.008 20.81C130.186 20.9687 130.414 21.0947 130.694 21.188C130.984 21.272 131.296 21.342 131.632 21.398C131.978 21.454 132.318 21.524 132.654 21.608C133 21.6827 133.312 21.79 133.592 21.93C133.882 22.0607 134.11 22.252 134.278 22.504C134.456 22.7467 134.544 23.0687 134.544 23.47C134.544 23.8993 134.423 24.2727 134.18 24.59C133.947 24.898 133.602 25.1407 133.144 25.318C132.696 25.486 132.15 25.57 131.506 25.57ZM136.494 28.216H135.542C136.102 27.2547 136.508 26.2373 136.76 25.164C137.022 24.0813 137.152 22.9147 137.152 21.664C137.152 20.4133 137.022 19.2513 136.76 18.178C136.508 17.0953 136.102 16.0733 135.542 15.112H136.494C137.026 15.9427 137.432 16.9227 137.712 18.052C137.992 19.172 138.132 20.376 138.132 21.664C138.132 22.952 137.992 24.156 137.712 25.276C137.432 26.3867 137.026 27.3667 136.494 28.216Z" fill="#232323"/>
</svg>
