<svg width="94" height="15" viewBox="0 0 94 15" fill="none" xmlns="http://www.w3.org/2000/svg">
<circle cx="6.5" cy="7.5" r="6.5" fill="#9B9B9B"/>
<path d="M23.26 12V3.6H24.46V12H23.26ZM30.2028 5.58C30.7228 5.58 31.1788 5.68 31.5708 5.88C31.9708 6.08 32.2828 6.384 32.5068 6.792C32.7308 7.2 32.8428 7.716 32.8428 8.34V12H31.6908V8.472C31.6908 7.856 31.5388 7.392 31.2348 7.08C30.9388 6.768 30.5188 6.612 29.9748 6.612C29.5668 6.612 29.2108 6.692 28.9068 6.852C28.6028 7.012 28.3668 7.248 28.1988 7.56C28.0388 7.872 27.9588 8.26 27.9588 8.724V12H26.8068V5.64H27.9108V7.356L27.7308 6.9C27.9388 6.484 28.2588 6.16 28.6908 5.928C29.1228 5.696 29.6268 5.58 30.2028 5.58ZM37.7468 12.072C37.0988 12.072 36.5188 11.932 36.0068 11.652C35.5028 11.372 35.1068 10.988 34.8188 10.5C34.5308 10.012 34.3868 9.452 34.3868 8.82C34.3868 8.188 34.5308 7.628 34.8188 7.14C35.1068 6.652 35.5028 6.272 36.0068 6C36.5188 5.72 37.0988 5.58 37.7468 5.58C38.3228 5.58 38.8348 5.696 39.2828 5.928C39.7388 6.152 40.0908 6.488 40.3388 6.936L39.4628 7.5C39.2548 7.188 38.9988 6.96 38.6948 6.816C38.3988 6.664 38.0788 6.588 37.7348 6.588C37.3188 6.588 36.9468 6.68 36.6188 6.864C36.2908 7.048 36.0308 7.308 35.8388 7.644C35.6468 7.972 35.5508 8.364 35.5508 8.82C35.5508 9.276 35.6468 9.672 35.8388 10.008C36.0308 10.344 36.2908 10.604 36.6188 10.788C36.9468 10.972 37.3188 11.064 37.7348 11.064C38.0788 11.064 38.3988 10.992 38.6948 10.848C38.9988 10.696 39.2548 10.464 39.4628 10.152L40.3388 10.704C40.0908 11.144 39.7388 11.484 39.2828 11.724C38.8348 11.956 38.3228 12.072 37.7468 12.072ZM44.5063 12.072C43.9623 12.072 43.4823 11.972 43.0663 11.772C42.6583 11.572 42.3383 11.268 42.1063 10.86C41.8823 10.444 41.7703 9.924 41.7703 9.3V5.64H42.9223V9.168C42.9223 9.792 43.0703 10.26 43.3663 10.572C43.6703 10.884 44.0943 11.04 44.6383 11.04C45.0383 11.04 45.3863 10.96 45.6823 10.8C45.9783 10.632 46.2063 10.392 46.3663 10.08C46.5263 9.76 46.6063 9.376 46.6063 8.928V5.64H47.7583V12H46.6663V10.284L46.8463 10.74C46.6383 11.164 46.3263 11.492 45.9103 11.724C45.4943 11.956 45.0263 12.072 44.5063 12.072ZM53.3234 12.072C52.7794 12.072 52.2874 11.952 51.8474 11.712C51.4154 11.464 51.0714 11.1 50.8154 10.62C50.5674 10.14 50.4434 9.54 50.4434 8.82C50.4434 8.1 50.5714 7.5 50.8274 7.02C51.0914 6.54 51.4394 6.18 51.8714 5.94C52.3114 5.7 52.7954 5.58 53.3234 5.58C53.9474 5.58 54.4994 5.716 54.9794 5.988C55.4594 6.26 55.8394 6.64 56.1194 7.128C56.3994 7.608 56.5394 8.172 56.5394 8.82C56.5394 9.468 56.3994 10.036 56.1194 10.524C55.8394 11.012 55.4594 11.392 54.9794 11.664C54.4994 11.936 53.9474 12.072 53.3234 12.072ZM49.9514 12V3.096H51.1034V7.332L50.9834 8.808L51.0554 10.284V12H49.9514ZM53.2274 11.064C53.6354 11.064 53.9994 10.972 54.3194 10.788C54.6474 10.604 54.9034 10.344 55.0874 10.008C55.2794 9.664 55.3754 9.268 55.3754 8.82C55.3754 8.364 55.2794 7.972 55.0874 7.644C54.9034 7.308 54.6474 7.048 54.3194 6.864C53.9994 6.68 53.6354 6.588 53.2274 6.588C52.8274 6.588 52.4634 6.68 52.1354 6.864C51.8154 7.048 51.5594 7.308 51.3674 7.644C51.1834 7.972 51.0914 8.364 51.0914 8.82C51.0914 9.268 51.1834 9.664 51.3674 10.008C51.5594 10.344 51.8154 10.604 52.1354 10.788C52.4634 10.972 52.8274 11.064 53.2274 11.064ZM62.0205 12V10.656L61.9605 10.404V8.112C61.9605 7.624 61.8165 7.248 61.5285 6.984C61.2485 6.712 60.8245 6.576 60.2565 6.576C59.8805 6.576 59.5125 6.64 59.1525 6.768C58.7925 6.888 58.4885 7.052 58.2405 7.26L57.7605 6.396C58.0885 6.132 58.4805 5.932 58.9365 5.796C59.4005 5.652 59.8845 5.58 60.3885 5.58C61.2605 5.58 61.9325 5.792 62.4045 6.216C62.8765 6.64 63.1125 7.288 63.1125 8.16V12H62.0205ZM59.9325 12.072C59.4605 12.072 59.0445 11.992 58.6845 11.832C58.3325 11.672 58.0605 11.452 57.8685 11.172C57.6765 10.884 57.5805 10.56 57.5805 10.2C57.5805 9.856 57.6605 9.544 57.8205 9.264C57.9885 8.984 58.2565 8.76 58.6245 8.592C59.0005 8.424 59.5045 8.34 60.1365 8.34H62.1525V9.168H60.1845C59.6085 9.168 59.2205 9.264 59.0205 9.456C58.8205 9.648 58.7205 9.88 58.7205 10.152C58.7205 10.464 58.8445 10.716 59.0925 10.908C59.3405 11.092 59.6845 11.184 60.1245 11.184C60.5565 11.184 60.9325 11.088 61.2525 10.896C61.5805 10.704 61.8165 10.424 61.9605 10.056L62.1885 10.848C62.0365 11.224 61.7685 11.524 61.3845 11.748C61.0005 11.964 60.5165 12.072 59.9325 12.072ZM67.4283 12.072C66.7883 12.072 66.2923 11.9 65.9403 11.556C65.5883 11.212 65.4123 10.72 65.4123 10.08V4.248H66.5643V10.032C66.5643 10.376 66.6483 10.64 66.8163 10.824C66.9923 11.008 67.2403 11.1 67.5603 11.1C67.9203 11.1 68.2203 11 68.4603 10.8L68.8203 11.628C68.6443 11.78 68.4323 11.892 68.1843 11.964C67.9443 12.036 67.6923 12.072 67.4283 12.072ZM64.3323 6.588V5.64H68.3883V6.588H64.3323ZM72.7262 12.072C72.0862 12.072 71.5182 11.932 71.0222 11.652C70.5262 11.372 70.1342 10.988 69.8462 10.5C69.5582 10.004 69.4142 9.444 69.4142 8.82C69.4142 8.188 69.5582 7.628 69.8462 7.14C70.1342 6.652 70.5262 6.272 71.0222 6C71.5182 5.72 72.0862 5.58 72.7262 5.58C73.3582 5.58 73.9222 5.72 74.4182 6C74.9222 6.272 75.3142 6.652 75.5942 7.14C75.8822 7.62 76.0262 8.18 76.0262 8.82C76.0262 9.452 75.8822 10.012 75.5942 10.5C75.3142 10.988 74.9222 11.372 74.4182 11.652C73.9222 11.932 73.3582 12.072 72.7262 12.072ZM72.7262 11.064C73.1342 11.064 73.4982 10.972 73.8182 10.788C74.1462 10.604 74.4022 10.344 74.5862 10.008C74.7702 9.664 74.8622 9.268 74.8622 8.82C74.8622 8.364 74.7702 7.972 74.5862 7.644C74.4022 7.308 74.1462 7.048 73.8182 6.864C73.4982 6.68 73.1342 6.588 72.7262 6.588C72.3182 6.588 71.9542 6.68 71.6342 6.864C71.3142 7.048 71.0582 7.308 70.8662 7.644C70.6742 7.972 70.5782 8.364 70.5782 8.82C70.5782 9.268 70.6742 9.664 70.8662 10.008C71.0582 10.344 71.3142 10.604 71.6342 10.788C71.9542 10.972 72.3182 11.064 72.7262 11.064ZM77.6193 12V5.64H78.7233V7.368L78.6153 6.936C78.7913 6.496 79.0873 6.16 79.5033 5.928C79.9193 5.696 80.4313 5.58 81.0393 5.58V6.696C80.9913 6.688 80.9433 6.684 80.8953 6.684C80.8553 6.684 80.8153 6.684 80.7753 6.684C80.1593 6.684 79.6713 6.868 79.3113 7.236C78.9513 7.604 78.7713 8.136 78.7713 8.832V12H77.6193ZM85.9319 12V3.6H89.6999C90.6679 3.6 91.4119 3.796 91.9319 4.188C92.4519 4.572 92.7119 5.1 92.7119 5.772C92.7119 6.228 92.6079 6.612 92.3999 6.924C92.1999 7.236 91.9279 7.476 91.5839 7.644C91.2399 7.812 90.8679 7.896 90.4679 7.896L90.6839 7.536C91.1639 7.536 91.5879 7.62 91.9559 7.788C92.3239 7.956 92.6159 8.204 92.8319 8.532C93.0479 8.852 93.1559 9.252 93.1559 9.732C93.1559 10.452 92.8839 11.012 92.3399 11.412C91.8039 11.804 91.0039 12 89.9399 12H85.9319ZM87.1319 11.028H89.8919C90.5559 11.028 91.0639 10.916 91.4159 10.692C91.7679 10.468 91.9439 10.116 91.9439 9.636C91.9439 9.148 91.7679 8.792 91.4159 8.568C91.0639 8.344 90.5559 8.232 89.8919 8.232H87.0239V7.26H89.5919C90.1999 7.26 90.6719 7.148 91.0079 6.924C91.3439 6.7 91.5119 6.364 91.5119 5.916C91.5119 5.468 91.3439 5.132 91.0079 4.908C90.6719 4.684 90.1999 4.572 89.5919 4.572H87.1319V11.028Z" fill="#232323"/>
</svg>
