<svg width="205" height="40" viewBox="0 0 205 40" fill="none" xmlns="http://www.w3.org/2000/svg">
<rect width="205" height="40" rx="20" fill="#FAFAFA"/>
<path d="M20 30C25.5228 30 30 25.5228 30 20C30 14.4772 25.5228 10 20 10C14.4772 10 10 14.4772 10 20C10 25.5228 14.4772 30 20 30Z" fill="#9E9E9E" stroke="#FAFAFA" stroke-width="1.5" stroke-linecap="round" stroke-linejoin="round"/>
<path d="M20 16.5V22.5" stroke="#FAFAFA" stroke-width="1.5" stroke-linecap="round" stroke-linejoin="round"/>
<path d="M17 20.5L20 23.5L23 20.5" stroke="#FAFAFA" stroke-width="1.5" stroke-linecap="round" stroke-linejoin="round"/>
<path d="M43.316 25.5V15.7H45.136V23.96H50.26V25.5H43.316ZM54.8205 25.598C54.0552 25.598 53.3738 25.4347 52.7765 25.108C52.1792 24.772 51.7078 24.3147 51.3625 23.736C51.0172 23.1573 50.8445 22.4993 50.8445 21.762C50.8445 21.0153 51.0172 20.3573 51.3625 19.788C51.7078 19.2093 52.1792 18.7567 52.7765 18.43C53.3738 18.1033 54.0552 17.94 54.8205 17.94C55.5952 17.94 56.2812 18.1033 56.8785 18.43C57.4852 18.7567 57.9565 19.2047 58.2925 19.774C58.6378 20.3433 58.8105 21.006 58.8105 21.762C58.8105 22.4993 58.6378 23.1573 58.2925 23.736C57.9565 24.3147 57.4852 24.772 56.8785 25.108C56.2812 25.4347 55.5952 25.598 54.8205 25.598ZM54.8205 24.1C55.2498 24.1 55.6325 24.0067 55.9685 23.82C56.3045 23.6333 56.5658 23.3627 56.7525 23.008C56.9485 22.6533 57.0465 22.238 57.0465 21.762C57.0465 21.2767 56.9485 20.8613 56.7525 20.516C56.5658 20.1613 56.3045 19.8907 55.9685 19.704C55.6325 19.5173 55.2545 19.424 54.8345 19.424C54.4052 19.424 54.0225 19.5173 53.6865 19.704C53.3598 19.8907 53.0985 20.1613 52.9025 20.516C52.7065 20.8613 52.6085 21.2767 52.6085 21.762C52.6085 22.238 52.7065 22.6533 52.9025 23.008C53.0985 23.3627 53.3598 23.6333 53.6865 23.82C54.0225 24.0067 54.4005 24.1 54.8205 24.1ZM61.9309 25.5L59.1869 18.024H60.8389L63.1909 24.618H62.4069L64.8709 18.024H66.3409L68.7349 24.618H67.9649L70.3869 18.024H71.9409L69.1829 25.5H67.5029L65.3189 19.662H65.8369L63.6109 25.5H61.9309ZM78.9452 28.216C78.4319 27.3667 78.0306 26.3867 77.7412 25.276C77.4612 24.156 77.3212 22.952 77.3212 21.664C77.3212 20.376 77.4612 19.172 77.7412 18.052C78.0306 16.9227 78.4319 15.9427 78.9452 15.112H79.8972C79.3466 16.0733 78.9406 17.0953 78.6792 18.178C78.4272 19.2513 78.3012 20.4133 78.3012 21.664C78.3012 22.9147 78.4272 24.0813 78.6792 25.164C78.9406 26.2373 79.3466 27.2547 79.8972 28.216H78.9452ZM84.2947 25.584C83.5947 25.584 82.9273 25.472 82.2927 25.248C81.658 25.0147 81.154 24.7067 80.7807 24.324L81.2707 23.526C81.5787 23.8527 81.9987 24.1233 82.5307 24.338C83.072 24.5527 83.6553 24.66 84.2807 24.66C85.1113 24.66 85.7413 24.478 86.1707 24.114C86.6093 23.7407 86.8287 23.2553 86.8287 22.658C86.8287 22.238 86.726 21.8787 86.5207 21.58C86.3247 21.272 85.9887 21.034 85.5127 20.866C85.0367 20.698 84.3833 20.614 83.5527 20.614H81.4667L81.9707 15.7H87.3327V16.596H82.3767L82.8947 16.106L82.4607 20.222L81.9427 19.718H83.7767C84.766 19.718 85.5593 19.8393 86.1567 20.082C86.754 20.3247 87.1833 20.6653 87.4447 21.104C87.7153 21.5333 87.8507 22.0373 87.8507 22.616C87.8507 23.1667 87.72 23.6707 87.4587 24.128C87.1973 24.576 86.8053 24.9307 86.2827 25.192C85.76 25.4533 85.0973 25.584 84.2947 25.584ZM91.988 25.584C91.2787 25.584 90.6067 25.472 89.972 25.248C89.3467 25.0147 88.8427 24.7067 88.46 24.324L88.95 23.526C89.2673 23.8527 89.692 24.1233 90.224 24.338C90.7653 24.5527 91.3533 24.66 91.988 24.66C92.8 24.66 93.4207 24.4827 93.85 24.128C94.2887 23.7733 94.508 23.2973 94.508 22.7C94.508 22.1027 94.2933 21.6267 93.864 21.272C93.444 20.9173 92.7767 20.74 91.862 20.74H91.162V19.998L94.186 16.204L94.326 16.596H88.866V15.7H95.166V16.414L92.142 20.208L91.652 19.886H92.03C93.206 19.886 94.0833 20.1473 94.662 20.67C95.25 21.1927 95.544 21.8647 95.544 22.686C95.544 23.2367 95.4133 23.7313 95.152 24.17C94.8907 24.6087 94.494 24.954 93.962 25.206C93.4393 25.458 92.7813 25.584 91.988 25.584ZM101.286 25.5V15.112H102.28V25.5H101.286ZM108.042 25.57C107.333 25.57 106.693 25.4113 106.124 25.094C105.564 24.7673 105.121 24.324 104.794 23.764C104.467 23.1947 104.304 22.546 104.304 21.818C104.304 21.0807 104.467 20.432 104.794 19.872C105.121 19.312 105.564 18.8733 106.124 18.556C106.684 18.2387 107.323 18.08 108.042 18.08C108.77 18.08 109.414 18.2387 109.974 18.556C110.543 18.8733 110.987 19.312 111.304 19.872C111.631 20.432 111.794 21.0807 111.794 21.818C111.794 22.546 111.631 23.1947 111.304 23.764C110.987 24.324 110.543 24.7673 109.974 25.094C109.405 25.4113 108.761 25.57 108.042 25.57ZM108.042 24.688C108.574 24.688 109.045 24.5713 109.456 24.338C109.867 24.0953 110.189 23.7593 110.422 23.33C110.665 22.8913 110.786 22.3873 110.786 21.818C110.786 21.2393 110.665 20.7353 110.422 20.306C110.189 19.8767 109.867 19.5453 109.456 19.312C109.045 19.0693 108.579 18.948 108.056 18.948C107.533 18.948 107.067 19.0693 106.656 19.312C106.245 19.5453 105.919 19.8767 105.676 20.306C105.433 20.7353 105.312 21.2393 105.312 21.818C105.312 22.3873 105.433 22.8913 105.676 23.33C105.919 23.7593 106.245 24.0953 106.656 24.338C107.067 24.5713 107.529 24.688 108.042 24.688ZM116.96 28.286C116.288 28.286 115.644 28.188 115.028 27.992C114.412 27.796 113.912 27.516 113.53 27.152L114.034 26.396C114.379 26.704 114.804 26.9467 115.308 27.124C115.821 27.3107 116.362 27.404 116.932 27.404C117.865 27.404 118.551 27.1847 118.99 26.746C119.428 26.3167 119.648 25.6447 119.648 24.73V22.896L119.788 21.636L119.69 20.376V18.15H120.642V24.604C120.642 25.8733 120.329 26.802 119.704 27.39C119.088 27.9873 118.173 28.286 116.96 28.286ZM116.778 25.22C116.078 25.22 115.448 25.0707 114.888 24.772C114.328 24.464 113.884 24.0393 113.558 23.498C113.24 22.9567 113.082 22.336 113.082 21.636C113.082 20.936 113.24 20.32 113.558 19.788C113.884 19.2467 114.328 18.8267 114.888 18.528C115.448 18.2293 116.078 18.08 116.778 18.08C117.431 18.08 118.019 18.2153 118.542 18.486C119.064 18.7567 119.48 19.158 119.788 19.69C120.096 20.222 120.25 20.8707 120.25 21.636C120.25 22.4013 120.096 23.05 119.788 23.582C119.48 24.114 119.064 24.52 118.542 24.8C118.019 25.08 117.431 25.22 116.778 25.22ZM116.876 24.338C117.417 24.338 117.898 24.226 118.318 24.002C118.738 23.7687 119.069 23.4513 119.312 23.05C119.554 22.6393 119.676 22.168 119.676 21.636C119.676 21.104 119.554 20.6373 119.312 20.236C119.069 19.8347 118.738 19.522 118.318 19.298C117.898 19.0647 117.417 18.948 116.876 18.948C116.344 18.948 115.863 19.0647 115.434 19.298C115.014 19.522 114.682 19.8347 114.44 20.236C114.206 20.6373 114.09 21.104 114.09 21.636C114.09 22.168 114.206 22.6393 114.44 23.05C114.682 23.4513 115.014 23.7687 115.434 24.002C115.863 24.226 116.344 24.338 116.876 24.338ZM125.381 25.57C124.775 25.57 124.201 25.486 123.659 25.318C123.118 25.1407 122.693 24.9213 122.385 24.66L122.833 23.876C123.132 24.1 123.515 24.296 123.981 24.464C124.448 24.6227 124.938 24.702 125.451 24.702C126.151 24.702 126.655 24.5947 126.963 24.38C127.271 24.156 127.425 23.862 127.425 23.498C127.425 23.2273 127.337 23.0173 127.159 22.868C126.991 22.7093 126.767 22.5927 126.487 22.518C126.207 22.434 125.895 22.364 125.549 22.308C125.204 22.252 124.859 22.1867 124.513 22.112C124.177 22.0373 123.869 21.93 123.589 21.79C123.309 21.6407 123.081 21.44 122.903 21.188C122.735 20.936 122.651 20.6 122.651 20.18C122.651 19.7787 122.763 19.4193 122.987 19.102C123.211 18.7847 123.538 18.5373 123.967 18.36C124.406 18.1733 124.938 18.08 125.563 18.08C126.039 18.08 126.515 18.1453 126.991 18.276C127.467 18.3973 127.859 18.5607 128.167 18.766L127.733 19.564C127.407 19.34 127.057 19.1813 126.683 19.088C126.31 18.9853 125.937 18.934 125.563 18.934C124.901 18.934 124.411 19.0507 124.093 19.284C123.785 19.508 123.631 19.7973 123.631 20.152C123.631 20.432 123.715 20.6513 123.883 20.81C124.061 20.9687 124.289 21.0947 124.569 21.188C124.859 21.272 125.171 21.342 125.507 21.398C125.853 21.454 126.193 21.524 126.529 21.608C126.875 21.6827 127.187 21.79 127.467 21.93C127.757 22.0607 127.985 22.252 128.153 22.504C128.331 22.7467 128.419 23.0687 128.419 23.47C128.419 23.8993 128.298 24.2727 128.055 24.59C127.822 24.898 127.477 25.1407 127.019 25.318C126.571 25.486 126.025 25.57 125.381 25.57ZM130.369 28.216H129.417C129.977 27.2547 130.383 26.2373 130.635 25.164C130.897 24.0813 131.027 22.9147 131.027 21.664C131.027 20.4133 130.897 19.2513 130.635 18.178C130.383 17.0953 129.977 16.0733 129.417 15.112H130.369C130.901 15.9427 131.307 16.9227 131.587 18.052C131.867 19.172 132.007 20.376 132.007 21.664C132.007 22.952 131.867 24.156 131.587 25.276C131.307 26.3867 130.901 27.3667 130.369 28.216Z" fill="#232323"/>
</svg>
