<svg width="205" height="40" viewBox="0 0 205 40" fill="none" xmlns="http://www.w3.org/2000/svg">
<rect width="205" height="40" rx="20" fill="#FAFAFA"/>
<path d="M20 10C14.49 10 10 14.49 10 20C10 25.51 14.49 30 20 30C25.51 30 30 25.51 30 20C30 14.49 25.51 10 20 10ZM23.92 20.75H15.92C15.51 20.75 15.17 20.41 15.17 20C15.17 19.59 15.51 19.25 15.92 19.25H23.92C24.33 19.25 24.67 19.59 24.67 20C24.67 20.41 24.34 20.75 23.92 20.75Z" fill="#47B35F"/>
<path d="M43.316 25.5V15.7H44.814L50.96 23.246H50.218V15.7H52.024V25.5H50.526L44.38 17.954H45.122V25.5H43.316ZM57.842 25.598C57.0767 25.598 56.3953 25.4347 55.798 25.108C55.2007 24.772 54.7293 24.3147 54.384 23.736C54.0387 23.1573 53.866 22.4993 53.866 21.762C53.866 21.0153 54.0387 20.3573 54.384 19.788C54.7293 19.2093 55.2007 18.7567 55.798 18.43C56.3953 18.1033 57.0767 17.94 57.842 17.94C58.6167 17.94 59.3027 18.1033 59.9 18.43C60.5067 18.7567 60.978 19.2047 61.314 19.774C61.6593 20.3433 61.832 21.006 61.832 21.762C61.832 22.4993 61.6593 23.1573 61.314 23.736C60.978 24.3147 60.5067 24.772 59.9 25.108C59.3027 25.4347 58.6167 25.598 57.842 25.598ZM57.842 24.1C58.2713 24.1 58.654 24.0067 58.99 23.82C59.326 23.6333 59.5873 23.3627 59.774 23.008C59.97 22.6533 60.068 22.238 60.068 21.762C60.068 21.2767 59.97 20.8613 59.774 20.516C59.5873 20.1613 59.326 19.8907 58.99 19.704C58.654 19.5173 58.276 19.424 57.856 19.424C57.4267 19.424 57.044 19.5173 56.708 19.704C56.3813 19.8907 56.12 20.1613 55.924 20.516C55.728 20.8613 55.63 21.2767 55.63 21.762C55.63 22.238 55.728 22.6533 55.924 23.008C56.12 23.3627 56.3813 23.6333 56.708 23.82C57.044 24.0067 57.422 24.1 57.842 24.1ZM63.5054 25.5V18.024H65.1714V20.082L64.9754 19.48C65.1994 18.976 65.5494 18.5933 66.0254 18.332C66.5108 18.0707 67.1128 17.94 67.8314 17.94V19.606C67.7568 19.5873 67.6868 19.578 67.6214 19.578C67.5561 19.5687 67.4908 19.564 67.4254 19.564C66.7628 19.564 66.2354 19.76 65.8434 20.152C65.4514 20.5347 65.2554 21.1087 65.2554 21.874V25.5H63.5054ZM78.752 17.94C79.3493 17.94 79.8766 18.0567 80.334 18.29C80.8006 18.5233 81.1646 18.8827 81.426 19.368C81.6873 19.844 81.818 20.46 81.818 21.216V25.5H80.068V21.44C80.068 20.7773 79.9233 20.2827 79.634 19.956C79.3446 19.6293 78.9293 19.466 78.388 19.466C78.0053 19.466 77.6646 19.55 77.366 19.718C77.0766 19.886 76.848 20.1333 76.68 20.46C76.5213 20.7867 76.442 21.202 76.442 21.706V25.5H74.692V21.44C74.692 20.7773 74.5473 20.2827 74.258 19.956C73.9686 19.6293 73.5533 19.466 73.012 19.466C72.6293 19.466 72.2886 19.55 71.99 19.718C71.7006 19.886 71.472 20.1333 71.304 20.46C71.1453 20.7867 71.066 21.202 71.066 21.706V25.5H69.316V18.024H70.982V20.012L70.688 19.424C70.94 18.9387 71.304 18.57 71.78 18.318C72.2653 18.066 72.816 17.94 73.432 17.94C74.132 17.94 74.7386 18.1127 75.252 18.458C75.7746 18.8033 76.12 19.326 76.288 20.026L75.602 19.788C75.8446 19.228 76.246 18.78 76.806 18.444C77.366 18.108 78.0146 17.94 78.752 17.94ZM88.6603 25.5V23.988L88.5623 23.666V21.02C88.5623 20.5067 88.4083 20.11 88.1003 19.83C87.7923 19.5407 87.3256 19.396 86.7003 19.396C86.2803 19.396 85.8649 19.4613 85.4543 19.592C85.0529 19.7227 84.7123 19.9047 84.4323 20.138L83.7463 18.864C84.1476 18.556 84.6236 18.3273 85.1743 18.178C85.7343 18.0193 86.3129 17.94 86.9103 17.94C87.9929 17.94 88.8283 18.2013 89.4163 18.724C90.0136 19.2373 90.3123 20.0353 90.3123 21.118V25.5H88.6603ZM86.3083 25.598C85.7483 25.598 85.2583 25.5047 84.8383 25.318C84.4183 25.122 84.0916 24.856 83.8583 24.52C83.6343 24.1747 83.5223 23.7873 83.5223 23.358C83.5223 22.938 83.6203 22.56 83.8163 22.224C84.0216 21.888 84.3529 21.622 84.8103 21.426C85.2676 21.23 85.8743 21.132 86.6303 21.132H88.8003V22.294H86.7563C86.1589 22.294 85.7576 22.392 85.5523 22.588C85.3469 22.7747 85.2443 23.008 85.2443 23.288C85.2443 23.6053 85.3703 23.8573 85.6223 24.044C85.8743 24.2307 86.2243 24.324 86.6723 24.324C87.1016 24.324 87.4843 24.226 87.8203 24.03C88.1656 23.834 88.4129 23.5447 88.5623 23.162L88.8563 24.212C88.6883 24.6507 88.3849 24.9913 87.9463 25.234C87.5169 25.4767 86.9709 25.598 86.3083 25.598ZM92.5582 25.5V15.112H94.3082V25.5H92.5582ZM102.406 28.216C101.893 27.3667 101.492 26.3867 101.202 25.276C100.922 24.156 100.782 22.952 100.782 21.664C100.782 20.376 100.922 19.172 101.202 18.052C101.492 16.9227 101.893 15.9427 102.406 15.112H103.358C102.808 16.0733 102.402 17.0953 102.14 18.178C101.888 19.2513 101.762 20.4133 101.762 21.664C101.762 22.9147 101.888 24.0813 102.14 25.164C102.402 26.2373 102.808 27.2547 103.358 28.216H102.406ZM104.22 22.924V22.196L109.414 15.7H110.534L105.382 22.196L104.836 22.028H112.718V22.924H104.22ZM109.75 25.5V22.924L109.778 22.028V19.76H110.758V25.5H109.75ZM113.435 25.5V24.786L117.509 20.796C117.882 20.432 118.162 20.1147 118.349 19.844C118.535 19.564 118.661 19.3027 118.727 19.06C118.792 18.8173 118.825 18.5887 118.825 18.374C118.825 17.8047 118.629 17.3567 118.237 17.03C117.854 16.7033 117.285 16.54 116.529 16.54C115.95 16.54 115.437 16.6287 114.989 16.806C114.55 16.9833 114.172 17.2587 113.855 17.632L113.141 17.016C113.523 16.568 114.013 16.2227 114.611 15.98C115.208 15.7373 115.875 15.616 116.613 15.616C117.275 15.616 117.849 15.7233 118.335 15.938C118.82 16.1433 119.193 16.4467 119.455 16.848C119.725 17.2493 119.861 17.7207 119.861 18.262C119.861 18.5793 119.814 18.892 119.721 19.2C119.637 19.508 119.478 19.8347 119.245 20.18C119.021 20.516 118.689 20.8987 118.251 21.328L114.513 24.996L114.233 24.604H120.309V25.5H113.435ZM125.896 25.5V15.112H126.89V25.5H125.896ZM132.652 25.57C131.942 25.57 131.303 25.4113 130.734 25.094C130.174 24.7673 129.73 24.324 129.404 23.764C129.077 23.1947 128.914 22.546 128.914 21.818C128.914 21.0807 129.077 20.432 129.404 19.872C129.73 19.312 130.174 18.8733 130.734 18.556C131.294 18.2387 131.933 18.08 132.652 18.08C133.38 18.08 134.024 18.2387 134.584 18.556C135.153 18.8733 135.596 19.312 135.914 19.872C136.24 20.432 136.404 21.0807 136.404 21.818C136.404 22.546 136.24 23.1947 135.914 23.764C135.596 24.324 135.153 24.7673 134.584 25.094C134.014 25.4113 133.37 25.57 132.652 25.57ZM132.652 24.688C133.184 24.688 133.655 24.5713 134.066 24.338C134.476 24.0953 134.798 23.7593 135.032 23.33C135.274 22.8913 135.396 22.3873 135.396 21.818C135.396 21.2393 135.274 20.7353 135.032 20.306C134.798 19.8767 134.476 19.5453 134.066 19.312C133.655 19.0693 133.188 18.948 132.666 18.948C132.143 18.948 131.676 19.0693 131.266 19.312C130.855 19.5453 130.528 19.8767 130.286 20.306C130.043 20.7353 129.922 21.2393 129.922 21.818C129.922 22.3873 130.043 22.8913 130.286 23.33C130.528 23.7593 130.855 24.0953 131.266 24.338C131.676 24.5713 132.138 24.688 132.652 24.688ZM141.569 28.286C140.897 28.286 140.253 28.188 139.637 27.992C139.021 27.796 138.522 27.516 138.139 27.152L138.643 26.396C138.988 26.704 139.413 26.9467 139.917 27.124C140.43 27.3107 140.972 27.404 141.541 27.404C142.474 27.404 143.16 27.1847 143.599 26.746C144.038 26.3167 144.257 25.6447 144.257 24.73V22.896L144.397 21.636L144.299 20.376V18.15H145.251V24.604C145.251 25.8733 144.938 26.802 144.313 27.39C143.697 27.9873 142.782 28.286 141.569 28.286ZM141.387 25.22C140.687 25.22 140.057 25.0707 139.497 24.772C138.937 24.464 138.494 24.0393 138.167 23.498C137.85 22.9567 137.691 22.336 137.691 21.636C137.691 20.936 137.85 20.32 138.167 19.788C138.494 19.2467 138.937 18.8267 139.497 18.528C140.057 18.2293 140.687 18.08 141.387 18.08C142.04 18.08 142.628 18.2153 143.151 18.486C143.674 18.7567 144.089 19.158 144.397 19.69C144.705 20.222 144.859 20.8707 144.859 21.636C144.859 22.4013 144.705 23.05 144.397 23.582C144.089 24.114 143.674 24.52 143.151 24.8C142.628 25.08 142.04 25.22 141.387 25.22ZM141.485 24.338C142.026 24.338 142.507 24.226 142.927 24.002C143.347 23.7687 143.678 23.4513 143.921 23.05C144.164 22.6393 144.285 22.168 144.285 21.636C144.285 21.104 144.164 20.6373 143.921 20.236C143.678 19.8347 143.347 19.522 142.927 19.298C142.507 19.0647 142.026 18.948 141.485 18.948C140.953 18.948 140.472 19.0647 140.043 19.298C139.623 19.522 139.292 19.8347 139.049 20.236C138.816 20.6373 138.699 21.104 138.699 21.636C138.699 22.168 138.816 22.6393 139.049 23.05C139.292 23.4513 139.623 23.7687 140.043 24.002C140.472 24.226 140.953 24.338 141.485 24.338ZM149.991 25.57C149.384 25.57 148.81 25.486 148.269 25.318C147.728 25.1407 147.303 24.9213 146.995 24.66L147.443 23.876C147.742 24.1 148.124 24.296 148.591 24.464C149.058 24.6227 149.548 24.702 150.061 24.702C150.761 24.702 151.265 24.5947 151.573 24.38C151.881 24.156 152.035 23.862 152.035 23.498C152.035 23.2273 151.946 23.0173 151.769 22.868C151.601 22.7093 151.377 22.5927 151.097 22.518C150.817 22.434 150.504 22.364 150.159 22.308C149.814 22.252 149.468 22.1867 149.123 22.112C148.787 22.0373 148.479 21.93 148.199 21.79C147.919 21.6407 147.69 21.44 147.513 21.188C147.345 20.936 147.261 20.6 147.261 20.18C147.261 19.7787 147.373 19.4193 147.597 19.102C147.821 18.7847 148.148 18.5373 148.577 18.36C149.016 18.1733 149.548 18.08 150.173 18.08C150.649 18.08 151.125 18.1453 151.601 18.276C152.077 18.3973 152.469 18.5607 152.777 18.766L152.343 19.564C152.016 19.34 151.666 19.1813 151.293 19.088C150.92 18.9853 150.546 18.934 150.173 18.934C149.51 18.934 149.02 19.0507 148.703 19.284C148.395 19.508 148.241 19.7973 148.241 20.152C148.241 20.432 148.325 20.6513 148.493 20.81C148.67 20.9687 148.899 21.0947 149.179 21.188C149.468 21.272 149.781 21.342 150.117 21.398C150.462 21.454 150.803 21.524 151.139 21.608C151.484 21.6827 151.797 21.79 152.077 21.93C152.366 22.0607 152.595 22.252 152.763 22.504C152.94 22.7467 153.029 23.0687 153.029 23.47C153.029 23.8993 152.908 24.2727 152.665 24.59C152.432 24.898 152.086 25.1407 151.629 25.318C151.181 25.486 150.635 25.57 149.991 25.57ZM154.979 28.216H154.027C154.587 27.2547 154.993 26.2373 155.245 25.164C155.506 24.0813 155.637 22.9147 155.637 21.664C155.637 20.4133 155.506 19.2513 155.245 18.178C154.993 17.0953 154.587 16.0733 154.027 15.112H154.979C155.511 15.9427 155.917 16.9227 156.197 18.052C156.477 19.172 156.617 20.376 156.617 21.664C156.617 22.952 156.477 24.156 156.197 25.276C155.917 26.3867 155.511 27.3667 154.979 28.216Z" fill="#232323"/>
</svg>
