<svg width="208" height="207" viewBox="0 0 208 207" fill="none" xmlns="http://www.w3.org/2000/svg">
<circle cx="103.5" cy="103.5" r="103.5" fill="#FAFAFA"/>
<path d="M87.028 104V88.64L88.708 90.32H83.668V87.2H90.916V104H87.028ZM93.6904 104V101.48L100.17 95.36C100.682 94.896 101.058 94.48 101.298 94.112C101.538 93.744 101.698 93.408 101.778 93.104C101.874 92.8 101.922 92.52 101.922 92.264C101.922 91.592 101.69 91.08 101.226 90.728C100.778 90.36 100.114 90.176 99.2344 90.176C98.5304 90.176 97.8744 90.312 97.2664 90.584C96.6744 90.856 96.1704 91.28 95.7544 91.856L92.9224 90.032C93.5624 89.072 94.4584 88.312 95.6104 87.752C96.7624 87.192 98.0904 86.912 99.5944 86.912C100.842 86.912 101.93 87.12 102.858 87.536C103.802 87.936 104.53 88.504 105.042 89.24C105.57 89.976 105.834 90.856 105.834 91.88C105.834 92.424 105.762 92.968 105.618 93.512C105.49 94.04 105.218 94.6 104.802 95.192C104.402 95.784 103.81 96.448 103.026 97.184L97.6504 102.248L96.9064 100.832H106.386V104H93.6904ZM107.541 100.472V97.856L115.461 87.2H119.541L111.789 97.856L109.893 97.304H123.117V100.472H107.541ZM116.589 104V100.472L116.709 97.304V94.16H120.381V104H116.589Z" fill="#232323"/>
<path d="M75.5901 124V116.644H72.7101V115.6H79.6581V116.644H76.7781V124H75.5901ZM82.8648 124.072C82.2248 124.072 81.6568 123.932 81.1608 123.652C80.6648 123.372 80.2728 122.988 79.9848 122.5C79.6968 122.004 79.5528 121.444 79.5528 120.82C79.5528 120.188 79.6968 119.628 79.9848 119.14C80.2728 118.652 80.6648 118.272 81.1608 118C81.6568 117.72 82.2248 117.58 82.8648 117.58C83.4968 117.58 84.0608 117.72 84.5568 118C85.0608 118.272 85.4528 118.652 85.7328 119.14C86.0208 119.62 86.1648 120.18 86.1648 120.82C86.1648 121.452 86.0208 122.012 85.7328 122.5C85.4528 122.988 85.0608 123.372 84.5568 123.652C84.0608 123.932 83.4968 124.072 82.8648 124.072ZM82.8648 123.064C83.2728 123.064 83.6368 122.972 83.9568 122.788C84.2848 122.604 84.5408 122.344 84.7248 122.008C84.9088 121.664 85.0008 121.268 85.0008 120.82C85.0008 120.364 84.9088 119.972 84.7248 119.644C84.5408 119.308 84.2848 119.048 83.9568 118.864C83.6368 118.68 83.2728 118.588 82.8648 118.588C82.4568 118.588 82.0928 118.68 81.7728 118.864C81.4528 119.048 81.1968 119.308 81.0048 119.644C80.8128 119.972 80.7168 120.364 80.7168 120.82C80.7168 121.268 80.8128 121.664 81.0048 122.008C81.1968 122.344 81.4528 122.604 81.7728 122.788C82.0928 122.972 82.4568 123.064 82.8648 123.064ZM89.942 124.072C89.302 124.072 88.806 123.9 88.454 123.556C88.102 123.212 87.926 122.72 87.926 122.08V116.248H89.078V122.032C89.078 122.376 89.162 122.64 89.33 122.824C89.506 123.008 89.754 123.1 90.074 123.1C90.434 123.1 90.734 123 90.974 122.8L91.334 123.628C91.158 123.78 90.946 123.892 90.698 123.964C90.458 124.036 90.206 124.072 89.942 124.072ZM86.846 118.588V117.64H90.902V118.588H86.846ZM96.6748 124V122.656L96.6148 122.404V120.112C96.6148 119.624 96.4708 119.248 96.1828 118.984C95.9028 118.712 95.4788 118.576 94.9108 118.576C94.5348 118.576 94.1668 118.64 93.8068 118.768C93.4468 118.888 93.1428 119.052 92.8948 119.26L92.4148 118.396C92.7428 118.132 93.1348 117.932 93.5908 117.796C94.0548 117.652 94.5388 117.58 95.0428 117.58C95.9148 117.58 96.5868 117.792 97.0588 118.216C97.5308 118.64 97.7668 119.288 97.7668 120.16V124H96.6748ZM94.5868 124.072C94.1148 124.072 93.6988 123.992 93.3388 123.832C92.9868 123.672 92.7148 123.452 92.5228 123.172C92.3308 122.884 92.2348 122.56 92.2348 122.2C92.2348 121.856 92.3148 121.544 92.4748 121.264C92.6428 120.984 92.9108 120.76 93.2788 120.592C93.6548 120.424 94.1588 120.34 94.7908 120.34H96.8068V121.168H94.8388C94.2628 121.168 93.8748 121.264 93.6748 121.456C93.4748 121.648 93.3748 121.88 93.3748 122.152C93.3748 122.464 93.4988 122.716 93.7468 122.908C93.9948 123.092 94.3388 123.184 94.7788 123.184C95.2108 123.184 95.5868 123.088 95.9068 122.896C96.2348 122.704 96.4708 122.424 96.6148 122.056L96.8428 122.848C96.6908 123.224 96.4228 123.524 96.0388 123.748C95.6548 123.964 95.1708 124.072 94.5868 124.072ZM99.8986 124V115.096H101.051V124H99.8986ZM106.641 124V115.6H107.841V122.956H112.389V124H106.641ZM116.24 124.072C115.6 124.072 115.032 123.932 114.536 123.652C114.04 123.372 113.648 122.988 113.36 122.5C113.072 122.004 112.928 121.444 112.928 120.82C112.928 120.188 113.072 119.628 113.36 119.14C113.648 118.652 114.04 118.272 114.536 118C115.032 117.72 115.6 117.58 116.24 117.58C116.872 117.58 117.436 117.72 117.932 118C118.436 118.272 118.828 118.652 119.108 119.14C119.396 119.62 119.54 120.18 119.54 120.82C119.54 121.452 119.396 122.012 119.108 122.5C118.828 122.988 118.436 123.372 117.932 123.652C117.436 123.932 116.872 124.072 116.24 124.072ZM116.24 123.064C116.648 123.064 117.012 122.972 117.332 122.788C117.66 122.604 117.916 122.344 118.1 122.008C118.284 121.664 118.376 121.268 118.376 120.82C118.376 120.364 118.284 119.972 118.1 119.644C117.916 119.308 117.66 119.048 117.332 118.864C117.012 118.68 116.648 118.588 116.24 118.588C115.832 118.588 115.468 118.68 115.148 118.864C114.828 119.048 114.572 119.308 114.38 119.644C114.188 119.972 114.092 120.364 114.092 120.82C114.092 121.268 114.188 121.664 114.38 122.008C114.572 122.344 114.828 122.604 115.148 122.788C115.468 122.972 115.832 123.064 116.24 123.064ZM123.917 126.4C123.333 126.4 122.765 126.316 122.213 126.148C121.669 125.988 121.225 125.756 120.881 125.452L121.433 124.564C121.729 124.82 122.093 125.02 122.525 125.164C122.957 125.316 123.409 125.392 123.881 125.392C124.633 125.392 125.185 125.216 125.537 124.864C125.889 124.512 126.065 123.976 126.065 123.256V121.912L126.185 120.652L126.125 119.38V117.64H127.217V123.136C127.217 124.256 126.937 125.08 126.377 125.608C125.817 126.136 124.997 126.4 123.917 126.4ZM123.773 123.736C123.157 123.736 122.605 123.608 122.117 123.352C121.637 123.088 121.253 122.724 120.965 122.26C120.685 121.796 120.545 121.26 120.545 120.652C120.545 120.036 120.685 119.5 120.965 119.044C121.253 118.58 121.637 118.22 122.117 117.964C122.605 117.708 123.157 117.58 123.773 117.58C124.317 117.58 124.813 117.692 125.261 117.916C125.709 118.132 126.065 118.468 126.329 118.924C126.601 119.38 126.737 119.956 126.737 120.652C126.737 121.34 126.601 121.912 126.329 122.368C126.065 122.824 125.709 123.168 125.261 123.4C124.813 123.624 124.317 123.736 123.773 123.736ZM123.905 122.728C124.329 122.728 124.705 122.64 125.033 122.464C125.361 122.288 125.617 122.044 125.801 121.732C125.993 121.42 126.089 121.06 126.089 120.652C126.089 120.244 125.993 119.884 125.801 119.572C125.617 119.26 125.361 119.02 125.033 118.852C124.705 118.676 124.329 118.588 123.905 118.588C123.481 118.588 123.101 118.676 122.765 118.852C122.437 119.02 122.177 119.26 121.985 119.572C121.801 119.884 121.709 120.244 121.709 120.652C121.709 121.06 121.801 121.42 121.985 121.732C122.177 122.044 122.437 122.288 122.765 122.464C123.101 122.64 123.481 122.728 123.905 122.728ZM131.242 124.072C130.714 124.072 130.21 124 129.73 123.856C129.258 123.712 128.886 123.536 128.614 123.328L129.094 122.416C129.366 122.6 129.702 122.756 130.102 122.884C130.502 123.012 130.91 123.076 131.326 123.076C131.862 123.076 132.246 123 132.478 122.848C132.718 122.696 132.838 122.484 132.838 122.212C132.838 122.012 132.766 121.856 132.622 121.744C132.478 121.632 132.286 121.548 132.046 121.492C131.814 121.436 131.554 121.388 131.266 121.348C130.978 121.3 130.69 121.244 130.402 121.18C130.114 121.108 129.85 121.012 129.61 120.892C129.37 120.764 129.178 120.592 129.034 120.376C128.89 120.152 128.818 119.856 128.818 119.488C128.818 119.104 128.926 118.768 129.142 118.48C129.358 118.192 129.662 117.972 130.054 117.82C130.454 117.66 130.926 117.58 131.47 117.58C131.886 117.58 132.306 117.632 132.73 117.736C133.162 117.832 133.514 117.972 133.786 118.156L133.294 119.068C133.006 118.876 132.706 118.744 132.394 118.672C132.082 118.6 131.77 118.564 131.458 118.564C130.954 118.564 130.578 118.648 130.33 118.816C130.082 118.976 129.958 119.184 129.958 119.44C129.958 119.656 130.03 119.824 130.174 119.944C130.326 120.056 130.518 120.144 130.75 120.208C130.99 120.272 131.254 120.328 131.542 120.376C131.83 120.416 132.118 120.472 132.406 120.544C132.694 120.608 132.954 120.7 133.186 120.82C133.426 120.94 133.618 121.108 133.762 121.324C133.914 121.54 133.99 121.828 133.99 122.188C133.99 122.572 133.878 122.904 133.654 123.184C133.43 123.464 133.114 123.684 132.706 123.844C132.298 123.996 131.81 124.072 131.242 124.072Z" fill="#8E8E93"/>
<path d="M45.7944 32.2827C44.1014 30.2017 41.0327 29.8784 39.0388 31.6732C22.7982 46.2928 11.9226 66.0016 8.25494 87.639C4.31606 110.876 8.9592 134.753 21.3193 154.821C33.6794 174.889 52.9135 189.779 75.438 196.718C97.9625 203.656 122.241 202.169 143.751 192.534C165.26 182.899 182.534 165.773 192.353 144.347C202.172 122.921 203.867 98.6558 197.122 76.0727C190.377 53.4895 175.652 34.1285 155.691 21.5969C137.104 9.92812 115.157 4.92163 93.4362 7.30656C90.7695 7.59936 88.9677 10.1044 89.3933 12.7531C89.819 15.4018 92.3111 17.1896 94.9794 16.9117C114.37 14.8916 133.935 19.4093 150.525 29.8246C168.49 41.1031 181.743 58.528 187.813 78.8528C193.884 99.1777 192.358 121.016 183.521 140.3C174.684 159.583 159.138 174.997 139.779 183.668C120.421 192.34 98.5699 193.678 78.2979 187.433C58.0258 181.189 40.7151 167.788 29.591 149.727C18.467 131.666 14.2881 110.176 17.8331 89.2626C21.1068 69.9493 30.7612 52.3433 45.1784 39.2195C47.1622 37.4136 47.4874 34.3637 45.7944 32.2827Z" fill="#6C6C6C"/>
<path d="M24.6604 103.874C21.8622 103.874 19.5779 106.144 19.7457 108.938C20.5303 121.999 24.3416 134.724 30.9071 146.096C38.3186 158.933 48.9787 169.593 61.8158 177.004C74.6529 184.416 89.2148 188.318 104.038 188.318C118.861 188.318 133.423 184.416 146.26 177.004C159.097 169.593 169.757 158.933 177.168 146.096C184.58 133.259 188.482 118.697 188.482 103.874C188.482 89.0507 184.58 74.4888 177.168 61.6517C170.603 50.28 161.488 40.6166 150.569 33.4065C148.234 31.8646 145.126 32.7075 143.726 35.1309C142.327 37.5542 143.169 40.6387 145.491 42.1997C154.876 48.5073 162.717 56.8874 168.393 66.7184C174.915 78.015 178.349 90.8295 178.349 103.874C178.349 116.918 174.915 129.732 168.393 141.029C161.871 152.326 152.49 161.707 141.193 168.229C129.897 174.751 117.082 178.184 104.038 178.184C90.9935 178.184 78.1791 174.751 66.8824 168.229C55.5858 161.707 46.2049 152.326 39.6828 141.029C34.0069 131.198 30.67 120.218 29.8997 108.937C29.709 106.145 27.4586 103.874 24.6604 103.874Z" fill="#9B9B9B"/>
<path d="M41.5759 125.267C38.9794 126.156 37.5791 128.991 38.6478 131.519C42.2294 139.991 47.4301 147.702 53.9742 154.211C61.695 161.89 71.0788 167.69 81.3998 171.162C91.7207 174.635 102.702 175.686 113.495 174.236C124.287 172.785 134.601 168.871 143.639 162.797C152.677 156.723 160.196 148.651 165.615 139.206C171.034 129.76 174.208 119.195 174.891 108.327C175.574 97.4591 173.747 86.5797 169.553 76.5305C165.998 68.0128 160.822 60.285 154.33 53.7688C152.393 51.8246 149.239 52.0507 147.435 54.1191C145.631 56.1874 145.862 59.3132 147.777 61.2795C153.132 66.7781 157.413 73.2484 160.381 80.3588C163.988 89.0011 165.559 98.3574 164.971 107.704C164.384 117.05 161.655 126.136 156.994 134.259C152.334 142.382 145.867 149.324 138.095 154.548C130.322 159.772 121.452 163.138 112.171 164.385C102.889 165.633 93.4451 164.728 84.5691 161.742C75.6931 158.756 67.623 153.768 60.9831 147.164C55.5202 141.73 51.1459 135.323 48.0769 128.288C46.9795 125.772 44.1724 124.378 41.5759 125.267Z" fill="#FFD0C7"/>
<path d="M55.2574 120.582C52.9147 121.384 51.6494 123.943 52.6363 126.214C55.4551 132.7 59.4818 138.607 64.5153 143.613C70.6107 149.676 78.019 154.255 86.1671 156.996C94.3152 159.737 102.985 160.568 111.505 159.423C120.025 158.277 128.168 155.187 135.303 150.392C142.438 145.596 148.375 139.224 152.653 131.767C156.931 124.31 159.437 115.969 159.976 107.389C160.515 98.8094 159.073 90.2204 155.762 82.2868C153.027 75.7353 149.078 69.7759 144.137 64.7161C142.407 62.9445 139.56 63.1498 137.932 65.016C136.304 66.8822 136.516 69.7008 138.219 71.4986C142.137 75.6357 145.281 80.4593 147.486 85.7409C150.267 92.4051 151.479 99.6199 151.026 106.827C150.573 114.034 148.468 121.041 144.875 127.304C141.281 133.568 136.294 138.921 130.301 142.949C124.307 146.977 117.468 149.573 110.31 150.535C103.153 151.497 95.871 150.799 89.0266 148.497C82.1822 146.194 75.9592 142.348 70.8391 137.255C66.7813 133.219 63.5023 128.486 61.1517 123.295C60.1302 121.039 57.6001 119.779 55.2574 120.582Z" fill="#EF9685"/>
</svg>
