<svg width="40" height="40" viewBox="0 0 40 40" fill="none" xmlns="http://www.w3.org/2000/svg">
<g filter="url(#filter0_d_156_8861)">
<circle cx="20" cy="20" r="18" transform="rotate(-180 20 20)" fill="url(#paint0_linear_156_8861)"/>
<circle cx="20" cy="20" r="18" transform="rotate(-180 20 20)" fill="white"/>
</g>
<path d="M25.4502 13.4339L20.8668 11.7172C20.3918 11.5422 19.6168 11.5422 19.1418 11.7172L14.5585 13.4339C13.6752 13.7672 12.9585 14.8005 12.9585 15.7422V22.4922C12.9585 23.1672 13.4002 24.0589 13.9418 24.4589L18.5252 27.8839C19.3335 28.4922 20.6585 28.4922 21.4668 27.8839L26.0502 24.4589C26.5918 24.0505 27.0335 23.1672 27.0335 22.4922V15.7422C27.0418 14.8005 26.3252 13.7672 25.4502 13.4339ZM22.9002 18.1005L19.3168 21.6839C19.1918 21.8089 19.0335 21.8672 18.8752 21.8672C18.7168 21.8672 18.5585 21.8089 18.4335 21.6839L17.1002 20.3339C16.8585 20.0922 16.8585 19.6922 17.1002 19.4505C17.3418 19.2089 17.7418 19.2089 17.9835 19.4505L18.8835 20.3505L22.0252 17.2089C22.2668 16.9672 22.6668 16.9672 22.9085 17.2089C23.1502 17.4505 23.1502 17.8589 22.9002 18.1005Z" fill="#E17E61"/>
<defs>
<filter id="filter0_d_156_8861" x="0" y="0" width="40" height="40" filterUnits="userSpaceOnUse" color-interpolation-filters="sRGB">
<feFlood flood-opacity="0" result="BackgroundImageFix"/>
<feColorMatrix in="SourceAlpha" type="matrix" values="0 0 0 0 0 0 0 0 0 0 0 0 0 0 0 0 0 0 127 0" result="hardAlpha"/>
<feOffset/>
<feGaussianBlur stdDeviation="1"/>
<feComposite in2="hardAlpha" operator="out"/>
<feColorMatrix type="matrix" values="0 0 0 0 0 0 0 0 0 0 0 0 0 0 0 0 0 0 0.07 0"/>
<feBlend mode="normal" in2="BackgroundImageFix" result="effect1_dropShadow_156_8861"/>
<feBlend mode="normal" in="SourceGraphic" in2="effect1_dropShadow_156_8861" result="shape"/>
</filter>
<linearGradient id="paint0_linear_156_8861" x1="2" y1="2" x2="38.1267" y2="2.12756" gradientUnits="userSpaceOnUse">
<stop stop-color="#E0DFDF"/>
<stop offset="1" stop-color="#F1EFEF"/>
</linearGradient>
</defs>
</svg>
