<svg width="20" height="20" viewBox="0 0 20 20" fill="none" xmlns="http://www.w3.org/2000/svg">
<path d="M8.78337 18.2837C8.5917 18.2837 8.40836 18.2003 8.28336 18.0337L7.44169 16.9087C7.26669 16.6753 7.03337 16.542 6.78337 16.5253C6.53337 16.5086 6.28335 16.6253 6.08335 16.8337C4.87502 18.1253 3.95836 18.017 3.51669 17.8503C3.06669 17.6753 2.30835 17.1003 2.30835 15.2503V5.867C2.30835 2.167 3.37502 1.04199 6.86668 1.04199H13.1584C16.65 1.04199 17.7167 2.167 17.7167 5.867V9.41698C17.7167 9.75865 17.4334 10.042 17.0917 10.042C16.75 10.042 16.4667 9.75865 16.4667 9.41698V5.867C16.4667 2.85867 15.9417 2.29199 13.1584 2.29199H6.86668C4.08335 2.29199 3.55835 2.85867 3.55835 5.867V15.2503C3.55835 16.1253 3.77502 16.6086 3.97502 16.6836C4.12502 16.742 4.53337 16.6587 5.1667 15.9837C5.62504 15.5003 6.22503 15.242 6.85003 15.2753C7.46669 15.3086 8.05003 15.6337 8.4417 16.1587L9.29169 17.2836C9.50002 17.5587 9.44169 17.9503 9.16669 18.1587C9.04169 18.2503 8.90837 18.2837 8.78337 18.2837Z" fill="#8F8888"/>
<path d="M15.1667 18.4583C13.35 18.4583 11.875 16.9833 11.875 15.1667C11.875 13.35 13.35 11.875 15.1667 11.875C16.9833 11.875 18.4583 13.35 18.4583 15.1667C18.4583 16.9833 16.9833 18.4583 15.1667 18.4583ZM15.1667 13.125C14.0417 13.125 13.125 14.0417 13.125 15.1667C13.125 16.2917 14.0417 17.2083 15.1667 17.2083C16.2917 17.2083 17.2083 16.2917 17.2083 15.1667C17.2083 14.0417 16.2917 13.125 15.1667 13.125Z" fill="#8F8888"/>
<path d="M18.3332 18.9582C18.1749 18.9582 18.0165 18.8999 17.8915 18.7749L17.0582 17.9415C16.8165 17.6999 16.8165 17.2999 17.0582 17.0582C17.2999 16.8165 17.6999 16.8165 17.9415 17.0582L18.7749 17.8915C19.0165 18.1332 19.0165 18.5332 18.7749 18.7749C18.6499 18.8999 18.4915 18.9582 18.3332 18.9582Z" fill="#8F8888"/>
<path d="M13.3334 6.45801H6.66675C6.32508 6.45801 6.04175 6.17467 6.04175 5.83301C6.04175 5.49134 6.32508 5.20801 6.66675 5.20801H13.3334C13.6751 5.20801 13.9584 5.49134 13.9584 5.83301C13.9584 6.17467 13.6751 6.45801 13.3334 6.45801Z" fill="#8F8888"/>
<path d="M12.5 9.79199H7.5C7.15833 9.79199 6.875 9.50866 6.875 9.16699C6.875 8.82533 7.15833 8.54199 7.5 8.54199H12.5C12.8417 8.54199 13.125 8.82533 13.125 9.16699C13.125 9.50866 12.8417 9.79199 12.5 9.79199Z" fill="#8F8888"/>
</svg>
