<svg width="40" height="40" viewBox="0 0 40 40" fill="none" xmlns="http://www.w3.org/2000/svg">
<g filter="url(#filter0_d_156_8883)">
<circle cx="20" cy="20" r="18" transform="rotate(-180 20 20)" fill="url(#paint0_linear_156_8883)"/>
<circle cx="20" cy="20" r="18" transform="rotate(-180 20 20)" fill="white"/>
</g>
<path d="M27.4252 19.2666V15.6083C27.4252 14.9249 26.9085 14.1499 26.2669 13.8916L21.6252 11.9916C20.5835 11.5666 19.4085 11.5666 18.3669 11.9916L13.7252 13.8916C13.0919 14.1499 12.5752 14.9249 12.5752 15.6083V19.2666C12.5752 23.3416 15.5335 27.1583 19.5752 28.2749C19.8502 28.3499 20.1502 28.3499 20.4252 28.2749C24.4669 27.1583 27.4252 23.3416 27.4252 19.2666ZM20.6252 20.7249V22.9166C20.6252 23.2583 20.3419 23.5416 20.0002 23.5416C19.6585 23.5416 19.3752 23.2583 19.3752 22.9166V20.7249C18.5335 20.4583 17.9169 19.6749 17.9169 18.7499C17.9169 17.5999 18.8502 16.6666 20.0002 16.6666C21.1502 16.6666 22.0835 17.5999 22.0835 18.7499C22.0835 19.6833 21.4669 20.4583 20.6252 20.7249Z" fill="#E17E61"/>
<defs>
<filter id="filter0_d_156_8883" x="0" y="0" width="40" height="40" filterUnits="userSpaceOnUse" color-interpolation-filters="sRGB">
<feFlood flood-opacity="0" result="BackgroundImageFix"/>
<feColorMatrix in="SourceAlpha" type="matrix" values="0 0 0 0 0 0 0 0 0 0 0 0 0 0 0 0 0 0 127 0" result="hardAlpha"/>
<feOffset/>
<feGaussianBlur stdDeviation="1"/>
<feComposite in2="hardAlpha" operator="out"/>
<feColorMatrix type="matrix" values="0 0 0 0 0 0 0 0 0 0 0 0 0 0 0 0 0 0 0.07 0"/>
<feBlend mode="normal" in2="BackgroundImageFix" result="effect1_dropShadow_156_8883"/>
<feBlend mode="normal" in="SourceGraphic" in2="effect1_dropShadow_156_8883" result="shape"/>
</filter>
<linearGradient id="paint0_linear_156_8883" x1="2" y1="2" x2="38.1267" y2="2.12756" gradientUnits="userSpaceOnUse">
<stop stop-color="#E0DFDF"/>
<stop offset="1" stop-color="#F1EFEF"/>
</linearGradient>
</defs>
</svg>
