<svg width="24" height="24" viewBox="0 0 24 24" fill="none" xmlns="http://www.w3.org/2000/svg">
<path d="M22.9998 15.3704V17.5604C22.9998 20.0004 21.2198 22.3004 18.7998 22.9704C18.6298 23.0104 18.4498 23.0104 18.2898 22.9704C17.1098 22.6504 16.0698 21.9304 15.3398 21.0004C14.5498 20.0204 14.0898 18.8104 14.0898 17.5604V15.3704C14.0898 14.9504 14.3998 14.4904 14.7798 14.3304L17.5598 13.1904C18.1898 12.9404 18.8898 12.9404 19.5198 13.1904L20.5198 13.6004L22.3098 14.3304C22.6898 14.4904 22.9998 14.9504 22.9998 15.3704Z" fill="#E17E61"/>
<path d="M20.9498 11.0103L20.7698 12.0803L20.0698 11.8003C19.0798 11.4003 17.9998 11.4003 16.9898 11.8003L14.1998 12.9503C13.2498 13.3503 12.5898 14.3403 12.5898 15.3703V17.5603C12.5898 18.7503 12.9198 19.9403 13.5298 21.0003H6.17979C4.80979 21.0003 3.51979 19.9103 3.28979 18.5603L2.02979 11.0103C1.86979 10.0803 2.33979 8.83028 3.07979 8.24028L9.65979 2.98028C10.6698 2.17028 12.3098 2.17028 13.3198 2.99028L19.8998 8.24028C20.6298 8.83028 21.1098 10.0803 20.9498 11.0103Z" fill="#E17E61"/>
</svg>
