<svg width="20" height="20" viewBox="0 0 20 20" fill="none" xmlns="http://www.w3.org/2000/svg">
<path d="M9.99995 18.9583C9.79995 18.9583 9.59996 18.9334 9.40829 18.875C5.08329 17.6834 1.94995 13.6417 1.94995 9.25833V5.59998C1.94995 4.66665 2.62496 3.65836 3.49162 3.30002L8.1333 1.4C9.34163 0.908333 10.6666 0.908333 11.8666 1.4L16.5083 3.30002C17.375 3.65836 18.05 4.66665 18.05 5.59998V9.25833C18.05 13.6333 14.9083 17.675 10.5916 18.875C10.3999 18.9334 10.2 18.9583 9.99995 18.9583ZM9.99995 2.29167C9.52495 2.29167 9.05828 2.38335 8.60828 2.56669L3.96663 4.46666C3.56663 4.63333 3.19995 5.17499 3.19995 5.60832V9.26667C3.19995 13.0917 5.94996 16.625 9.74162 17.675C9.90829 17.725 10.0916 17.725 10.2583 17.675C14.05 16.625 16.8 13.0917 16.8 9.26667V5.60832C16.8 5.17499 16.4333 4.63333 16.0333 4.46666L11.3916 2.56669C10.9416 2.38335 10.475 2.29167 9.99995 2.29167Z" fill="#8F8888"/>
<path d="M9.99992 11.0413C8.73325 11.0413 7.70825 10.0163 7.70825 8.74967C7.70825 7.48301 8.73325 6.45801 9.99992 6.45801C11.2666 6.45801 12.2916 7.48301 12.2916 8.74967C12.2916 10.0163 11.2666 11.0413 9.99992 11.0413ZM9.99992 7.70801C9.42492 7.70801 8.95825 8.17467 8.95825 8.74967C8.95825 9.32467 9.42492 9.79134 9.99992 9.79134C10.5749 9.79134 11.0416 9.32467 11.0416 8.74967C11.0416 8.17467 10.5749 7.70801 9.99992 7.70801Z" fill="#8F8888"/>
<path d="M10 13.542C9.65833 13.542 9.375 13.2587 9.375 12.917V10.417C9.375 10.0753 9.65833 9.79199 10 9.79199C10.3417 9.79199 10.625 10.0753 10.625 10.417V12.917C10.625 13.2587 10.3417 13.542 10 13.542Z" fill="#8F8888"/>
</svg>
