<svg width="282" height="56" viewBox="0 0 282 56" fill="none" xmlns="http://www.w3.org/2000/svg">
<path d="M96 56C75.6279 56 87.5 9 56 9C19.3367 9 35.9664 53.9258 15.4629 55.9307C6.79434 55.1538 0 47.8707 0 39V17C0 7.61116 7.61115 0 17 0L265 0C274.389 0 282 7.61116 282 17V39C282 48.3888 274.389 56 265 56L96 56Z" fill="url(#paint0_linear_903_452)"/>
<path d="M96 56C75.6279 56 87.5 9 56 9C19.3367 9 35.9664 53.9258 15.4629 55.9307C6.79434 55.1538 0 47.8707 0 39V17C0 7.61116 7.61115 0 17 0L265 0C274.389 0 282 7.61116 282 17V39C282 48.3888 274.389 56 265 56L96 56Z" fill="white"/>
<defs>
<linearGradient id="paint0_linear_903_452" x1="282" y1="56" x2="-0.906256" y2="50.9699" gradientUnits="userSpaceOnUse">
<stop stop-color="#EAEAEA"/>
<stop offset="1" stop-color="#F1EFEF"/>
</linearGradient>
</defs>
</svg>
