<svg width="282" height="56" viewBox="0 0 282 56" fill="none" xmlns="http://www.w3.org/2000/svg">
<path fill-rule="evenodd" clip-rule="evenodd" d="M200.426 36.8577C198.064 46.9887 195.963 56 186 56L17 56C7.61115 56 0 48.3888 0 39V17C0 7.61116 7.61118 0 17 0L265 0C274.389 0 282 7.61116 282 17V39C282 47.8424 275.249 55.108 266.62 55.9238C258.637 55.0155 256.089 46.1178 253.281 36.3105C249.594 23.4388 245.459 9 228 9C206.92 9 203.458 23.8516 200.426 36.8577Z" fill="url(#paint0_linear_156_8892)"/>
<path fill-rule="evenodd" clip-rule="evenodd" d="M200.426 36.8577C198.064 46.9887 195.963 56 186 56L17 56C7.61115 56 0 48.3888 0 39V17C0 7.61116 7.61118 0 17 0L265 0C274.389 0 282 7.61116 282 17V39C282 47.8424 275.249 55.108 266.62 55.9238C258.637 55.0155 256.089 46.1178 253.281 36.3105C249.594 23.4388 245.459 9 228 9C206.92 9 203.458 23.8516 200.426 36.8577Z" fill="white"/>
<defs>
<linearGradient id="paint0_linear_156_8892" x1="282" y1="56" x2="-0.906256" y2="50.9699" gradientUnits="userSpaceOnUse">
<stop stop-color="#EAEAEA"/>
<stop offset="1" stop-color="#F1EFEF"/>
</linearGradient>
</defs>
</svg>
