<svg width="123" height="12" viewBox="0 0 123 12" fill="none" xmlns="http://www.w3.org/2000/svg">
<path d="M5.61228 0.349875H6.93331V6.08993C6.93331 6.70073 6.78984 7.24192 6.50291 7.71351C6.21598 8.18226 5.81257 8.55158 5.29268 8.82147C4.77279 9.08851 4.16342 9.22203 3.46456 9.22203C2.76853 9.22203 2.16058 9.08851 1.64069 8.82147C1.12081 8.55158 0.717396 8.18226 0.430464 7.71351C0.143533 7.24192 6.66082e-05 6.70073 6.66082e-05 6.08993V0.349875H1.31683V5.9834C1.31683 6.37828 1.40348 6.72914 1.57677 7.03596C1.75291 7.34277 2.00149 7.58425 2.32251 7.76039C2.64353 7.93368 3.02421 8.02033 3.46456 8.02033C3.90774 8.02033 4.28984 7.93368 4.61086 7.76039C4.93473 7.58425 5.18189 7.34277 5.35234 7.03596C5.52564 6.72914 5.61228 6.37828 5.61228 5.9834V0.349875ZM8.74545 11.5317V2.53169H9.98977V3.59277H10.0963C10.1702 3.45641 10.2767 3.29874 10.4159 3.11976C10.5551 2.94078 10.7483 2.78453 10.9955 2.65101C11.2426 2.51465 11.5693 2.44647 11.9756 2.44647C12.504 2.44647 12.9756 2.57999 13.3903 2.84703C13.8051 3.11408 14.1304 3.49902 14.3662 4.00186C14.6048 4.50471 14.7241 5.10982 14.7241 5.81721C14.7241 6.52459 14.6062 7.13113 14.3705 7.63681C14.1347 8.13965 13.8108 8.52743 13.3989 8.80016C12.9869 9.07005 12.5168 9.20499 11.9883 9.20499C11.5906 9.20499 11.2653 9.13823 11.0125 9.00471C10.7625 8.87118 10.5665 8.71493 10.4244 8.53596C10.2824 8.35698 10.173 8.19789 10.0963 8.05868H10.0196V11.5317H8.74545ZM9.99403 5.80442C9.99403 6.26465 10.0608 6.66806 10.1943 7.01465C10.3278 7.36124 10.521 7.63255 10.7739 7.82857C11.0267 8.02175 11.3364 8.11834 11.7028 8.11834C12.0835 8.11834 12.4017 8.01749 12.6574 7.81578C12.9131 7.61124 13.1062 7.33425 13.2369 6.98482C13.3705 6.63539 13.4372 6.24192 13.4372 5.80442C13.4372 5.3726 13.3719 4.98482 13.2412 4.64107C13.1133 4.29732 12.9202 4.02601 12.6616 3.82715C12.406 3.62828 12.0864 3.52885 11.7028 3.52885C11.3335 3.52885 11.021 3.62402 10.7653 3.81436C10.5125 4.00471 10.3207 4.27033 10.1901 4.61124C10.0594 4.95215 9.99403 5.34988 9.99403 5.80442ZM18.602 9.20499C18.0736 9.20499 17.602 9.07005 17.1872 8.80016C16.7753 8.52743 16.4514 8.13965 16.2156 7.63681C15.9827 7.13113 15.8662 6.52459 15.8662 5.81721C15.8662 5.10982 15.9841 4.50471 16.2199 4.00186C16.4585 3.49902 16.7852 3.11408 17.2 2.84703C17.6148 2.57999 18.0849 2.44647 18.6105 2.44647C19.0168 2.44647 19.3435 2.51465 19.5906 2.65101C19.8406 2.78453 20.0338 2.94078 20.1702 3.11976C20.3094 3.29874 20.4173 3.45641 20.494 3.59277H20.5707V0.349875H21.8449V9.07715H20.6006V8.05868H20.494C20.4173 8.19789 20.3065 8.35698 20.1616 8.53596C20.0196 8.71493 19.8236 8.87118 19.5736 9.00471C19.3236 9.13823 18.9997 9.20499 18.602 9.20499ZM18.8832 8.11834C19.2497 8.11834 19.5594 8.02175 19.8122 7.82857C20.0679 7.63255 20.2611 7.36124 20.3918 7.01465C20.5253 6.66806 20.592 6.26465 20.592 5.80442C20.592 5.34988 20.5267 4.95215 20.396 4.61124C20.2653 4.27033 20.0736 4.00471 19.8207 3.81436C19.5679 3.62402 19.2554 3.52885 18.8832 3.52885C18.4997 3.52885 18.1801 3.62828 17.9244 3.82715C17.6687 4.02601 17.4756 4.29732 17.3449 4.64107C17.217 4.98482 17.1531 5.3726 17.1531 5.80442C17.1531 6.24192 17.2185 6.63539 17.3491 6.98482C17.4798 7.33425 17.673 7.61124 17.9287 7.81578C18.1872 8.01749 18.5054 8.11834 18.8832 8.11834ZM25.5682 9.22203C25.1535 9.22203 24.7785 9.14533 24.4432 8.99192C24.108 8.83567 23.8424 8.60982 23.6464 8.31436C23.4532 8.01891 23.3566 7.65669 23.3566 7.22772C23.3566 6.8584 23.4276 6.55442 23.5697 6.31578C23.7117 6.07715 23.9035 5.88823 24.145 5.74902C24.3864 5.60982 24.6563 5.50471 24.9546 5.43368C25.2529 5.36266 25.5569 5.30868 25.8665 5.27175C26.2586 5.2263 26.5768 5.18936 26.8211 5.16096C27.0654 5.12971 27.243 5.07999 27.3538 5.01181C27.4646 4.94363 27.52 4.83283 27.52 4.67942V4.64959C27.52 4.27743 27.4148 3.98908 27.2046 3.78453C26.9972 3.57999 26.6876 3.47772 26.2756 3.47772C25.8467 3.47772 25.5086 3.57289 25.2614 3.76323C25.0171 3.95073 24.8481 4.15953 24.7543 4.38965L23.5569 4.11692C23.6989 3.71919 23.9063 3.39817 24.179 3.15385C24.4546 2.90669 24.7714 2.72772 25.1293 2.61692C25.4873 2.50328 25.8637 2.44647 26.2586 2.44647C26.52 2.44647 26.7969 2.47772 27.0896 2.54022C27.385 2.59988 27.6606 2.71067 27.9163 2.8726C28.1748 3.03453 28.3864 3.26607 28.5512 3.56721C28.716 3.8655 28.7984 4.25328 28.7984 4.73056V9.07715H27.554V8.18226H27.5029C27.4205 8.34703 27.2969 8.50897 27.1322 8.66806C26.9674 8.82715 26.7557 8.95925 26.4972 9.06436C26.2387 9.16948 25.929 9.22203 25.5682 9.22203ZM25.8452 8.19931C26.1975 8.19931 26.4986 8.12971 26.7486 7.9905C27.0015 7.8513 27.1932 7.66948 27.3239 7.44505C27.4575 7.21777 27.5242 6.97488 27.5242 6.71635V5.8726C27.4788 5.91806 27.3907 5.96067 27.26 6.00044C27.1322 6.03738 26.9859 6.07005 26.8211 6.09846C26.6563 6.12402 26.4958 6.14817 26.3396 6.1709C26.1833 6.19078 26.0526 6.20783 25.9475 6.22203C25.7004 6.25328 25.4745 6.30584 25.27 6.37971C25.0682 6.45357 24.9063 6.5601 24.7842 6.69931C24.6648 6.83567 24.6052 7.01749 24.6052 7.24476C24.6052 7.5601 24.7217 7.79874 24.9546 7.96067C25.1876 8.11976 25.4844 8.19931 25.8452 8.19931ZM33.5508 2.53169V3.55442H29.9756V2.53169H33.5508ZM30.9344 0.963512H32.2085V7.15527C32.2085 7.40243 32.2455 7.58851 32.3193 7.71351C32.3932 7.83567 32.4883 7.91948 32.6048 7.96493C32.7241 8.00755 32.8534 8.02885 32.9926 8.02885C33.0949 8.02885 33.1844 8.02175 33.2611 8.00755C33.3378 7.99334 33.3974 7.98198 33.4401 7.97346L33.6702 9.02601C33.5963 9.05442 33.4912 9.08283 33.3548 9.11124C33.2185 9.14249 33.048 9.15953 32.8435 9.16238C32.5082 9.16806 32.1957 9.1084 31.906 8.9834C31.6162 8.8584 31.3818 8.66522 31.2028 8.40385C31.0239 8.14249 30.9344 7.81436 30.9344 7.41948V0.963512ZM37.711 9.20925C37.0661 9.20925 36.5107 9.07147 36.0448 8.7959C35.5817 8.51749 35.2238 8.12686 34.9709 7.62402C34.7209 7.11834 34.5959 6.52601 34.5959 5.84703C34.5959 5.17658 34.7209 4.58567 34.9709 4.07431C35.2238 3.56294 35.5761 3.1638 36.0278 2.87686C36.4823 2.58993 37.0136 2.44647 37.6215 2.44647C37.9908 2.44647 38.3488 2.50755 38.6954 2.62971C39.042 2.75186 39.353 2.94363 39.6286 3.20499C39.9042 3.46635 40.1215 3.80584 40.2806 4.22346C40.4397 4.63823 40.5192 5.14249 40.5192 5.73624V6.18794H35.3161V5.2334H39.2707C39.2707 4.89817 39.2025 4.6013 39.0661 4.34277C38.9298 4.08141 38.738 3.87544 38.4908 3.72488C38.2465 3.57431 37.9596 3.49902 37.63 3.49902C37.2721 3.49902 36.9596 3.58709 36.6925 3.76323C36.4283 3.93652 36.2238 4.1638 36.0789 4.44505C35.9369 4.72346 35.8658 5.02601 35.8658 5.35272V6.09846C35.8658 6.53596 35.9425 6.90811 36.0959 7.21493C36.2522 7.52175 36.4695 7.75613 36.7479 7.91806C37.0263 8.07715 37.3516 8.15669 37.7238 8.15669C37.9653 8.15669 38.1854 8.1226 38.3843 8.05442C38.5832 7.9834 38.755 7.87828 38.8999 7.73908C39.0448 7.59988 39.1556 7.428 39.2323 7.22346L40.4383 7.44078C40.3417 7.7959 40.1684 8.10698 39.9184 8.37402C39.6712 8.63823 39.3602 8.84419 38.9852 8.99192C38.613 9.13681 38.1883 9.20925 37.711 9.20925ZM44.3832 9.20499C43.8548 9.20499 43.3832 9.07005 42.9685 8.80016C42.5565 8.52743 42.2327 8.13965 41.9969 7.63681C41.7639 7.13113 41.6474 6.52459 41.6474 5.81721C41.6474 5.10982 41.7653 4.50471 42.0011 4.00186C42.2398 3.49902 42.5665 3.11408 42.9812 2.84703C43.396 2.57999 43.8662 2.44647 44.3918 2.44647C44.798 2.44647 45.1247 2.51465 45.3719 2.65101C45.6219 2.78453 45.8151 2.94078 45.9514 3.11976C46.0906 3.29874 46.1986 3.45641 46.2753 3.59277H46.352V0.349875H47.6261V9.07715H46.3818V8.05868H46.2753C46.1986 8.19789 46.0878 8.35698 45.9429 8.53596C45.8008 8.71493 45.6048 8.87118 45.3548 9.00471C45.1048 9.13823 44.781 9.20499 44.3832 9.20499ZM44.6645 8.11834C45.031 8.11834 45.3406 8.02175 45.5935 7.82857C45.8491 7.63255 46.0423 7.36124 46.173 7.01465C46.3065 6.66806 46.3733 6.26465 46.3733 5.80442C46.3733 5.34988 46.308 4.95215 46.1773 4.61124C46.0466 4.27033 45.8548 4.00471 45.602 3.81436C45.3491 3.62402 45.0366 3.52885 44.6645 3.52885C44.281 3.52885 43.9614 3.62828 43.7057 3.82715C43.45 4.02601 43.2568 4.29732 43.1261 4.64107C42.9983 4.98482 42.9344 5.3726 42.9344 5.80442C42.9344 6.24192 42.9997 6.63539 43.1304 6.98482C43.2611 7.33425 43.4543 7.61124 43.7099 7.81578C43.9685 8.01749 44.2866 8.11834 44.6645 8.11834ZM53.4855 0.349875L55.9145 7.45783H56.0125L58.4415 0.349875H59.8648L56.7241 9.07715H55.2028L52.0622 0.349875H53.4855ZM63.1876 9.20925C62.5427 9.20925 61.9873 9.07147 61.5214 8.7959C61.0583 8.51749 60.7004 8.12686 60.4475 7.62402C60.1975 7.11834 60.0725 6.52601 60.0725 5.84703C60.0725 5.17658 60.1975 4.58567 60.4475 4.07431C60.7004 3.56294 61.0526 3.1638 61.5043 2.87686C61.9589 2.58993 62.4901 2.44647 63.0981 2.44647C63.4674 2.44647 63.8254 2.50755 64.1719 2.62971C64.5185 2.75186 64.8296 2.94363 65.1052 3.20499C65.3807 3.46635 65.5981 3.80584 65.7572 4.22346C65.9163 4.63823 65.9958 5.14249 65.9958 5.73624V6.18794H60.7927V5.2334H64.7472C64.7472 4.89817 64.679 4.6013 64.5427 4.34277C64.4063 4.08141 64.2146 3.87544 63.9674 3.72488C63.7231 3.57431 63.4361 3.49902 63.1066 3.49902C62.7486 3.49902 62.4361 3.58709 62.1691 3.76323C61.9049 3.93652 61.7004 4.1638 61.5555 4.44505C61.4134 4.72346 61.3424 5.02601 61.3424 5.35272V6.09846C61.3424 6.53596 61.4191 6.90811 61.5725 7.21493C61.7288 7.52175 61.9461 7.75613 62.2245 7.91806C62.5029 8.07715 62.8282 8.15669 63.2004 8.15669C63.4418 8.15669 63.662 8.1226 63.8609 8.05442C64.0597 7.9834 64.2316 7.87828 64.3765 7.73908C64.5214 7.59988 64.6322 7.428 64.7089 7.22346L65.9148 7.44078C65.8182 7.7959 65.645 8.10698 65.395 8.37402C65.1478 8.63823 64.8367 8.84419 64.4617 8.99192C64.0896 9.13681 63.6648 9.20925 63.1876 9.20925ZM67.4095 9.07715V2.53169H68.641V3.57147H68.7092C68.8285 3.21919 69.0388 2.9422 69.3399 2.7405C69.6439 2.53595 69.9876 2.43368 70.3712 2.43368C70.4507 2.43368 70.5445 2.43652 70.6524 2.44221C70.7632 2.44789 70.8499 2.45499 70.9124 2.46351V3.68226C70.8612 3.66806 70.7703 3.65243 70.6396 3.63539C70.5089 3.6155 70.3783 3.60556 70.2476 3.60556C69.9464 3.60556 69.678 3.66948 69.4422 3.79732C69.2092 3.92232 69.0246 4.09703 68.8882 4.32147C68.7518 4.54306 68.6837 4.7959 68.6837 5.07999V9.07715H67.4095ZM76.9198 4.12971L75.765 4.33425C75.7167 4.18652 75.64 4.0459 75.5349 3.91238C75.4326 3.77885 75.2934 3.66948 75.1173 3.58425C74.9411 3.49902 74.7209 3.45641 74.4567 3.45641C74.0959 3.45641 73.7948 3.53738 73.5533 3.69931C73.3119 3.8584 73.1911 4.06436 73.1911 4.31721C73.1911 4.53596 73.2721 4.71209 73.434 4.84561C73.5959 4.97914 73.8573 5.08851 74.2181 5.17374L75.2579 5.41238C75.8602 5.55158 76.309 5.76607 76.6045 6.05584C76.8999 6.34561 77.0477 6.72203 77.0477 7.1851C77.0477 7.57715 76.934 7.92658 76.7067 8.2334C76.4823 8.53738 76.1684 8.77601 75.765 8.94931C75.3644 9.1226 74.8999 9.20925 74.3715 9.20925C73.6386 9.20925 73.0405 9.053 72.5775 8.7405C72.1144 8.42516 71.8303 7.97772 71.7252 7.39817L72.9567 7.21067C73.0334 7.53169 73.1911 7.77459 73.4298 7.93936C73.6684 8.1013 73.9795 8.18226 74.363 8.18226C74.7806 8.18226 75.1144 8.09561 75.3644 7.92232C75.6144 7.74618 75.7394 7.53169 75.7394 7.27885C75.7394 7.07431 75.6627 6.90243 75.5093 6.76323C75.3587 6.62402 75.1272 6.51891 74.8147 6.44789L73.7067 6.20499C73.0959 6.06578 72.6442 5.84419 72.3516 5.54022C72.0619 5.23624 71.917 4.8513 71.917 4.38539C71.917 3.99902 72.0249 3.66095 72.2408 3.37118C72.4567 3.08141 72.755 2.85556 73.1357 2.69363C73.5164 2.52885 73.9525 2.44647 74.444 2.44647C75.1513 2.44647 75.7082 2.59988 76.1144 2.90669C76.5207 3.21067 76.7891 3.61834 76.9198 4.12971ZM78.4486 9.07715V2.53169H79.7227V9.07715H78.4486ZM79.092 1.52175C78.8705 1.52175 78.6801 1.44789 78.521 1.30016C78.3648 1.14959 78.2866 0.970614 78.2866 0.763227C78.2866 0.553 78.3648 0.374023 78.521 0.226296C78.6801 0.0757277 78.8705 0.000443697 79.092 0.000443697C79.3136 0.000443697 79.5026 0.0757277 79.6588 0.226296C79.8179 0.374023 79.8974 0.553 79.8974 0.763227C79.8974 0.970614 79.8179 1.14959 79.6588 1.30016C79.5026 1.44789 79.3136 1.52175 79.092 1.52175ZM84.194 9.20925C83.5803 9.20925 83.0448 9.06863 82.5874 8.78738C82.13 8.50613 81.7749 8.11266 81.5221 7.60698C81.2692 7.1013 81.1428 6.51039 81.1428 5.83425C81.1428 5.15527 81.2692 4.56152 81.5221 4.053C81.7749 3.54448 82.13 3.14959 82.5874 2.86834C83.0448 2.58709 83.5803 2.44647 84.194 2.44647C84.8076 2.44647 85.3431 2.58709 85.8005 2.86834C86.2579 3.14959 86.613 3.54448 86.8658 4.053C87.1187 4.56152 87.2451 5.15527 87.2451 5.83425C87.2451 6.51039 87.1187 7.1013 86.8658 7.60698C86.613 8.11266 86.2579 8.50613 85.8005 8.78738C85.3431 9.06863 84.8076 9.20925 84.194 9.20925ZM84.1982 8.13965C84.5959 8.13965 84.9255 8.03453 85.1869 7.82431C85.4482 7.61408 85.6414 7.33425 85.7664 6.98482C85.8942 6.63539 85.9582 6.25044 85.9582 5.82999C85.9582 5.41238 85.8942 5.02885 85.7664 4.67942C85.6414 4.32715 85.4482 4.04448 85.1869 3.83141C84.9255 3.61834 84.5959 3.51181 84.1982 3.51181C83.7977 3.51181 83.4653 3.61834 83.2011 3.83141C82.9397 4.04448 82.7451 4.32715 82.6173 4.67942C82.4923 5.02885 82.4298 5.41238 82.4298 5.82999C82.4298 6.25044 82.4923 6.63539 82.6173 6.98482C82.7451 7.33425 82.9397 7.61408 83.2011 7.82431C83.4653 8.03453 83.7977 8.13965 84.1982 8.13965ZM89.9415 5.19078V9.07715H88.6673V2.53169H89.8903V3.59703H89.9713C90.1219 3.25044 90.3577 2.97203 90.6787 2.76181C91.0026 2.55158 91.4102 2.44647 91.9017 2.44647C92.3477 2.44647 92.7383 2.54022 93.0736 2.72772C93.4088 2.91238 93.6687 3.18794 93.8534 3.55442C94.0381 3.9209 94.1304 4.37402 94.1304 4.9138V9.07715H92.8562V5.06721C92.8562 4.59277 92.7327 4.22203 92.4855 3.95499C92.2383 3.6851 91.8989 3.55016 91.467 3.55016C91.1716 3.55016 90.9088 3.61408 90.6787 3.74192C90.4514 3.86976 90.271 4.05726 90.1375 4.30442C90.0068 4.54874 89.9415 4.84419 89.9415 5.19078ZM99.8545 7.99476C99.6215 7.99476 99.4212 7.91238 99.2536 7.7476C99.086 7.57999 99.0022 7.37828 99.0022 7.14249C99.0022 6.90953 99.086 6.71067 99.2536 6.5459C99.4212 6.37828 99.6215 6.29448 99.8545 6.29448C100.087 6.29448 100.288 6.37828 100.455 6.5459C100.623 6.71067 100.707 6.90953 100.707 7.14249C100.707 7.29874 100.667 7.44221 100.587 7.57289C100.511 7.70073 100.408 7.803 100.281 7.87971C100.153 7.95641 100.011 7.99476 99.8545 7.99476ZM99.8545 3.6226C99.6215 3.6226 99.4212 3.54022 99.2536 3.37544C99.086 3.20783 99.0022 3.00613 99.0022 2.77033C99.0022 2.53738 99.086 2.33851 99.2536 2.17374C99.4212 2.00613 99.6215 1.92232 99.8545 1.92232C100.087 1.92232 100.288 2.00613 100.455 2.17374C100.623 2.33851 100.707 2.53738 100.707 2.77033C100.707 2.92658 100.667 3.07005 100.587 3.20073C100.511 3.32857 100.408 3.43084 100.281 3.50755C100.153 3.58425 100.011 3.6226 99.8545 3.6226ZM105.572 9.07715V8.1226L108.525 5.06294C108.841 4.73056 109.101 4.43936 109.305 4.18936C109.512 3.93652 109.667 3.69647 109.77 3.46919C109.872 3.24192 109.923 3.00044 109.923 2.74476C109.923 2.45499 109.855 2.20499 109.718 1.99476C109.582 1.78169 109.396 1.61834 109.16 1.50471C108.924 1.38823 108.659 1.32999 108.363 1.32999C108.051 1.32999 107.778 1.39391 107.545 1.52175C107.312 1.64959 107.133 1.82999 107.008 2.06294C106.883 2.2959 106.821 2.56863 106.821 2.88113H105.564C105.564 2.34988 105.686 1.88539 105.93 1.48766C106.174 1.08993 106.51 0.781694 106.936 0.562944C107.362 0.341353 107.846 0.230557 108.389 0.230557C108.937 0.230557 109.42 0.339932 109.838 0.558682C110.258 0.774591 110.586 1.07005 110.822 1.44505C111.058 1.81721 111.176 2.23766 111.176 2.70641C111.176 3.03027 111.115 3.34703 110.993 3.65669C110.873 3.96635 110.664 4.31152 110.366 4.69221C110.068 5.07005 109.653 5.52885 109.122 6.06863L107.387 7.88397V7.94789H111.316V9.07715H105.572ZM113.788 9.15811C113.555 9.15811 113.355 9.07573 113.187 8.91096C113.02 8.74334 112.936 8.54164 112.936 8.30584C112.936 8.07289 113.02 7.87402 113.187 7.70925C113.355 7.54164 113.555 7.45783 113.788 7.45783C114.021 7.45783 114.221 7.54164 114.389 7.70925C114.557 7.87402 114.64 8.07289 114.64 8.30584C114.64 8.46209 114.601 8.60556 114.521 8.73624C114.444 8.86408 114.342 8.96635 114.214 9.04306C114.086 9.11976 113.944 9.15811 113.788 9.15811ZM119.052 9.22203C118.379 9.21919 117.803 9.04164 117.326 8.68936C116.849 8.33709 116.484 7.82431 116.231 7.15101C115.978 6.47772 115.852 5.66664 115.852 4.71777C115.852 3.77175 115.978 2.96351 116.231 2.29306C116.487 1.6226 116.853 1.11124 117.33 0.758967C117.81 0.406694 118.384 0.230557 119.052 0.230557C119.72 0.230557 120.292 0.408114 120.769 0.763227C121.247 1.1155 121.612 1.62686 121.864 2.29732C122.12 2.96493 122.248 3.77175 122.248 4.71777C122.248 5.66948 122.122 6.48198 121.869 7.15527C121.616 7.82573 121.251 8.33851 120.774 8.69363C120.296 9.0459 119.722 9.22203 119.052 9.22203ZM119.052 8.08425C119.643 8.08425 120.104 7.7959 120.437 7.21919C120.772 6.64249 120.94 5.80868 120.94 4.71777C120.94 3.99334 120.863 3.38113 120.71 2.88113C120.559 2.37828 120.342 1.9976 120.058 1.73908C119.776 1.47772 119.441 1.34703 119.052 1.34703C118.464 1.34703 118.002 1.63681 117.667 2.21635C117.332 2.7959 117.163 3.62971 117.16 4.71777C117.16 5.44505 117.235 6.0601 117.386 6.56294C117.539 7.06294 117.756 7.44221 118.038 7.70073C118.319 7.95641 118.657 8.08425 119.052 8.08425Z" fill="#CFD1D4"/>
</svg>


