<svg width="163" height="52" viewBox="0 0 163 52" fill="none" xmlns="http://www.w3.org/2000/svg">
<path fill-rule="evenodd" clip-rule="evenodd" d="M125.573 24.3723C125.318 14.8144 127.107 9.64237 137.198 9.71411C147.07 9.78437 148.686 14.9328 148.504 24.3691L125.573 24.3723ZM125.594 38.2577L125.666 27.6221H148.347L148.332 38.2577H151.841C151.988 31.2738 151.839 18.2553 151.122 15.6515C149.465 9.64261 144.58 6.65079 137.197 6.59644C129.705 6.54136 124.723 9.55991 123.014 15.3965C121.858 19.3454 122.254 31.1796 122.331 38.2577H125.594Z" fill="#E17E61"/>
<path fill-rule="evenodd" clip-rule="evenodd" d="M89.7959 34.6759C89.7959 30.5033 89.7978 26.3307 89.7959 22.1582C89.7937 17.6913 89.9887 14.8251 92.5595 12.4175C96.7566 8.48669 107.554 8.93109 111.361 12.8782C115.902 17.587 115.557 26.9387 110.886 30.9677C105.858 35.3051 97.6513 34.906 89.796 34.6759H89.7959ZM86.6502 37.788C91.3342 37.9926 97.2085 37.9365 101.865 37.6608C120.914 36.533 120.28 16.8245 113.766 10.6894C108.288 5.52991 95.7814 4.99497 90.1947 10.27C87.3572 12.9492 86.5766 17.1165 86.5804 22.1582C86.5824 24.7874 86.4384 36.175 86.6502 37.788Z" fill="#232323"/>
<path fill-rule="evenodd" clip-rule="evenodd" d="M68.8629 7.22852C68.7152 12.4794 69.4933 21.9518 68.0575 26.088C66.3847 30.9064 60.0959 35.0571 57.3679 35.0611C55.5712 35.0638 51.7122 32.5257 50.6826 31.6818C43.7892 26.0313 46.1784 17.5708 45.8665 7.22852H42.6908C42.532 10.8561 42.6687 14.7891 42.6686 18.45C42.6683 25.7333 43.5324 30.1706 49.4241 34.6838C50.5033 35.5105 54.5873 37.8758 56.8105 38.2575H57.8823C59.9977 37.8818 64.052 35.5887 65.185 34.776C71.0262 30.5851 72.0474 25.5229 72.0469 18.6681C72.0469 14.9202 72.1713 10.9533 72.0275 7.22852H68.8629Z" fill="#232323"/>
<path fill-rule="evenodd" clip-rule="evenodd" d="M80.9263 7.22852V38.2575H77.5623V7.22852H80.9263Z" fill="#232323"/>
<path fill-rule="evenodd" clip-rule="evenodd" d="M160.734 7.22852V38.2575H157.37V7.22852H160.734Z" fill="#232323"/>
<path fill-rule="evenodd" clip-rule="evenodd" d="M20.0085 0.228092C13.4757 1.99057 17.4606 9.81191 12.1239 13.9948C9.34799 16.1706 7.18521 15.408 3.97157 16.5308C1.47092 17.4045 -0.656836 19.6769 0.188557 23.2759C1.69467 29.6882 8.68653 26.0027 13.2627 31.8056C15.2236 34.292 14.9346 36.6241 16.0109 39.7516C16.8314 42.1358 19.2164 44.4298 22.759 43.5957C27.82 42.4041 30.3125 34.3329 21.8389 31.9552C18.7071 31.0764 16.5076 30.2398 14.6508 28.4591C10.5303 24.5074 10.6914 17.9429 16.106 14.0521C18.7461 12.1549 21.1434 12.2451 23.8989 10.9357C30.4294 7.83239 26.7002 -1.57727 20.0085 0.228092Z" fill="#E17E61"/>
<path fill-rule="evenodd" clip-rule="evenodd" d="M26.2391 16.3203C29.2981 16.3203 31.7781 18.8007 31.7781 21.8604C31.7781 24.9201 29.2981 27.4005 26.2391 27.4005C23.1801 27.4005 20.7002 24.9201 20.7002 21.8604C20.7002 18.8007 23.1801 16.3203 26.2391 16.3203Z" fill="#232323"/>
<path fill-rule="evenodd" clip-rule="evenodd" d="M21.616 3.59375C22.7587 3.59375 23.6851 4.52015 23.6851 5.66288C23.6851 6.80561 22.7587 7.73201 21.616 7.73201C20.4733 7.73201 19.5469 6.80561 19.5469 5.66288C19.5469 4.52015 20.4733 3.59375 21.616 3.59375Z" fill="white"/>
<path fill-rule="evenodd" clip-rule="evenodd" d="M21.616 36.0381C22.7587 36.0381 23.6851 36.9645 23.6851 38.1072C23.6851 39.2499 22.7587 40.1763 21.616 40.1763C20.4733 40.1763 19.5469 39.2499 19.5469 38.1072C19.5469 36.9645 20.4733 36.0381 21.616 36.0381Z" fill="white"/>
<path fill-rule="evenodd" clip-rule="evenodd" d="M5.6304 19.8154C6.77314 19.8154 7.69954 20.7418 7.69954 21.8846C7.69954 23.0273 6.77314 23.9537 5.6304 23.9537C4.48767 23.9537 3.56128 23.0273 3.56128 21.8846C3.56128 20.7418 4.48767 19.8154 5.6304 19.8154Z" fill="white"/>
<path fill-rule="evenodd" clip-rule="evenodd" d="M49.6637 51.4931V48.2099H42.3989V51.4931H41.3826V46.0434C41.3826 45.2879 41.4909 44.6323 41.7075 44.0768C41.9241 43.5213 42.2351 43.063 42.6406 42.7019C43.046 42.3408 43.5348 42.0714 44.1068 41.8936C44.6789 41.7158 45.3204 41.627 46.0313 41.627C46.7422 41.627 47.3837 41.7158 47.9558 41.8936C48.5279 42.0714 49.0166 42.3408 49.4221 42.7019C49.8275 43.063 50.1385 43.5213 50.3552 44.0768C50.5718 44.6323 50.6801 45.2879 50.6801 46.0434V51.4931H49.6637ZM42.3989 47.2433H49.6637V46.1267C49.6637 45.4823 49.5804 44.9351 49.4137 44.4851C49.2471 44.0351 49.0083 43.6713 48.6973 43.3935C48.3862 43.1157 48.0058 42.9158 47.5559 42.7936C47.106 42.6713 46.5978 42.6102 46.0313 42.6102C45.4648 42.6102 44.9566 42.6713 44.5067 42.7936C44.0568 42.9158 43.6764 43.1157 43.3654 43.3935C43.0543 43.6713 42.8155 44.0351 42.6489 44.4851C42.4823 44.9351 42.3989 45.4823 42.3989 46.1267V47.2433ZM53.5293 41.7936V51.4931H52.5129V41.7936H53.5293ZM54.8623 47.2933H60.1276V48.2099H54.8623V47.2933ZM62.7268 48.3599V51.4931H61.7105V45.96C61.7105 44.5712 62.102 43.5018 62.8851 42.7519C63.6683 42.0019 64.8429 41.627 66.4092 41.627C67.209 41.627 67.9032 41.7186 68.492 41.9019C69.0807 42.0853 69.5667 42.3352 69.9499 42.6519C70.3332 42.9685 70.6164 43.3407 70.7997 43.7685C70.983 44.1962 71.0746 44.6601 71.0746 45.1601C71.0746 45.7378 70.9774 46.2295 70.783 46.635C70.5886 47.0405 70.3054 47.3711 69.9333 47.6266C69.5611 47.8822 69.1085 48.0682 68.5753 48.1849C68.0421 48.3016 67.4367 48.3599 66.7591 48.3599H62.7268ZM66.4092 42.6102C65.2539 42.6102 64.3514 42.863 63.7016 43.3685C63.0518 43.874 62.7268 44.6657 62.7268 45.7434V47.3933H66.8091C67.309 47.3933 67.7561 47.3544 68.1504 47.2766C68.5447 47.1988 68.8808 47.0739 69.1585 46.9016C69.4362 46.7294 69.65 46.5017 69.8 46.2184C69.9499 45.9351 70.0249 45.5823 70.0249 45.1601C70.0249 44.2823 69.7083 43.638 69.0752 43.2269C68.442 42.8158 67.5533 42.6102 66.4092 42.6102ZM71.8578 47.8266C71.8578 47.26 71.9605 46.7405 72.166 46.2683C72.3715 45.7962 72.6575 45.3934 73.0241 45.0601C73.3907 44.7268 73.8239 44.4685 74.3237 44.2851C74.8236 44.1018 75.3679 44.0101 75.9567 44.0101C76.5454 44.0101 77.0897 44.1018 77.5896 44.2851C78.0894 44.4685 78.5226 44.7268 78.8892 45.0601C79.2558 45.3934 79.5418 45.7962 79.7473 46.2683C79.9528 46.7405 80.0556 47.26 80.0556 47.8266C80.0556 48.3932 79.9528 48.9126 79.7473 49.3848C79.5418 49.857 79.2558 50.2598 78.8892 50.5931C78.5226 50.9264 78.0894 51.1847 77.5896 51.3681C77.0897 51.5514 76.5454 51.643 75.9567 51.643C75.3679 51.643 74.8236 51.5514 74.3237 51.3681C73.8239 51.1847 73.3907 50.9264 73.0241 50.5931C72.6575 50.2598 72.3715 49.857 72.166 49.3848C71.9605 48.9126 71.8578 48.3932 71.8578 47.8266ZM79.0392 47.8266C79.0392 47.36 78.9586 46.9461 78.7976 46.585C78.6365 46.2239 78.4199 45.9212 78.1477 45.6767C77.8756 45.4323 77.5507 45.2462 77.173 45.1184C76.7953 44.9906 76.3899 44.9267 75.9567 44.9267C75.5234 44.9267 75.118 44.9906 74.7403 45.1184C74.3626 45.2462 74.0377 45.4323 73.7656 45.6767C73.4934 45.9212 73.2768 46.2239 73.1158 46.585C72.9547 46.9461 72.8741 47.36 72.8741 47.8266C72.8741 48.2932 72.9547 48.7071 73.1158 49.0682C73.2768 49.4293 73.4934 49.732 73.7656 49.9765C74.0377 50.2209 74.3626 50.407 74.7403 50.5348C75.118 50.6625 75.5234 50.7264 75.9567 50.7264C76.3899 50.7264 76.7953 50.6625 77.173 50.5348C77.5507 50.407 77.8756 50.2209 78.1477 49.9765C78.4199 49.732 78.6365 49.4293 78.7976 49.0682C78.9586 48.7071 79.0392 48.2932 79.0392 47.8266ZM86.8371 49.9098C86.6482 50.432 86.3455 50.8514 85.929 51.1681C85.5124 51.4847 84.9598 51.643 84.2711 51.643C83.5157 51.643 82.8881 51.4347 82.3883 51.0181C81.8884 50.6014 81.5441 50.0098 81.3552 49.2432C81.2997 49.0321 81.2636 48.7821 81.2469 48.4932C81.2302 48.2044 81.2219 47.8932 81.2219 47.5599V44.1601H82.1883V47.8266C82.1883 48.2488 82.2244 48.6377 82.2966 48.9932C82.3688 49.3487 82.4855 49.6543 82.6465 49.9098C82.8076 50.1654 83.0214 50.3626 83.288 50.5015C83.5546 50.6403 83.8823 50.7098 84.2711 50.7098C84.6488 50.7098 84.9709 50.6403 85.2375 50.5015C85.5041 50.3626 85.7207 50.1709 85.8873 49.9265C86.054 49.6821 86.1734 49.3876 86.2456 49.0432C86.3178 48.6988 86.3539 48.3155 86.3539 47.8932V44.1601H87.3203V47.8932C87.3203 48.3155 87.3564 48.6988 87.4286 49.0432C87.5008 49.3876 87.6202 49.6821 87.7868 49.9265C87.9534 50.1709 88.1673 50.3626 88.4283 50.5015C88.6894 50.6403 89.0143 50.7098 89.403 50.7098C89.7918 50.7098 90.1195 50.6403 90.3861 50.5015C90.6527 50.3626 90.8665 50.1654 91.0276 49.9098C91.1887 49.6543 91.3053 49.3487 91.3775 48.9932C91.4497 48.6377 91.4858 48.2488 91.4858 47.8266V44.1601H92.4522V47.5599C92.4522 47.8932 92.4439 48.2044 92.4273 48.4932C92.4106 48.7821 92.3745 49.0321 92.3189 49.2432C92.1301 50.0098 91.7857 50.6014 91.2859 51.0181C90.786 51.4347 90.1584 51.643 89.403 51.643C88.7143 51.643 88.1617 51.4847 87.7452 51.1681C87.3286 50.8514 87.0259 50.432 86.8371 49.9098ZM94.7683 48.3766C94.9016 49.121 95.2459 49.6987 95.8013 50.1098C96.3568 50.5209 97.051 50.7264 97.8841 50.7264C98.2729 50.7264 98.7006 50.6514 99.1671 50.5015C99.6337 50.3514 100.022 50.132 100.333 49.8432L101 50.4598C100.789 50.6709 100.553 50.8514 100.292 51.0014C100.031 51.1514 99.7586 51.2736 99.4753 51.3681C99.1921 51.4625 98.9088 51.5319 98.6256 51.5764C98.3423 51.6208 98.0785 51.643 97.8341 51.643C97.2454 51.643 96.6983 51.5569 96.1929 51.3847C95.6875 51.2125 95.2515 50.9653 94.8849 50.6431C94.5184 50.3209 94.2295 49.9265 94.0185 49.4598C93.8074 48.9932 93.7019 48.4599 93.7019 47.8599C93.7019 47.2822 93.8046 46.7544 94.0102 46.2767C94.2157 45.7989 94.5017 45.3934 94.8683 45.0601C95.2348 44.7268 95.668 44.4685 96.1679 44.2851C96.6678 44.1018 97.2121 44.0101 97.8008 44.0101C98.2118 44.0101 98.62 44.0629 99.0255 44.1685C99.4309 44.274 99.7892 44.4268 100.1 44.6268C100.411 44.8268 100.664 45.074 100.858 45.3684C101.053 45.6628 101.15 45.9989 101.15 46.3767C101.15 46.7544 101.08 47.0711 100.942 47.3266C100.803 47.5822 100.606 47.7877 100.35 47.9433C100.095 48.0988 99.7892 48.2099 99.4337 48.2766C99.0782 48.3432 98.6839 48.3766 98.2507 48.3766H94.7683ZM98.2507 47.4933C98.5062 47.4933 98.7478 47.4822 98.9755 47.46C99.2032 47.4377 99.4059 47.3905 99.5837 47.3183C99.7614 47.2461 99.9002 47.135 100 46.985C100.1 46.835 100.15 46.6322 100.15 46.3767C100.15 46.1211 100.081 45.9017 99.9419 45.7184C99.8031 45.5351 99.6226 45.3851 99.4004 45.2684C99.1782 45.1517 98.9255 45.0656 98.6422 45.0101C98.359 44.9545 98.0785 44.9267 97.8008 44.9267C96.9566 44.9267 96.2568 45.1462 95.7014 45.5851C95.146 46.0239 94.8238 46.66 94.735 47.4933H98.2507ZM106.099 44.9434C105.199 44.9434 104.505 45.2156 104.016 45.7601C103.527 46.3045 103.283 47.0711 103.283 48.0599V51.4931H102.316V47.9599C102.316 47.3933 102.4 46.8683 102.566 46.385C102.733 45.9017 102.977 45.4851 103.299 45.1351C103.621 44.7851 104.016 44.5101 104.482 44.3101C104.949 44.1101 105.482 44.0101 106.082 44.0101C106.726 44.0101 107.309 44.1324 107.831 44.3768L107.398 45.2601C107.021 45.049 106.587 44.9434 106.099 44.9434ZM108.731 48.3766C108.865 49.121 109.209 49.6987 109.764 50.1098C110.32 50.5209 111.014 50.7264 111.847 50.7264C112.236 50.7264 112.664 50.6514 113.13 50.5015C113.597 50.3514 113.985 50.132 114.296 49.8432L114.963 50.4598C114.752 50.6709 114.516 50.8514 114.255 51.0014C113.994 51.1514 113.722 51.2736 113.438 51.3681C113.155 51.4625 112.872 51.5319 112.589 51.5764C112.305 51.6208 112.041 51.643 111.797 51.643C111.208 51.643 110.661 51.5569 110.156 51.3847C109.65 51.2125 109.214 50.9653 108.848 50.6431C108.481 50.3209 108.192 49.9265 107.981 49.4598C107.77 48.9932 107.665 48.4599 107.665 47.8599C107.665 47.2822 107.768 46.7544 107.973 46.2767C108.179 45.7989 108.465 45.3934 108.831 45.0601C109.198 44.7268 109.631 44.4685 110.131 44.2851C110.631 44.1018 111.175 44.0101 111.764 44.0101C112.175 44.0101 112.583 44.0629 112.988 44.1685C113.394 44.274 113.752 44.4268 114.063 44.6268C114.374 44.8268 114.627 45.074 114.821 45.3684C115.016 45.6628 115.113 45.9989 115.113 46.3767C115.113 46.7544 115.043 47.0711 114.905 47.3266C114.766 47.5822 114.569 47.7877 114.313 47.9433C114.058 48.0988 113.752 48.2099 113.397 48.2766C113.041 48.3432 112.647 48.3766 112.214 48.3766H108.731ZM112.214 47.4933C112.469 47.4933 112.711 47.4822 112.938 47.46C113.166 47.4377 113.369 47.3905 113.547 47.3183C113.724 47.2461 113.863 47.135 113.963 46.985C114.063 46.835 114.113 46.6322 114.113 46.3767C114.113 46.1211 114.044 45.9017 113.905 45.7184C113.766 45.5351 113.586 45.3851 113.363 45.2684C113.141 45.1517 112.888 45.0656 112.605 45.0101C112.322 44.9545 112.041 44.9267 111.764 44.9267C110.92 44.9267 110.22 45.1462 109.664 45.5851C109.109 46.0239 108.787 46.66 108.698 47.4933H112.214ZM117.129 47.8266C117.129 48.2932 117.21 48.7071 117.371 49.0682C117.532 49.4293 117.748 49.732 118.02 49.9765C118.293 50.2209 118.617 50.407 118.995 50.5348C119.373 50.6625 119.778 50.7264 120.212 50.7264C120.645 50.7264 121.047 50.657 121.42 50.5181C121.792 50.3792 122.117 50.1848 122.394 49.9348C122.672 49.6848 122.889 49.3793 123.044 49.0182C123.2 48.6571 123.277 48.2599 123.277 47.8266C123.277 47.3377 123.2 46.9128 123.044 46.5517C122.889 46.1906 122.672 45.8878 122.394 45.6434C122.117 45.399 121.792 45.2184 121.42 45.1017C121.047 44.9851 120.645 44.9267 120.212 44.9267C119.778 44.9267 119.373 44.9906 118.995 45.1184C118.617 45.2462 118.293 45.4323 118.02 45.6767C117.748 45.9212 117.532 46.2239 117.371 46.585C117.21 46.9461 117.129 47.36 117.129 47.8266ZM124.26 47.6266C124.26 48.2821 124.155 48.8571 123.944 49.3515C123.733 49.8459 123.444 50.2654 123.077 50.6098C122.711 50.9542 122.28 51.2125 121.786 51.3847C121.292 51.5569 120.767 51.643 120.212 51.643C119.612 51.643 119.059 51.5542 118.554 51.3764C118.048 51.1986 117.615 50.9431 117.254 50.6098C116.893 50.2765 116.612 49.8737 116.413 49.4015C116.213 48.9293 116.113 48.4043 116.113 47.8266C116.113 47.26 116.215 46.7405 116.421 46.2683C116.626 45.7962 116.912 45.3934 117.279 45.0601C117.646 44.7268 118.079 44.4685 118.579 44.2851C119.078 44.1018 119.623 44.0101 120.212 44.0101C120.856 44.0101 121.461 44.1379 122.028 44.3935C122.594 44.649 123.027 44.999 123.327 45.4434C123.305 45.299 123.294 45.1351 123.294 44.9518C123.294 44.7684 123.294 44.599 123.294 44.4435V41.7936H124.26V47.6266ZM137.29 42.7769H134.108C133.586 42.7769 133.103 42.8352 132.658 42.9519C132.214 43.0685 131.833 43.2546 131.517 43.5102C131.2 43.7657 130.953 44.0962 130.775 44.5018C130.598 44.9073 130.509 45.399 130.509 45.9767V46.0767H137.257V47.0433H130.509V47.31C130.509 47.8877 130.598 48.3794 130.775 48.7849C130.953 49.1904 131.2 49.5209 131.517 49.7765C131.833 50.032 132.214 50.2181 132.658 50.3348C133.103 50.4514 133.586 50.5098 134.108 50.5098H137.29V51.4931H134.108C133.408 51.4931 132.772 51.4042 132.2 51.2264C131.628 51.0486 131.142 50.782 130.742 50.4265C130.342 50.0709 130.034 49.6348 129.817 49.1182C129.601 48.6015 129.492 47.9988 129.492 47.31V45.9767C129.492 45.299 129.601 44.699 129.817 44.1768C130.034 43.6546 130.342 43.2158 130.742 42.8602C131.142 42.5047 131.628 42.238 132.2 42.0603C132.772 41.8825 133.408 41.7936 134.108 41.7936H137.29V42.7769ZM145.388 43.4935C145.61 42.9602 145.966 42.5158 146.455 42.1602C146.943 41.8047 147.582 41.627 148.371 41.627C149.004 41.627 149.543 41.7408 149.987 41.9686C150.431 42.1964 150.792 42.5047 151.07 42.8935C151.348 43.2824 151.55 43.7435 151.678 44.2768C151.806 44.8101 151.87 45.3823 151.87 45.9934V51.4931H150.87V45.9934C150.87 45.5156 150.828 45.0684 150.745 44.6518C150.662 44.2351 150.523 43.8768 150.328 43.5768C150.134 43.2769 149.879 43.0408 149.562 42.8685C149.245 42.6963 148.848 42.6102 148.371 42.6102C147.904 42.6102 147.513 42.6908 147.196 42.8519C146.879 43.013 146.624 43.2407 146.43 43.5352C146.235 43.8296 146.093 44.174 146.005 44.5684C145.916 44.9629 145.871 45.3934 145.871 45.86V51.4931H144.872V45.86C144.872 45.3934 144.827 44.9629 144.738 44.5684C144.649 44.174 144.508 43.8296 144.313 43.5352C144.119 43.2407 143.864 43.013 143.547 42.8519C143.23 42.6908 142.839 42.6102 142.372 42.6102C141.895 42.6102 141.497 42.6963 141.181 42.8685C140.864 43.0408 140.609 43.2769 140.414 43.5768C140.22 43.8768 140.081 44.2351 139.998 44.6518C139.915 45.0684 139.873 45.5156 139.873 45.9934V51.4931H138.873V45.9934C138.873 45.3823 138.937 44.8101 139.065 44.2768C139.193 43.7435 139.395 43.2824 139.673 42.8935C139.951 42.5047 140.312 42.1964 140.756 41.9686C141.2 41.7408 141.739 41.627 142.372 41.627C143.161 41.627 143.802 41.8047 144.297 42.1602C144.791 42.5158 145.149 42.9602 145.371 43.4935H145.388ZM153.703 51.4931V45.96C153.703 44.5712 154.094 43.5018 154.877 42.7519C155.66 42.0019 156.835 41.627 158.401 41.627C159.179 41.627 159.848 41.7103 160.409 41.8769C160.97 42.0436 161.434 42.2714 161.8 42.5602C162.167 42.8491 162.439 43.1963 162.617 43.6018C162.795 44.0074 162.883 44.449 162.883 44.9267C162.883 45.6267 162.678 46.2045 162.267 46.66C161.856 47.1155 161.345 47.4377 160.734 47.6266C161.434 47.9488 161.986 48.4293 162.392 49.0682C162.797 49.707 163 50.5153 163 51.4931H161.934C161.934 50.3265 161.623 49.4571 161.001 48.8849C160.379 48.3127 159.468 48.0266 158.268 48.0266H154.719V51.4931H153.703ZM158.401 42.6102C157.246 42.6102 156.343 42.863 155.694 43.3685C155.044 43.874 154.719 44.6657 154.719 45.7434V47.06H158.618C159.029 47.06 159.429 47.0239 159.818 46.9516C160.206 46.8794 160.551 46.76 160.851 46.5933C161.151 46.4267 161.389 46.21 161.567 45.9434C161.745 45.6767 161.834 45.3434 161.834 44.9434C161.834 44.5101 161.75 44.1435 161.584 43.8435C161.417 43.5435 161.184 43.3019 160.884 43.1185C160.584 42.9352 160.223 42.8046 159.801 42.7269C159.379 42.6491 158.912 42.6102 158.401 42.6102Z" fill="#232323"/>
</svg>
